<svg width="18" height="19" viewBox="0 0 18 19" fill="none" xmlns="http://www.w3.org/2000/svg">
<g clip-path="url(#clip0_14_1018)">
<path d="M15.1876 12.9549V6.04512C15.5713 5.94671 15.9222 5.74851 16.2046 5.47064C16.487 5.19277 16.6908 4.84513 16.7954 4.46301C16.9 4.08089 16.9017 3.67789 16.8002 3.29494C16.6987 2.91198 16.4976 2.56271 16.2175 2.28256C15.9373 2.00242 15.5881 1.8014 15.2051 1.69989C14.8222 1.59838 14.4192 1.60001 14.037 1.70461C13.6549 1.80921 13.3073 2.01305 13.0294 2.29545C12.7515 2.57784 12.5533 2.92873 12.4549 3.31249H5.54518C5.44677 2.92873 5.24857 2.57784 4.9707 2.29545C4.69283 2.01305 4.34519 1.80921 3.96307 1.70461C3.58095 1.60001 3.17795 1.59838 2.795 1.69989C2.41204 1.8014 2.06277 2.00242 1.78263 2.28256C1.50249 2.56271 1.30146 2.91198 1.19995 3.29494C1.09844 3.67789 1.10007 4.08089 1.20467 4.46301C1.30927 4.84513 1.51311 5.19277 1.79551 5.47064C2.0779 5.74851 2.42879 5.94671 2.81255 6.04512V12.9549C2.42879 13.0533 2.0779 13.2515 1.79551 13.5293C1.51311 13.8072 1.30927 14.1549 1.20467 14.537C1.10007 14.9191 1.09844 15.3221 1.19995 15.705C1.30146 16.088 1.50249 16.4373 1.78263 16.7174C2.06277 16.9976 2.41204 17.1986 2.795 17.3001C3.17795 17.4016 3.58095 17.4 3.96307 17.2954C4.34519 17.1908 4.69283 16.9869 4.9707 16.7045C5.24857 16.4221 5.44677 16.0713 5.54518 15.6875H12.4549C12.5533 16.0713 12.7515 16.4221 13.0294 16.7045C13.3073 16.9869 13.6549 17.1908 14.037 17.2954C14.4192 17.4 14.8222 17.4016 15.2051 17.3001C15.5881 17.1986 15.9373 16.9976 16.2175 16.7174C16.4976 16.4373 16.6987 16.088 16.8002 15.705C16.9017 15.3221 16.9 14.9191 16.7954 14.537C16.6908 14.1549 16.487 13.8072 16.2046 13.5293C15.9222 13.2515 15.5713 13.0533 15.1876 12.9549ZM14.6251 2.74999C14.8476 2.74999 15.0651 2.81597 15.2501 2.93959C15.4351 3.06321 15.5793 3.23891 15.6644 3.44447C15.7496 3.65004 15.7718 3.87624 15.7284 4.09447C15.685 4.3127 15.5779 4.51315 15.4205 4.67049C15.2632 4.82782 15.0628 4.93497 14.8445 4.97838C14.6263 5.02178 14.4001 4.99951 14.1945 4.91436C13.989 4.82921 13.8133 4.68501 13.6897 4.50001C13.566 4.315 13.5001 4.0975 13.5001 3.87499C13.5004 3.57673 13.619 3.29078 13.8299 3.07988C14.0408 2.86897 14.3268 2.75034 14.6251 2.74999ZM2.25005 3.87499C2.25005 3.65249 2.31603 3.43498 2.43965 3.24998C2.56327 3.06497 2.73897 2.92078 2.94454 2.83563C3.1501 2.75048 3.3763 2.7282 3.59453 2.77161C3.81276 2.81502 4.01322 2.92216 4.17055 3.0795C4.32788 3.23683 4.43503 3.43729 4.47844 3.65552C4.52185 3.87374 4.49957 4.09995 4.41442 4.30551C4.32927 4.51108 4.18508 4.68678 4.00007 4.8104C3.81506 4.93401 3.59756 4.99999 3.37505 4.99999C3.07678 4.9997 2.7908 4.88107 2.57989 4.67016C2.36897 4.45924 2.25035 4.17327 2.25005 3.87499ZM3.37505 16.25C3.15255 16.25 2.93504 16.184 2.75004 16.0604C2.56503 15.9368 2.42084 15.7611 2.33569 15.5555C2.25054 15.3499 2.22826 15.1237 2.27167 14.9055C2.31508 14.6873 2.42222 14.4868 2.57956 14.3295C2.73689 14.1722 2.93735 14.065 3.15558 14.0216C3.37381 13.9782 3.60001 14.0005 3.80557 14.0856C4.01114 14.1708 4.18684 14.315 4.31046 14.5C4.43407 14.685 4.50005 14.9025 4.50005 15.125C4.49971 15.4233 4.38108 15.7092 4.17017 15.9201C3.95927 16.131 3.67332 16.2497 3.37505 16.25ZM12.4549 14.5625H5.54518C5.44444 14.1758 5.24235 13.8229 4.95975 13.5403C4.67716 13.2577 4.3243 13.0556 3.93755 12.9549V6.04512C4.32427 5.94432 4.6771 5.74221 4.95969 5.45963C5.24227 5.17704 5.44438 4.82421 5.54518 4.43749H12.4549C12.5557 4.82423 12.7578 5.1771 13.0404 5.45969C13.3229 5.74228 13.6758 5.94438 14.0626 6.04512V12.9549C13.6758 13.0556 13.3229 13.2577 13.0403 13.5403C12.7577 13.8229 12.5556 14.1757 12.4549 14.5625ZM14.6251 16.25C14.4025 16.25 14.185 16.184 14 16.0604C13.815 15.9368 13.6708 15.7611 13.5857 15.5555C13.5005 15.3499 13.4783 15.1237 13.5217 14.9055C13.5651 14.6873 13.6722 14.4868 13.8296 14.3295C13.9869 14.1722 14.1873 14.065 14.4056 14.0216C14.6238 13.9782 14.85 14.0005 15.0556 14.0856C15.2611 14.1708 15.4368 14.315 15.5605 14.5C15.6841 14.685 15.7501 14.9025 15.7501 15.125C15.7497 15.4232 15.631 15.7092 15.4201 15.92C15.2092 16.1309 14.9233 16.2496 14.6251 16.25Z" fill="#98C23C"/>
</g>
<defs>
<clipPath id="clip0_14_1018">
<rect width="18" height="18" fill="white" transform="translate(0 0.5)"/>
</clipPath>
</defs>
</svg>
