<svg width="18" height="19" viewBox="0 0 18 19" fill="none" xmlns="http://www.w3.org/2000/svg">
<path d="M15 5C15 4.55975 14.8073 4.12475 14.4375 3.8285C13.7902 3.311 12.8468 3.41525 12.3285 4.0625L10.2368 6.677L8.4 5.3C7.752 4.814 6.83475 4.93025 6.3285 5.56325L3.3285 9.31325C3.108 9.58925 3 9.9215 3 10.25V12.5H15V5ZM15 14.75H3C2.586 14.75 2.25 15.0853 2.25 15.5C2.25 15.9148 2.586 16.25 3 16.25H15C15.414 16.25 15.75 15.9148 15.75 15.5C15.75 15.0853 15.414 14.75 15 14.75Z" fill="#98C23C"/>
</svg>
