<svg width="19" height="19" viewBox="0 0 19 19" fill="none" xmlns="http://www.w3.org/2000/svg">
<g clip-path="url(#clip0_14_1062)">
<path d="M18.3875 11.0428H16.3917L7.69299 7.79774L3.002 3.10671C2.76282 2.86749 2.37496 2.86749 2.13574 3.10671L0.179435 5.06301C0.0645214 5.17788 0 5.33372 0 5.49616C0 5.65861 0.0645214 5.8144 0.179435 5.92927L3.9715 9.72133L3.38541 12.2939C3.16841 12.6656 3.04337 13.0972 3.04337 13.5578C3.04337 14.9445 4.17155 16.0728 5.55831 16.0728C6.74792 16.0728 7.74653 15.2422 8.00661 14.1308H12.5065C12.7666 15.2423 13.7652 16.0728 14.9548 16.0728C16.3416 16.0728 17.4697 14.9445 17.4697 13.5578C17.4697 13.1932 17.3911 12.8467 17.2509 12.5336V12.268H18.3875C18.7258 12.268 19 11.9937 19 11.6554C19 11.3171 18.7258 11.0428 18.3875 11.0428ZM1.47881 5.49616L2.56885 4.40612L6.35327 8.1905L4.87761 8.89493L1.47881 5.49616ZM5.55827 14.8476C4.84703 14.8476 4.26842 14.269 4.26842 13.5578C4.26842 12.8465 4.84703 12.2679 5.55827 12.2679C6.26952 12.2679 6.84813 12.8465 6.84813 13.5578C6.84813 14.269 6.26952 14.8476 5.55827 14.8476ZM14.9548 14.8476C14.2435 14.8476 13.6649 14.269 13.6649 13.5578C13.6649 12.8465 14.2435 12.2679 14.9548 12.2679C15.666 12.2679 16.2446 12.8465 16.2446 13.5578C16.2446 14.269 15.666 14.8476 14.9548 14.8476Z" fill="#98C23C"/>
</g>
<defs>
<clipPath id="clip0_14_1062">
<rect width="19" height="19" fill="white"/>
</clipPath>
</defs>
</svg>
