<svg width="19" height="17" viewBox="0 0 19 17" fill="none" xmlns="http://www.w3.org/2000/svg">
<g clip-path="url(#clip0_14_1039)">
<path d="M8.09216 16.5429C7.41744 16.9207 6.54716 17.1841 5.77124 16.8408C3.90112 16.0138 4.13384 13.845 3.15991 12.3487C2.32776 11.0696 0.00391792 10.0639 6.54676e-06 8.46509C-0.00243806 7.51923 0.680097 6.78105 1.45553 6.34712C2.51649 5.75312 3.8664 5.94356 5.23832 6.56975C5.79276 6.82277 7.11382 6.70759 8.25546 6.8468C9.39807 6.98645 10.3788 7.42084 10.8013 8.07015C11.3865 8.96885 11.3215 9.88251 10.9494 10.72C10.5138 11.6999 9.69924 12.5768 9.64693 13.2288C9.53497 14.6154 9.32913 15.8506 8.09265 16.5425L8.09216 16.5429Z" fill="#98C23C"/>
<path d="M8.91198 3.75399C9.86819 2.44763 9.83904 0.882264 8.84687 0.257638C7.8547 -0.366988 6.27523 0.185661 5.31902 1.49201C4.36281 2.79837 4.39196 4.36374 5.38413 4.98836C6.3763 5.61299 7.95577 5.06034 8.91198 3.75399Z" fill="#98C23C"/>
<path d="M14.2673 5.51336C15.7644 4.47132 16.3809 2.8888 15.6443 1.9787C14.9078 1.0686 13.0971 1.17557 11.6001 2.21761C10.103 3.25966 9.48649 4.84218 10.223 5.75228C10.9596 6.66237 12.7702 6.55541 14.2673 5.51336Z" fill="#98C23C"/>
<path d="M14.5094 15.6135C16.2013 15.4375 17.4645 14.3989 17.3308 13.2937C17.1972 12.1885 15.7172 11.4353 14.0254 11.6113C12.3335 11.7873 11.0703 12.8259 11.2039 13.9311C11.3376 15.0363 12.8175 15.7895 14.5094 15.6135Z" fill="#98C23C"/>
<path d="M16.7436 10.1196C18.4351 9.37636 19.3806 7.94021 18.8552 6.91186C18.3299 5.88351 16.5327 5.65238 14.8412 6.39561C13.1496 7.13884 12.2042 8.57499 12.7295 9.60334C13.2548 10.6317 15.052 10.8628 16.7436 10.1196Z" fill="#98C23C"/>
</g>
<defs>
<clipPath id="clip0_14_1039">
<rect width="19" height="17" fill="white"/>
</clipPath>
</defs>
</svg>
