<svg width="24" height="24" viewBox="0 0 24 24" fill="none" xmlns="http://www.w3.org/2000/svg">
<g opacity="0.3" clip-path="url(#clip0_57_170)">
<path d="M23.2174 4.43478H0.782625C0.350391 4.43478 0 4.78517 0 5.21736V18.7826C0 19.2148 0.350391 19.5652 0.782625 19.5652H23.2174C23.6496 19.5652 24 19.2148 24 18.7826V5.21736C24 4.78517 23.6496 4.43478 23.2174 4.43478ZM1.5652 5.99999H4.61691C4.30486 7.53097 3.09619 8.73964 1.5652 9.05169V5.99999ZM1.5652 18V14.9483C3.09619 15.2603 4.30486 16.469 4.61691 18H1.5652ZM22.4348 18H19.3831C19.6951 16.469 20.9038 15.2603 22.4348 14.9483V18ZM22.4348 13.3605C20.0392 13.7047 18.1395 15.6044 17.7953 18H6.20475C5.86055 15.6043 3.96084 13.7046 1.56525 13.3605V10.6395C3.96089 10.2953 5.86059 8.39563 6.20475 6.00003H17.7953C18.1395 8.39568 20.0392 10.2954 22.4348 10.6395V13.3605ZM22.4348 9.05169C20.9038 8.73969 19.6951 7.53097 19.3831 5.99999H22.4348V9.05169Z" fill="black"/>
<path d="M11.9999 8.08698C9.84229 8.08698 8.08691 9.84235 8.08691 12C8.08691 14.1577 9.84229 15.913 11.9999 15.913C14.1576 15.913 15.913 14.1577 15.913 12C15.913 9.84235 14.1576 8.08698 11.9999 8.08698ZM11.9999 14.3478C10.7054 14.3478 9.65212 13.2946 9.65212 12C9.65212 10.7054 10.7054 9.65218 11.9999 9.65218C13.2945 9.65218 14.3478 10.7054 14.3478 12C14.3478 13.2946 13.2945 14.3478 11.9999 14.3478Z" fill="black"/>
</g>
<defs>
<clipPath id="clip0_57_170">
<rect width="24" height="24" fill="white"/>
</clipPath>
</defs>
</svg>
