<svg width="20" height="20" viewBox="0 0 20 20" fill="none" xmlns="http://www.w3.org/2000/svg">
<g clip-path="url(#clip0_47_448)">
<path d="M2.7542 4.59751H17.2457C17.7118 4.59751 18.0932 4.21614 18.0932 3.75005C18.0932 3.28396 17.7118 2.90259 17.2457 2.90259H2.7542C2.28811 2.90259 1.90674 3.28396 1.90674 3.75005C1.90674 4.21614 2.28811 4.59751 2.7542 4.59751Z" fill="#98C23C"/>
<path d="M6.3983 1.71616H13.6017C14.0678 1.71616 14.4915 1.33479 14.4915 0.868701C14.4915 0.402607 14.1101 0.0212402 13.644 0.0212402H6.3983C5.93221 0.0212402 5.55084 0.402607 5.55084 0.868701C5.55084 1.33479 5.93217 1.71616 6.3983 1.71616Z" fill="#98C23C"/>
<path d="M19.1525 18.2841H18.8136V7.52134H19.1525C19.6186 7.52134 20 7.13997 20 6.67388C20 6.20778 19.6186 5.82642 19.1525 5.82642H0.847461C0.381367 5.82646 0 6.20778 0 6.67388C0 7.13997 0.381367 7.52134 0.847461 7.52134H1.18645V18.284H0.847461C0.381367 18.2841 0 18.6654 0 19.1315C0 19.5976 0.381367 19.979 0.847461 19.979H2.03391H7.37289H12.6271H17.9661H19.1525C19.6186 19.979 19.9576 19.64 20 19.1315C20 18.6654 19.6186 18.2841 19.1525 18.2841ZM2.88137 7.52134H17.161V18.284H13.4746V12.2247C13.4746 11.7586 13.0932 11.3773 12.6271 11.3773H7.37289C6.9068 11.3773 6.52543 11.7586 6.52543 12.2247V18.2841H2.88137V7.52134ZM11.7796 18.2841H8.17797V13.0298H11.7796V18.2841Z" fill="#98C23C"/>
</g>
<defs>
<clipPath id="clip0_47_448">
<rect width="20" height="20" fill="white"/>
</clipPath>
</defs>
</svg>
