<svg width="25" height="35" viewBox="0 0 25 35" fill="none" xmlns="http://www.w3.org/2000/svg">
<g clip-path="url(#clip0_2_177)">
<path d="M12.242 34.9667H14.6525C14.3719 33.0103 12.0505 17.3113 8.89712 11.4756C5.53181 5.24645 3.32239 4.63538 3.32239 4.63538C3.32239 4.63538 7.52933 9.52038 9.21138 15.3824C10.7754 20.8318 12.0674 33.2459 12.2408 34.9655L12.242 34.9667Z" fill="#ACD13F"/>
<path d="M16.3068 4.67484C16.3068 4.67484 12.7356 12.3258 12.207 19.648C11.7037 26.6209 12.0083 34.5398 12.0083 34.5398H13.4628C13.4628 34.5398 12.9343 29.2745 13.0655 23.4328C13.1979 17.5911 13.7927 13.3136 14.52 10.9267C15.2472 8.5398 16.3056 4.67365 16.3056 4.67365L16.3068 4.67484Z" fill="#7EB500"/>
<path d="M13.4315 34.7203H15.8806C15.8806 34.7203 13.7133 22.2764 15.6915 14.3229C17.6698 6.36934 20.2139 2.62756 20.2139 2.62756C20.2139 2.62756 16.2574 6.74483 14.6561 14.1363C13.0547 21.5278 13.4315 34.7203 13.4315 34.7203Z" fill="#729918"/>
<path d="M11.522 34.9667C11.5352 32.9613 11.6267 20.2088 11.8663 17.2061C12.1252 13.9438 13.4219 9.30872 14.1998 5.78936C14.9776 2.26881 12.9897 0.466675 12.9897 0.466675C12.9897 0.466675 14.8909 2.26881 12.1252 10.1673C9.48592 17.7023 10.1566 33.6094 10.2192 34.9667H11.522Z" fill="#96CA00"/>
<path d="M17.3049 20.9442C14.9342 26.1426 14.6187 32.5917 14.5874 34.9667H16.9786C16.7884 32.3155 16.4874 24.6645 18.9099 20.454C21.8731 15.3035 24.4654 16.1621 24.4654 16.1621C24.4654 16.1621 20.2681 14.4461 17.3049 20.9442Z" fill="#729918"/>
<path d="M13.3641 34.9667H15.1738C15.3893 32.1158 16.1852 23.1207 17.9612 18.3923C20.0899 12.7252 18.5716 6.81779 18.5716 6.81779C18.5716 6.81779 19.3663 12.6296 16.5392 18.8097C14.1311 24.0726 13.499 32.5606 13.3641 34.9655V34.9667Z" fill="#99CA00"/>
<path d="M10.6502 34.9667H12.9764C12.7007 33.4097 10.7345 22.6065 8.66592 18.6722C6.43242 14.4281 4.77806 12.4418 0.699951 10.9398C0.699951 10.9398 5.67868 12.9728 8.01935 22.1245C9.80134 29.0915 10.4443 33.3356 10.6502 34.9667Z" fill="#7EB500"/>
<path d="M10.6936 34.9667C10.1349 32.4124 7.89539 23.9458 2.35437 21.5697C2.35437 21.5697 5.43432 24.7207 6.94419 28.197C7.95319 30.5193 8.47333 33.3451 8.70812 34.9667H10.6948H10.6936Z" fill="#99CA00"/>
</g>
<defs>
<clipPath id="clip0_2_177">
<rect width="23.7667" height="34.5" fill="white" transform="translate(0.699951 0.466675)"/>
</clipPath>
</defs>
</svg>
