<svg width="23" height="20" viewBox="0 0 23 20" fill="none" xmlns="http://www.w3.org/2000/svg">
<g clip-path="url(#clip0_2_143)">
<path d="M15.6682 19.9667C16.0587 19.4004 16.787 18.2261 16.9744 17.0945C17.2338 15.5275 18.4458 15.0058 18.4458 15.0058C18.4458 15.0058 16.8009 15.1804 16.0218 17.0945C15.4809 18.4229 14.6501 19.458 14.1913 19.9667H15.6682Z" fill="#ACD13F"/>
<path d="M17.1257 13.9606C14.3869 15.483 13.869 18.8741 13.7721 19.9667H14.6897C14.6943 19.0746 14.9389 16.6461 17.2983 14.8313C20.2412 12.5681 22.2323 12.9162 22.2323 12.9162C22.2323 12.9162 20.4147 12.1328 17.1248 13.9606H17.1257Z" fill="#7EB500"/>
<path d="M12.9515 19.9667H14.0648C14.7147 15.8775 14.9547 12.7714 14.7027 7.69364C14.4433 2.47011 16.7796 0.0333252 16.7796 0.0333252C13.5774 2.90548 13.4906 7.86723 13.8368 10.8266C14.1359 13.3785 13.2119 18.5816 12.9515 19.9667Z" fill="#99CA00"/>
<path d="M13.1472 19.9667C13.1555 18.9093 13.1795 14.8647 13.0586 12.6545C12.9285 10.2938 12.5389 5.08141 12.5389 5.08141C12.5389 5.08141 12.225 11.8496 11.9334 14.395C11.7192 16.26 11.925 19.0996 11.997 19.9657H13.1472V19.9667Z" fill="#609607"/>
<path d="M11.2502 19.9667H11.7413C11.6416 18.4907 11.1441 11.0847 11.0665 8.73797C10.9798 6.12667 10.6336 1.68755 10.6336 1.68755C10.6336 1.68755 9.68188 8.99975 10.2007 13.6997C10.6087 17.3962 11.0711 19.3159 11.2493 19.9667H11.2502Z" fill="#7DB500"/>
<path d="M8.79481 10.2724C9.74837 12.5728 10.7989 18.7153 11.0075 19.9676H12.3091C12.1078 18.654 11.0103 11.9527 9.14097 9.05452C7.28739 6.18051 4.12024 6.44322 4.12024 6.44322C4.12024 6.44322 7.49601 7.13944 8.79389 10.2734L8.79481 10.2724Z" fill="#ACD13F"/>
<path d="M10.8736 19.9667C10.7822 19.7086 10.592 19.173 10.1923 18.0479C9.42614 15.8896 8.19934 14.7338 8.19934 14.7338C9.42983 17.4565 9.72153 19.3326 9.78892 19.9667H10.8736Z" fill="#609607"/>
<path d="M10.833 19.9667H12.1863C11.9287 18.9233 10.8884 15.4811 7.84216 12.7092C7.84216 12.7092 9.71882 15.3799 10.1471 17.4315C10.4231 18.7543 10.6844 19.5628 10.833 19.9667Z" fill="#99CA00"/>
<path d="M8.45504 19.9667H9.94954C9.4686 19.2231 8.18273 16.7631 7.6261 11.0884C6.93377 4.038 4.07678 3.16726 4.07678 3.16726C4.07678 3.16726 6.58669 5.34319 6.58669 10.8276C6.58669 15.4839 8.02118 19.0087 8.45504 19.9676V19.9667Z" fill="#7EB500"/>
<path d="M7.17199 19.9667H8.62494C8.53448 18.4916 8.03324 12.7194 5.70057 10.8266C3.01712 8.65071 0.766602 10.8266 0.766602 10.8266C3.88298 10.0432 4.66208 10.7394 5.95996 13.4379C7.03352 15.6696 7.15999 18.9112 7.17199 19.9667Z" fill="#99CA00"/>
<path d="M6.34025 19.9667H7.73967C7.52274 19.1256 6.95411 17.0945 6.38641 16.4596C5.66362 15.6519 5.18176 13.7127 5.18176 13.7127C5.18176 13.7127 5.26207 16.0557 5.90455 17.4287C6.35502 18.3904 6.37071 19.4292 6.34025 19.9667Z" fill="#7DB500"/>
<path d="M15.6682 19.9667C16.0587 19.4004 16.787 18.2261 16.9744 17.0945C17.2338 15.5275 18.4458 15.0058 18.4458 15.0058C18.4458 15.0058 16.8009 15.1804 16.0218 17.0945C15.4809 18.4229 14.6501 19.458 14.1913 19.9667H15.6682Z" fill="#ACD13F"/>
<path d="M17.1257 13.9606C14.3869 15.483 13.869 18.8741 13.7721 19.9667H14.6897C14.6943 19.0746 14.9389 16.6461 17.2983 14.8313C20.2412 12.5681 22.2323 12.9162 22.2323 12.9162C22.2323 12.9162 20.4147 12.1328 17.1248 13.9606H17.1257Z" fill="#7EB500"/>
<path d="M12.9515 19.9667H14.0648C14.7147 15.8775 14.9547 12.7714 14.7027 7.69364C14.4433 2.47011 16.7796 0.0333252 16.7796 0.0333252C13.5774 2.90548 13.4906 7.86723 13.8368 10.8266C14.1359 13.3785 13.2119 18.5816 12.9515 19.9667Z" fill="#99CA00"/>
<path d="M13.1472 19.9667C13.1555 18.9093 13.1795 14.8647 13.0586 12.6545C12.9285 10.2938 12.5389 5.08141 12.5389 5.08141C12.5389 5.08141 12.225 11.8496 11.9334 14.395C11.7192 16.26 11.925 19.0996 11.997 19.9657H13.1472V19.9667Z" fill="#609607"/>
<path d="M11.2502 19.9667H11.7413C11.6416 18.4907 11.1441 11.0847 11.0665 8.73797C10.9798 6.12667 10.6336 1.68755 10.6336 1.68755C10.6336 1.68755 9.68188 8.99975 10.2007 13.6997C10.6087 17.3962 11.0711 19.3159 11.2493 19.9667H11.2502Z" fill="#7DB500"/>
<path d="M8.79481 10.2724C9.74837 12.5728 10.7989 18.7153 11.0075 19.9676H12.3091C12.1078 18.654 11.0103 11.9527 9.14097 9.05452C7.28739 6.18051 4.12024 6.44322 4.12024 6.44322C4.12024 6.44322 7.49601 7.13944 8.79389 10.2734L8.79481 10.2724Z" fill="#ACD13F"/>
<path d="M10.8736 19.9667C10.7822 19.7086 10.592 19.173 10.1923 18.0479C9.42614 15.8896 8.19934 14.7338 8.19934 14.7338C9.42983 17.4565 9.72153 19.3326 9.78892 19.9667H10.8736Z" fill="#609607"/>
<path d="M10.833 19.9667H12.1863C11.9287 18.9233 10.8884 15.4811 7.84216 12.7092C7.84216 12.7092 9.71882 15.3799 10.1471 17.4315C10.4231 18.7543 10.6844 19.5628 10.833 19.9667Z" fill="#99CA00"/>
<path d="M8.45504 19.9667H9.94954C9.4686 19.2231 8.18273 16.7631 7.6261 11.0884C6.93377 4.038 4.07678 3.16726 4.07678 3.16726C4.07678 3.16726 6.58669 5.34319 6.58669 10.8276C6.58669 15.4839 8.02118 19.0087 8.45504 19.9676V19.9667Z" fill="#7EB500"/>
<path d="M7.17199 19.9667H8.62494C8.53448 18.4916 8.03324 12.7194 5.70057 10.8266C3.01712 8.65071 0.766602 10.8266 0.766602 10.8266C3.88298 10.0432 4.66208 10.7394 5.95996 13.4379C7.03352 15.6696 7.15999 18.9112 7.17199 19.9667Z" fill="#99CA00"/>
<path d="M6.34025 19.9667H7.73967C7.52274 19.1256 6.95411 17.0945 6.38641 16.4596C5.66362 15.6519 5.18176 13.7127 5.18176 13.7127C5.18176 13.7127 5.26207 16.0557 5.90455 17.4287C6.35502 18.3904 6.37071 19.4292 6.34025 19.9667Z" fill="#7DB500"/>
</g>
<defs>
<clipPath id="clip0_2_143">
<rect width="21.4667" height="19.9333" fill="white" transform="translate(0.766602 0.0333252)"/>
</clipPath>
</defs>
</svg>
