<svg width="32" height="46" viewBox="0 0 32 46" fill="none" xmlns="http://www.w3.org/2000/svg">
<g clip-path="url(#clip0_11_245)">
<path d="M25.4388 4.49851L25.0793 5.37077L30.9281 7.83476L31.2876 6.96251L25.4388 4.49851Z" fill="url(#paint0_linear_11_245)"/>
<path d="M27.9255 7.21246L31.7217 6.53664L31.9999 6.71442L31.977 6.8508L27.6016 7.65571C27.7003 7.40729 27.8075 7.25265 27.9243 7.21246H27.9255Z" fill="#338660"/>
<path d="M28.0376 7.41704L32 6.71442L31.3701 11.4282C31.3701 11.4282 27.3788 12.7615 27.0007 19.0218C26.6225 25.282 26.6189 7.89682 28.0376 7.41704Z" fill="url(#paint1_linear_11_245)"/>
<path d="M31.1472 8.15984C30.8847 8.11113 30.7209 7.79452 30.7823 7.45357C30.8437 7.11139 31.1075 6.87394 31.3713 6.92265C31.635 6.97257 31.7976 7.28796 31.735 7.63013C31.6735 7.97231 31.4098 8.20854 31.1472 8.15984Z" fill="#99C3AF"/>
<path d="M31.1497 8.14766C30.8919 8.10017 30.7318 7.79087 30.792 7.45478C30.8522 7.12113 31.1111 6.88733 31.3689 6.93604C31.6266 6.98231 31.7856 7.29404 31.7254 7.6277C31.6651 7.96135 31.4062 8.19515 31.1497 8.14644V8.14766Z" fill="url(#paint2_linear_11_245)"/>
<path d="M31.2184 8.04781C31.0076 8.00884 30.8751 7.75434 30.9257 7.48036C30.9751 7.20637 31.1858 7.01519 31.3978 7.05416C31.6098 7.09313 31.7398 7.34763 31.6905 7.62039C31.6411 7.89559 31.4303 8.08556 31.2184 8.04659V8.04781Z" fill="#99C3AF"/>
<path d="M31.2219 8.02223C31.0207 7.98448 30.8967 7.7446 30.9436 7.48401C30.9906 7.22342 31.1917 7.0432 31.3917 7.07973C31.5916 7.11748 31.7169 7.35737 31.6687 7.61796C31.6217 7.87854 31.4206 8.05876 31.2207 8.02223H31.2219Z" fill="url(#paint3_linear_11_245)"/>
<path d="M31.2002 7.97961C31.0159 7.9443 30.9015 7.72268 30.9448 7.48401C30.9882 7.24412 31.1725 7.07851 31.3567 7.11261C31.5398 7.1467 31.6554 7.36833 31.6109 7.60821C31.5675 7.84688 31.3832 8.01371 31.199 7.97961H31.2002Z" fill="url(#paint4_radial_11_245)"/>
<path d="M25.6868 32.341L25.0039 37.7927C25.0039 37.7927 24.8016 39.9395 23.5213 40.4497C21.8388 41.1304 19.6119 42.0851 19.6119 42.0851C19.6119 42.0851 20.025 33.3639 25.6856 32.341H25.6868Z" fill="#002F1C"/>
<path d="M1.12488 4.28754L3.78653 37.1266C3.78653 37.1266 3.78653 39.0652 5.27753 40.5727C6.76854 42.0802 11.3511 45.1939 12.093 45.6335C12.8337 46.0718 14.0104 46.1717 16.1397 45.6335C18.269 45.0952 20.2924 44.126 20.2924 44.126C20.2924 44.126 21.0379 43.8033 21.0379 41.7575C21.0379 39.7118 20.3983 34.3283 26.1492 33.1435L27.7715 6.24317L13.0361 8.83323L1.12488 4.28754Z" fill="url(#paint5_linear_11_245)"/>
<path d="M1.12488 4.28754L1.8487 13.2255C1.8487 13.2255 6.14227 15.7681 6.56139 41.9146C7.0347 42.2714 7.51765 42.6732 7.51765 42.6732L7.87414 42.7049C7.77539 32.9486 8.386 20.4538 14.1043 16.5157C19.0278 13.4215 25.311 12.2952 27.427 11.9895L27.798 11.4172L28.0738 6.24439L13.3612 8.95622L1.12488 4.28754Z" fill="url(#paint6_linear_11_245)"/>
<path d="M0.76355 3.81142L1.48737 12.7481C1.48737 12.7481 5.7436 15.7936 6.19163 41.6479L7.51643 42.672C7.39599 32.8549 7.93675 20.0361 13.7406 16.0372C19.754 12.2574 27.7955 11.4148 27.7955 11.4148L28.1328 5.81698L12.9975 8.47766L0.76355 3.81142Z" fill="url(#paint7_linear_11_245)"/>
<path d="M0.7323 3.42906C3.28556 3.22327 11.1139 2.62172 14.5476 2.28563C15.6893 2.1736 16.766 2.20526 17.7512 2.4963C18.3197 2.66434 24.0464 4.06957 28.0822 5.22761C28.3315 5.29945 28.0377 7.41826 28.0377 7.41826C27.9425 7.46209 27.8378 7.49863 27.7197 7.52298C22.5891 8.34006 14.898 9.5602 14.2104 9.64666C13.1722 9.77573 12.2484 9.65883 11.2825 9.27526C10.6262 9.01467 4.64649 6.81062 0.88405 5.3165L0.7323 3.43028V3.42906Z" fill="url(#paint8_linear_11_245)"/>
<path d="M0.0397199 2.72523C0.745478 2.65582 10.5731 1.90571 14.5656 1.51483C15.7073 1.4028 16.784 1.43446 17.7692 1.72549C18.3738 1.90328 24.7931 3.47655 28.8289 4.66868C28.8662 5.57953 28.7446 6.53786 27.7377 6.75217C22.6071 7.56925 14.916 8.78939 14.2296 8.87585C13.1914 9.00493 12.2676 8.88803 11.3017 8.50445C10.6405 8.24143 4.57536 6.00694 0.818945 4.5116C-0.0530162 4.0647 0.030085 3.30364 0.0397199 2.72523Z" fill="url(#paint9_linear_11_245)"/>
<path d="M1.97639 2.41958C2.58339 2.35991 11.144 1.34313 14.5765 1.00705C15.558 0.910846 16.483 0.937636 17.3296 1.18848C17.8487 1.34191 23.0444 2.83604 26.5129 3.86013C27.8642 4.30824 27.9317 5.17525 26.7731 5.38226C22.3627 6.08487 14.8776 7.25996 14.2874 7.33302C13.395 7.44383 12.6013 7.34398 11.7715 7.01398C11.203 6.7887 5.15952 4.69304 1.93062 3.40836C0.851508 2.95659 1.19716 2.4963 1.97759 2.41958H1.97639Z" fill="url(#paint10_linear_11_245)"/>
<path d="M27.7703 3.80289C23.7345 2.61198 18.4052 1.0387 17.8006 0.8597C16.8154 0.568668 15.7387 0.537008 14.597 0.649037C10.6033 1.03992 1.55007 2.10419 0.84431 2.1736C-0.0625778 2.2625 -0.407026 3.11976 0.849127 3.64459C4.60675 5.13993 10.6719 7.37442 11.3319 7.63744C12.2966 8.02102 13.2204 8.13792 14.2597 8.00884C14.9462 7.9236 22.6373 6.70225 27.7691 5.88638C29.1168 5.64528 29.342 4.32407 27.7691 3.80289H27.7703ZM26.7719 5.38347C22.3615 6.08609 14.8764 7.26117 14.2862 7.33423C13.3938 7.44504 12.6001 7.34519 11.7703 7.0152C11.2019 6.78992 5.15835 4.69425 1.92944 3.40957C0.850332 2.9578 1.19598 2.49751 1.97641 2.4208C2.58341 2.36113 11.144 1.34435 14.5765 1.00826C15.558 0.912061 16.483 0.93885 17.3297 1.1897C17.8487 1.34313 23.0444 2.83725 26.513 3.86134C27.8643 4.30946 27.9317 5.17646 26.7731 5.38347H26.7719Z" fill="url(#paint11_linear_11_245)"/>
<path d="M26.5118 3.86012C23.0432 2.83603 17.8488 1.34191 17.3285 1.18848C16.4806 0.938847 15.5569 0.91084 14.5753 1.00704C11.1441 1.34312 2.58223 2.35991 1.97523 2.41958C1.52118 2.46463 1.21768 2.63876 1.25261 2.86647C1.34414 2.71791 1.60308 2.61075 1.94512 2.57666C2.55212 2.51699 11.1128 1.50021 14.544 1.16412C15.5255 1.06792 16.4505 1.09593 17.2972 1.34556C17.8162 1.49899 23.0119 2.99311 26.4805 4.0172C27.2043 4.25709 27.556 4.61753 27.5523 4.9317C27.7017 4.58709 27.3596 4.14141 26.5118 3.86012Z" fill="#C2E0C2"/>
<path d="M27.7691 5.88638C22.6385 6.70346 14.9474 7.9236 14.2597 8.00884C13.2215 8.13792 12.2978 8.02102 11.3319 7.63744C10.6707 7.37442 4.60552 5.13993 0.849098 3.64459C0.255346 3.3974 0.0229032 3.07592 0.0337425 2.79463C-0.0891028 3.10515 0.109618 3.50699 0.817785 3.80289C4.57541 5.29823 10.6406 7.53272 11.3006 7.79574C12.2653 8.17932 13.189 8.29622 14.2284 8.16714C14.9161 8.0819 22.606 6.86055 27.7366 6.04347C28.4026 5.92413 28.7928 5.54177 28.8289 5.12167C28.7193 5.47723 28.3484 5.78166 27.7667 5.88638H27.7691Z" fill="#99C3AF"/>
<path d="M30.2621 40.1855C29.5804 42.8839 27.7715 43.6498 26.0071 43.8507C22.3446 43.8507 20.8644 41.2217 21.7135 37.75C22.9323 33.8156 25.9806 33.7389 27.863 34.4476C30.0345 35.3999 30.945 37.4882 30.2621 40.1867V40.1855Z" fill="url(#paint12_radial_11_245)"/>
<path d="M30.4416 40.1733C29.8008 42.7073 27.5065 44.3025 25.317 43.7363C23.1274 43.1701 21.8713 40.6579 22.512 38.1239C23.1527 35.5898 25.4471 33.9946 27.6366 34.5609C29.8261 35.1271 31.0811 37.6392 30.4416 40.1733Z" fill="url(#paint13_radial_11_245)"/>
<path d="M28.9867 39.7982C28.5808 41.4019 27.1283 42.4126 25.7421 42.0534C24.3559 41.6954 23.561 40.1039 23.9669 38.5002C24.3728 36.8964 25.8252 35.8857 27.2114 36.245C28.5977 36.603 29.3925 38.1945 28.9867 39.7982Z" fill="url(#paint14_radial_11_245)"/>
<path d="M28.6193 39.7032C28.2724 41.0732 27.0331 41.9353 25.8492 41.6297C24.6653 41.324 23.9861 39.9651 24.3329 38.5951C24.6798 37.2252 25.9203 36.3631 27.1042 36.6687C28.2881 36.9744 28.9661 38.3333 28.6205 39.7032H28.6193Z" fill="#939598"/>
<path d="M28.5242 39.6789C28.193 40.9879 27.0079 41.8123 25.877 41.5201C24.7461 41.2278 24.097 39.9297 24.4282 38.6207C24.7594 37.3129 25.9445 36.4885 27.0754 36.7808C28.2063 37.073 28.8554 38.3711 28.5242 39.6801V39.6789Z" fill="url(#paint15_radial_11_245)"/>
<path d="M27.7944 3.6044C23.7586 2.41349 18.4293 0.840216 17.8247 0.661213C16.8395 0.370182 15.7628 0.338522 14.6211 0.45055C10.6286 0.841434 1.57416 1.90692 0.868406 1.97512C-0.0396861 2.06401 -0.38293 2.92127 0.873223 3.44732C4.63084 4.94144 10.696 7.17715 11.3572 7.44017C12.3219 7.82375 13.2457 7.94065 14.285 7.81157C14.9715 7.72633 22.6626 6.50498 27.7944 5.6879C29.1421 5.44679 29.3673 4.12558 27.7944 3.6044ZM26.796 5.18499C22.3856 5.8876 14.9017 7.06268 14.3103 7.13575C13.4179 7.24656 12.6242 7.14671 11.7944 6.81671C11.226 6.59022 5.18244 4.49576 1.95354 3.21109C0.873223 2.75932 1.22008 2.29781 2.00051 2.22231C2.60631 2.16264 11.1681 1.14586 14.5994 0.809773C15.5809 0.713575 16.5059 0.741582 17.3538 0.991211C17.8728 1.14464 23.0673 2.63877 26.5371 3.66285C27.8883 4.11097 27.9546 4.97798 26.7972 5.18499H26.796Z" fill="url(#paint16_linear_11_245)"/>
<path d="M3.05911 1.4101C3.66491 1.35043 11.1693 1.14586 14.6005 0.809773C15.5821 0.713574 16.5071 0.741581 17.3549 0.991211C17.874 1.14464 22.8191 1.90936 26.2877 2.93345C27.4307 3.80411 28.3652 4.97067 26.7972 5.18377C22.3868 5.88638 14.9028 7.06147 14.3115 7.13453C13.4191 7.24534 12.6254 7.14549 11.7956 6.81549C11.2271 6.589 5.18361 4.49455 1.95471 3.20987C0.161407 2.49995 2.27989 1.4856 3.05911 1.40888V1.4101Z" fill="url(#paint17_linear_11_245)"/>
<path d="M27.7931 5.6879C22.6625 6.50498 14.9715 7.72512 14.2838 7.81157C13.2456 7.94065 12.3219 7.82375 11.356 7.44017C10.6948 7.17715 4.62958 4.94266 0.871958 3.44732C0.280614 3.19891 0.0469674 2.87744 0.0590111 2.59615C-0.0638342 2.90666 0.134886 3.3085 0.843053 3.6044C4.60067 5.09975 10.6659 7.33423 11.3271 7.59726C12.2918 7.98083 13.2155 8.09773 14.2549 7.96866C14.9414 7.88342 22.6324 6.66328 27.763 5.8462C28.4291 5.72686 28.8193 5.3445 28.8554 4.9244C28.7458 5.27997 28.3749 5.58439 27.7931 5.68911V5.6879Z" fill="#D6EBD6"/>
<path d="M2.93859 1.40523C3.4926 1.35043 11.4824 0.532135 14.6173 0.225273C15.5146 0.137598 16.3588 0.16317 17.1332 0.390881C17.6078 0.530917 23.3442 2.17604 26.5128 3.11123C26.9235 3.72617 26.8188 4.03303 25.7601 4.22178C21.7303 4.86351 14.8919 5.93752 14.3536 6.0045C13.5382 6.10557 12.8132 6.01424 12.0544 5.71225C11.5354 5.50646 6.01334 3.59223 3.06264 2.41836C2.16539 2.04818 2.31714 1.68165 2.93739 1.40401L2.93859 1.40523Z" fill="#99C3AF"/>
<path d="M3.27581 1.33704C3.82862 1.28346 11.651 0.354351 14.7859 0.0462722C15.6832 -0.0414025 16.5274 -0.0158307 17.3019 0.21188C17.7764 0.351916 22.5228 1.71696 25.6915 2.65216C26.9259 3.06253 26.9874 3.85403 25.9287 4.04278C21.9001 4.68451 15.0605 5.75852 14.5222 5.8255C13.7068 5.92657 12.9818 5.83524 12.223 5.53325C11.704 5.32746 6.18195 3.41322 3.23246 2.23936C2.24608 1.82656 2.56283 1.40523 3.27461 1.33582L3.27581 1.33704Z" fill="url(#paint18_linear_11_245)"/>
<path d="M6.09766 1.73401C6.51437 1.69382 12.3941 0.99486 14.7498 0.764714C15.4243 0.698958 16.059 0.717224 16.6407 0.88892C16.9972 0.99486 20.5645 2.02017 22.9467 2.724C23.8741 3.03208 23.9211 3.62754 23.125 3.77001C20.096 4.25222 14.9558 5.05956 14.5511 5.10948C13.9381 5.1862 13.3925 5.11679 12.8228 4.8903C12.4326 4.73565 8.28238 3.29632 6.06514 2.4147C5.32325 2.10419 5.56172 1.78759 6.09766 1.73522V1.73401Z" fill="url(#paint19_linear_11_245)"/>
<path d="M7.55018 1.93736C7.89583 1.90327 12.7759 1.32364 14.7318 1.13246C15.2918 1.07767 15.8182 1.0935 16.3011 1.23597C16.5974 1.32364 19.5589 2.17482 21.5353 2.75932C22.3049 3.01503 22.3434 3.5082 21.6834 3.62632C19.1699 4.02695 14.9028 4.69668 14.5668 4.73808C14.0586 4.80141 13.6057 4.74417 13.1324 4.55543C12.8084 4.42635 9.36395 3.233 7.52368 2.49994C6.90825 2.24301 7.10577 1.97998 7.55018 1.93615V1.93736Z" fill="#99C3AF"/>
<path d="M7.61879 1.94711C7.96083 1.91301 12.794 1.33947 14.7318 1.14951C15.2858 1.09471 15.8073 1.11054 16.2866 1.2518C16.5793 1.33825 19.5119 2.18212 21.4714 2.75931C22.2338 3.0126 22.2723 3.50211 21.6183 3.61901C19.1289 4.01599 14.9028 4.67963 14.5692 4.72104C14.0646 4.78436 13.6165 4.72712 13.1492 4.54082C12.8289 4.41296 9.41691 3.23057 7.5935 2.50481C6.98409 2.25031 7.1792 1.98973 7.62 1.94589L7.61879 1.94711Z" fill="url(#paint20_linear_11_245)"/>
<path d="M11.7136 4.61875C11.4282 4.51403 10.9091 4.32406 10.9091 4.32406C10.9091 4.32406 10.6995 4.24735 10.7971 3.97458C10.9127 3.65189 11.1717 2.95171 10.4948 2.70452L7.5417 1.77297C6.86605 1.52578 6.61916 2.08105 6.50354 2.40375C6.40598 2.67651 6.19642 2.5998 6.19642 2.5998C6.19642 2.5998 5.67734 2.40983 5.39191 2.30511C5.10647 2.20039 4.98604 2.6205 5.1703 2.68869C5.28833 2.73253 6.04949 3.01016 6.04949 3.01016C6.04949 3.01016 6.33493 3.11732 6.43368 2.84334C6.5493 2.52064 6.71791 1.93615 7.39477 2.18456L10.3491 3.1161C11.0259 3.3633 10.6899 4.03547 10.5755 4.35816C10.4767 4.63336 10.7646 4.73565 10.7646 4.73565C10.7646 4.73565 11.5245 5.0145 11.6438 5.05712C11.828 5.12531 12.0015 4.72347 11.716 4.61997L11.7136 4.61875Z" fill="#99C3AF"/>
<path d="M11.6811 4.70886C11.3957 4.60414 10.8766 4.41418 10.8766 4.41418C10.8766 4.41418 10.6671 4.33746 10.7634 4.06591C10.879 3.742 11.138 3.04304 10.4611 2.79463L7.50801 1.86309C6.83116 1.61589 6.58546 2.17116 6.46985 2.49386C6.37229 2.7654 6.16273 2.68991 6.16273 2.68991C6.16273 2.68991 5.64365 2.49994 5.35822 2.39522C5.07278 2.2905 4.95234 2.71061 5.13661 2.77758C5.25584 2.82142 6.0158 3.09906 6.0158 3.09906C6.0158 3.09906 6.30123 3.20621 6.39999 2.93101C6.51561 2.60832 6.68543 2.02382 7.36108 2.27223L10.3154 3.20378C10.991 3.45097 10.6562 4.12314 10.5418 4.44584C10.443 4.72104 10.7297 4.82211 10.7297 4.82211C10.7297 4.82211 11.4908 5.10096 11.6089 5.14358C11.7931 5.21055 11.9666 4.81115 11.6811 4.70642V4.70886Z" fill="#004E2A"/>
<path d="M11.6968 4.6638C11.4114 4.55908 10.8923 4.36912 10.8923 4.36912C10.8923 4.36912 10.6828 4.2924 10.7803 4.01964C10.8959 3.69694 11.1549 2.99676 10.478 2.74957L7.52492 1.81803C6.84806 1.57083 6.60358 2.12611 6.48796 2.4488C6.39041 2.72034 6.18085 2.64363 6.18085 2.64363C6.18085 2.64363 5.66176 2.45367 5.37633 2.34895C5.09089 2.24422 4.96925 2.66433 5.15473 2.7313C5.27396 2.77514 6.03391 3.05278 6.03391 3.05278C6.03391 3.05278 6.31935 3.15994 6.4169 2.88474C6.53252 2.56204 6.70234 1.97876 7.37799 2.22596L10.3311 3.1575C11.0067 3.40469 10.6731 4.07687 10.5563 4.39956C10.4575 4.67476 10.7454 4.77705 10.7454 4.77705C10.7454 4.77705 11.5053 5.05468 11.6246 5.09852C11.8088 5.16549 11.9823 4.76487 11.6968 4.66137V4.6638Z" fill="url(#paint21_linear_11_245)"/>
<path d="M5.91589 2.75932C5.88819 2.83725 5.73162 2.85065 5.56662 2.78976C5.40162 2.72888 5.28962 2.61806 5.31732 2.54013C5.34502 2.46342 5.50159 2.45002 5.66658 2.50969C5.83158 2.57057 5.94238 2.68138 5.91468 2.7581L5.91589 2.75932Z" fill="#CCE1D7"/>
<path d="M5.90992 2.75689C5.88222 2.83238 5.72926 2.84578 5.56788 2.78733C5.40649 2.72888 5.2969 2.61929 5.3246 2.54379C5.35109 2.46829 5.50525 2.4549 5.66664 2.51456C5.82802 2.57423 5.93762 2.68261 5.90992 2.7581V2.75689Z" fill="url(#paint22_linear_11_245)"/>
<path d="M5.86296 2.72278C5.84128 2.78489 5.71602 2.79585 5.58354 2.74714C5.45106 2.69843 5.36194 2.60954 5.38362 2.54743C5.4053 2.48533 5.53055 2.47437 5.66424 2.52308C5.79672 2.57179 5.88584 2.66068 5.86416 2.72278H5.86296Z" fill="#99C3AF"/>
<path d="M5.85086 2.71914C5.82918 2.7788 5.70995 2.78854 5.58469 2.74227C5.45824 2.696 5.37393 2.61076 5.39561 2.55231C5.41608 2.49386 5.53532 2.4829 5.66057 2.52917C5.78703 2.57545 5.87133 2.66069 5.85086 2.71914Z" fill="url(#paint23_linear_11_245)"/>
<path d="M5.82914 2.72035C5.80987 2.77515 5.70027 2.78368 5.58465 2.74106C5.46903 2.69844 5.39075 2.6205 5.41002 2.56692C5.42929 2.51334 5.53889 2.5036 5.65451 2.54622C5.77013 2.58884 5.84841 2.66678 5.82914 2.72035Z" fill="url(#paint24_radial_11_245)"/>
<path d="M11.639 4.85255C11.6113 4.93048 11.4548 4.94388 11.2898 4.88299C11.1248 4.82211 11.0128 4.7113 11.0405 4.63336C11.0682 4.55665 11.2247 4.54325 11.3897 4.60292C11.5547 4.66259 11.6655 4.77462 11.639 4.85255Z" fill="#CCE1D7"/>
<path d="M11.6331 4.85012C11.6066 4.92562 11.4536 4.93901 11.291 4.88056C11.1296 4.82211 11.02 4.71252 11.0477 4.63702C11.0742 4.56152 11.2284 4.54813 11.3898 4.60779C11.5512 4.66746 11.6596 4.77584 11.6331 4.85133V4.85012Z" fill="url(#paint25_linear_11_245)"/>
<path d="M11.5861 4.81724C11.5632 4.87934 11.4379 4.8903 11.3055 4.84159C11.173 4.79288 11.0839 4.70399 11.1055 4.64189C11.1284 4.57978 11.2537 4.56882 11.3862 4.61753C11.5186 4.66624 11.609 4.75513 11.5861 4.81724Z" fill="#99C3AF"/>
<path d="M11.5727 4.81237C11.5511 4.87082 11.433 4.88178 11.3066 4.8355C11.1813 4.78923 11.0958 4.70399 11.1175 4.64554C11.1392 4.58709 11.2572 4.57613 11.3837 4.6224C11.5089 4.66868 11.5944 4.75392 11.5727 4.81237Z" fill="url(#paint26_linear_11_245)"/>
<path d="M11.5523 4.8148C11.533 4.86838 11.4234 4.87812 11.3078 4.8355C11.1922 4.7941 11.1139 4.71495 11.1332 4.66137C11.1524 4.60779 11.262 4.59805 11.3777 4.64067C11.4933 4.68329 11.5716 4.76122 11.5523 4.8148Z" fill="url(#paint27_radial_11_245)"/>
</g>
<defs>
<linearGradient id="paint0_linear_11_245" x1="28.366" y1="5.73168" x2="27.9997" y2="6.60107" gradientUnits="userSpaceOnUse">
<stop stop-color="#006838"/>
<stop offset="0.07" stop-color="#17814A"/>
<stop offset="0.14" stop-color="#339E60"/>
<stop offset="0.22" stop-color="#339360"/>
<stop offset="0.34" stop-color="#338660"/>
<stop offset="0.76" stop-color="#0F5F3A"/>
<stop offset="1" stop-color="#004E2A"/>
</linearGradient>
<linearGradient id="paint1_linear_11_245" x1="26.7863" y1="13.5482" x2="32" y2="13.5482" gradientUnits="userSpaceOnUse">
<stop stop-color="#00492A"/>
<stop offset="1" stop-color="#006838"/>
</linearGradient>
<linearGradient id="paint2_linear_11_245" x1="31.8091" y1="7.24183" x2="30.812" y2="8.52607" gradientUnits="userSpaceOnUse">
<stop stop-color="#66A488"/>
<stop offset="1" stop-color="#00341C"/>
</linearGradient>
<linearGradient id="paint3_linear_11_245" x1="30.61" y1="7.8653" x2="31.4492" y2="6.67235" gradientUnits="userSpaceOnUse">
<stop stop-color="#66A488"/>
<stop offset="1" stop-color="#00341C"/>
</linearGradient>
<radialGradient id="paint4_radial_11_245" cx="0" cy="0" r="1" gradientUnits="userSpaceOnUse" gradientTransform="translate(31.1833 7.27943) scale(0.773203 0.781766)">
<stop offset="0.02" stop-color="#99C3AF"/>
<stop offset="0.25" stop-color="#689E85"/>
<stop offset="0.64" stop-color="#1D6443"/>
<stop offset="0.81" stop-color="#004E2A"/>
</radialGradient>
<linearGradient id="paint5_linear_11_245" x1="1.12488" y1="25.1432" x2="27.7715" y2="25.1432" gradientUnits="userSpaceOnUse">
<stop stop-color="#007638"/>
<stop offset="0.18" stop-color="#197E4B"/>
<stop offset="0.34" stop-color="#338860"/>
<stop offset="0.42" stop-color="#338A60"/>
<stop offset="0.46" stop-color="#339160"/>
<stop offset="0.49" stop-color="#258355"/>
<stop offset="0.55" stop-color="#147248"/>
<stop offset="0.62" stop-color="#08663E"/>
<stop offset="0.72" stop-color="#015F39"/>
<stop offset="1" stop-color="#005E38"/>
</linearGradient>
<linearGradient id="paint6_linear_11_245" x1="1.12488" y1="23.4968" x2="28.0714" y2="23.4968" gradientUnits="userSpaceOnUse">
<stop stop-color="#007138"/>
<stop offset="0.18" stop-color="#19734B"/>
<stop offset="0.34" stop-color="#337760"/>
<stop offset="0.42" stop-color="#337960"/>
<stop offset="0.47" stop-color="#338060"/>
<stop offset="0.5" stop-color="#236F53"/>
<stop offset="0.56" stop-color="#135E47"/>
<stop offset="0.63" stop-color="#08523E"/>
<stop offset="0.73" stop-color="#014B39"/>
<stop offset="1" stop-color="#004A38"/>
</linearGradient>
<linearGradient id="paint7_linear_11_245" x1="0.76355" y1="23.2423" x2="28.134" y2="23.2423" gradientUnits="userSpaceOnUse">
<stop stop-color="#008338"/>
<stop offset="0.18" stop-color="#198C4B"/>
<stop offset="0.34" stop-color="#339760"/>
<stop offset="0.43" stop-color="#339960"/>
<stop offset="0.46" stop-color="#339E60"/>
<stop offset="0.5" stop-color="#238D53"/>
<stop offset="0.56" stop-color="#137C47"/>
<stop offset="0.63" stop-color="#08703E"/>
<stop offset="0.72" stop-color="#016939"/>
<stop offset="1" stop-color="#006838"/>
</linearGradient>
<linearGradient id="paint8_linear_11_245" x1="0.7323" y1="5.96067" x2="28.1822" y2="5.96067" gradientUnits="userSpaceOnUse">
<stop stop-color="#005E38"/>
<stop offset="0.24" stop-color="#015F39"/>
<stop offset="0.33" stop-color="#08633E"/>
<stop offset="0.39" stop-color="#146A48"/>
<stop offset="0.44" stop-color="#257555"/>
<stop offset="0.47" stop-color="#337E60"/>
<stop offset="0.51" stop-color="#226C4E"/>
<stop offset="0.56" stop-color="#125B3E"/>
<stop offset="0.63" stop-color="#084F32"/>
<stop offset="0.73" stop-color="#01482B"/>
<stop offset="1" stop-color="#00472A"/>
</linearGradient>
<linearGradient id="paint9_linear_11_245" x1="0.0336981" y1="5.18986" x2="28.8349" y2="5.18986" gradientUnits="userSpaceOnUse">
<stop stop-color="#338660"/>
<stop offset="0.24" stop-color="#348761"/>
<stop offset="0.33" stop-color="#3B8B66"/>
<stop offset="0.39" stop-color="#479270"/>
<stop offset="0.44" stop-color="#589B7D"/>
<stop offset="0.47" stop-color="#66A488"/>
<stop offset="0.48" stop-color="#559A7B"/>
<stop offset="0.52" stop-color="#3B8A66"/>
<stop offset="0.56" stop-color="#257D55"/>
<stop offset="0.61" stop-color="#147448"/>
<stop offset="0.68" stop-color="#086D3E"/>
<stop offset="0.76" stop-color="#016939"/>
<stop offset="1" stop-color="#006838"/>
</linearGradient>
<linearGradient id="paint10_linear_11_245" x1="1.24774" y1="4.16699" x2="27.5872" y2="4.16699" gradientUnits="userSpaceOnUse">
<stop stop-color="#00582A"/>
<stop offset="0.24" stop-color="#00592A"/>
<stop offset="0.33" stop-color="#00602A"/>
<stop offset="0.38" stop-color="#006A2A"/>
<stop offset="0.46" stop-color="#016A2B"/>
<stop offset="0.49" stop-color="#086E32"/>
<stop offset="0.52" stop-color="#13743E"/>
<stop offset="0.54" stop-color="#237D4F"/>
<stop offset="0.55" stop-color="#338660"/>
<stop offset="0.58" stop-color="#258655"/>
<stop offset="0.62" stop-color="#148748"/>
<stop offset="0.68" stop-color="#08883E"/>
<stop offset="0.77" stop-color="#018839"/>
<stop offset="1" stop-color="#008938"/>
</linearGradient>
<linearGradient id="paint11_linear_11_245" x1="-0.0348774" y1="2.74958" x2="29.1756" y2="5.80567" gradientUnits="userSpaceOnUse">
<stop stop-color="#66A488"/>
<stop offset="0.13" stop-color="#6DA88D"/>
<stop offset="0.31" stop-color="#81B49C"/>
<stop offset="0.48" stop-color="#99C3AF"/>
<stop offset="0.55" stop-color="#83B69E"/>
<stop offset="0.68" stop-color="#60A183"/>
<stop offset="0.8" stop-color="#47926F"/>
<stop offset="0.91" stop-color="#388964"/>
<stop offset="1" stop-color="#338660"/>
</linearGradient>
<radialGradient id="paint12_radial_11_245" cx="0" cy="0" r="1" gradientUnits="userSpaceOnUse" gradientTransform="translate(25.8553 38.9622) rotate(14.4922) scale(4.32617 5.02082)">
<stop offset="0.57"/>
<stop offset="0.59" stop-color="#060606"/>
<stop offset="0.67" stop-color="#141414"/>
<stop offset="0.73" stop-color="#1A1A1A"/>
<stop offset="0.93" stop-color="#7D7F81"/>
<stop offset="1" stop-color="#808080"/>
</radialGradient>
<radialGradient id="paint13_radial_11_245" cx="0" cy="0" r="1" gradientUnits="userSpaceOnUse" gradientTransform="translate(26.3495 39.1164) rotate(14.4922) scale(4.07767 4.73242)">
<stop offset="0.57"/>
<stop offset="0.58" stop-color="#171717"/>
<stop offset="0.59" stop-color="#393939"/>
<stop offset="0.6" stop-color="#525252"/>
<stop offset="0.62" stop-color="#606060"/>
<stop offset="0.63" stop-color="#626262"/>
<stop offset="0.65" stop-color="#3B3B3B"/>
<stop offset="0.67" stop-color="#222222"/>
<stop offset="0.68" stop-color="#1A1A1A"/>
<stop offset="0.73"/>
<stop offset="0.9"/>
<stop offset="1" stop-color="#262626"/>
</radialGradient>
<radialGradient id="paint14_radial_11_245" cx="0" cy="0" r="1" gradientUnits="userSpaceOnUse" gradientTransform="translate(26.3485 39.1161) rotate(14.4922) scale(2.58144 2.99594)">
<stop offset="0.9" stop-color="#A6A6A6"/>
<stop offset="1" stop-color="#CCCCCC"/>
</radialGradient>
<radialGradient id="paint15_radial_11_245" cx="0" cy="0" r="1" gradientUnits="userSpaceOnUse" gradientTransform="translate(26.3495 39.1164) rotate(14.4922) scale(2.10646 2.4447)">
<stop stop-color="#333333"/>
<stop offset="0.27" stop-color="#353535"/>
<stop offset="0.43" stop-color="#3D3D3D"/>
<stop offset="0.56" stop-color="#4C4C4C"/>
<stop offset="0.68" stop-color="#606060"/>
<stop offset="0.78" stop-color="#7A7A7A"/>
<stop offset="0.88" stop-color="#9B9B9B"/>
<stop offset="0.98" stop-color="#C0C0C0"/>
<stop offset="1" stop-color="#CCCCCC"/>
</radialGradient>
<linearGradient id="paint16_linear_11_245" x1="-0.00957697" y1="2.55109" x2="29.1997" y2="5.60719" gradientUnits="userSpaceOnUse">
<stop stop-color="#338660"/>
<stop offset="0.13" stop-color="#3A8A65"/>
<stop offset="0.31" stop-color="#4E9575"/>
<stop offset="0.48" stop-color="#66A488"/>
<stop offset="0.55" stop-color="#509B77"/>
<stop offset="0.68" stop-color="#2D8C5B"/>
<stop offset="0.8" stop-color="#148248"/>
<stop offset="0.91" stop-color="#057C3C"/>
<stop offset="1" stop-color="#007A38"/>
</linearGradient>
<linearGradient id="paint17_linear_11_245" x1="1.25256" y1="3.9685" x2="27.6258" y2="3.9685" gradientUnits="userSpaceOnUse">
<stop stop-color="#008338"/>
<stop offset="0.18" stop-color="#198C4B"/>
<stop offset="0.34" stop-color="#339760"/>
<stop offset="0.43" stop-color="#339960"/>
<stop offset="0.46" stop-color="#339E60"/>
<stop offset="0.5" stop-color="#238D53"/>
<stop offset="0.56" stop-color="#137C47"/>
<stop offset="0.63" stop-color="#08703E"/>
<stop offset="0.72" stop-color="#016939"/>
<stop offset="1" stop-color="#006838"/>
</linearGradient>
<linearGradient id="paint18_linear_11_245" x1="3.72625" y1="-1.5891" x2="26.338" y2="6.73785" gradientUnits="userSpaceOnUse">
<stop stop-color="#338660"/>
<stop offset="0.26" stop-color="#2B815A"/>
<stop offset="0.65" stop-color="#17764A"/>
<stop offset="1" stop-color="#006838"/>
</linearGradient>
<linearGradient id="paint19_linear_11_245" x1="6.43729" y1="-0.466384" x2="23.4338" y2="5.79316" gradientUnits="userSpaceOnUse">
<stop stop-color="#004E2A"/>
<stop offset="0.39" stop-color="#1A6A45"/>
<stop offset="0.75" stop-color="#2C7E59"/>
<stop offset="1" stop-color="#338660"/>
</linearGradient>
<linearGradient id="paint20_linear_11_245" x1="7.897" y1="0.138815" x2="21.8698" y2="5.28404" gradientUnits="userSpaceOnUse">
<stop stop-color="#338660"/>
<stop offset="0.26" stop-color="#2B815A"/>
<stop offset="0.65" stop-color="#17764A"/>
<stop offset="1" stop-color="#006838"/>
</linearGradient>
<linearGradient id="paint21_linear_11_245" x1="8.37083" y1="3.96795" x2="9.02301" y2="2.1851" gradientUnits="userSpaceOnUse">
<stop stop-color="#66A488"/>
<stop offset="0.07" stop-color="#609F82"/>
<stop offset="0.16" stop-color="#509274"/>
<stop offset="0.26" stop-color="#377C5C"/>
<stop offset="0.36" stop-color="#135E3B"/>
<stop offset="0.41" stop-color="#004E2A"/>
<stop offset="1" stop-color="#338660"/>
</linearGradient>
<linearGradient id="paint22_linear_11_245" x1="5.487" y1="2.41706" x2="5.83726" y2="3.03314" gradientUnits="userSpaceOnUse">
<stop stop-color="#66A488"/>
<stop offset="1" stop-color="#00341C"/>
</linearGradient>
<linearGradient id="paint23_linear_11_245" x1="5.77157" y1="2.8708" x2="5.41682" y2="2.32573" gradientUnits="userSpaceOnUse">
<stop stop-color="#66A488"/>
<stop offset="1" stop-color="#00341C"/>
</linearGradient>
<radialGradient id="paint24_radial_11_245" cx="0" cy="0" r="1" gradientUnits="userSpaceOnUse" gradientTransform="translate(5.53452 2.58919) rotate(20.0927) scale(0.587282 0.272439)">
<stop offset="0.02" stop-color="#CCE1D7"/>
<stop offset="0.38" stop-color="#698D7C"/>
<stop offset="0.68" stop-color="#1D4D37"/>
<stop offset="0.81" stop-color="#00341C"/>
</radialGradient>
<linearGradient id="paint25_linear_11_245" x1="11.2096" y1="4.51042" x2="11.561" y2="5.1269" gradientUnits="userSpaceOnUse">
<stop stop-color="#66A488"/>
<stop offset="1" stop-color="#00341C"/>
</linearGradient>
<linearGradient id="paint26_linear_11_245" x1="11.4942" y1="4.96417" x2="11.1398" y2="4.41794" gradientUnits="userSpaceOnUse">
<stop stop-color="#66A488"/>
<stop offset="1" stop-color="#00341C"/>
</linearGradient>
<radialGradient id="paint27_radial_11_245" cx="0" cy="0" r="1" gradientUnits="userSpaceOnUse" gradientTransform="translate(11.2572 4.68133) rotate(20.0928) scale(0.587281 0.272439)">
<stop offset="0.02" stop-color="#CCE1D7"/>
<stop offset="0.38" stop-color="#698D7C"/>
<stop offset="0.68" stop-color="#1D4D37"/>
<stop offset="0.81" stop-color="#00341C"/>
</radialGradient>
<clipPath id="clip0_11_245">
<rect width="32" height="46" fill="white"/>
</clipPath>
</defs>
</svg>
