<svg width="30" height="47" viewBox="0 0 30 47" fill="none" xmlns="http://www.w3.org/2000/svg">
<g clip-path="url(#clip0_2_204)">
<path d="M8.58417 39.9807C8.77891 42.6557 8.79838 45.593 8.79495 46.9251L10.5041 46.9014C10.4193 44.1801 9.97942 33.4091 8.22562 28.8986C6.21064 23.7138 9.39635 18.8376 9.39635 18.8376C9.39635 18.8376 6.62303 22.0979 7.01022 27.0204C7.3974 31.9428 8.3207 36.3844 8.58302 39.9819L8.58417 39.9807Z" fill="#ACD13F"/>
<path d="M14.5948 46.8444L16.3543 46.8206C16.5261 44.2965 16.9706 35.862 15.6154 31.6389C14.0105 26.6381 16.3566 21.8676 16.3566 21.8676C16.3566 21.8676 13.4343 26.8351 14.2591 31.0892C14.9625 34.7175 14.6898 44.1504 14.5936 46.8444H14.5948Z" fill="#5F9500"/>
<path d="M10.1971 46.9049L11.9566 46.8812C11.9704 42.9406 11.9864 28.6909 11.5591 23.7755C11.062 18.0493 5.91052 13.5839 5.91052 13.5839C8.66551 16.6269 10.4308 21.9079 10.5625 25.5006C10.6748 28.5876 10.3048 42.9335 10.1982 46.9049H10.1971Z" fill="#5F9500"/>
<path d="M11.4939 36.3429C11.3267 40.9602 12.0667 45.124 12.4355 46.8741L13.9728 46.8527C14.0095 45.8661 14.0415 44.0448 13.9453 41.3544C13.7907 37.0719 12.6211 31.0892 9.54879 24.1816C6.47649 17.2728 3.37097 15.5073 3.37097 15.5073C7.19703 19.1677 11.715 30.2462 11.4939 36.3429Z" fill="#5F9500"/>
<path d="M9.40209 16.0724C9.13404 20.3146 9.11685 25.2454 10.6175 29.2038C11.928 32.6599 11.1284 44.0602 10.905 46.8954L12.5741 46.8729C12.692 43.6245 13.0506 30.4765 11.314 26.9456C9.32878 22.9076 11.1066 17.0009 10.2486 12.9475C9.39063 8.89415 8.05151 4.93338 8.05151 4.93338C8.05151 4.93338 9.67014 11.8315 9.40209 16.0736V16.0724Z" fill="#7BB600"/>
<path d="M10.3987 46.9026C10.102 45.0077 8.59681 35.9428 9.7137 32.6671C10.9463 29.0518 12.8043 24.3573 12.7562 20.5639C12.7138 17.2348 10.0711 10.5825 10.0711 10.5825C10.0711 10.5825 13.0094 18.9065 11.3335 23.5986C9.67589 28.2409 8.22909 30.8387 7.73995 35.4168C7.32871 39.2588 8.55213 45.1311 8.9565 46.9216L10.3999 46.9014L10.3987 46.9026Z" fill="#5F9500"/>
<path d="M12.7001 29.5944C13.3324 33.814 14.2546 44.0317 14.5032 46.8456L16.6762 46.8159C16.2054 43.5521 14.297 30.2593 13.9121 26.4505C13.4711 22.0967 15.5307 17.5197 15.8767 14.3877C16.2215 11.2556 15.6831 6.80928 13.2981 0.966675C13.2981 0.966675 15.9282 10.8805 14.5341 14.7854C13.14 18.6904 11.9635 24.6767 12.7013 29.5944H12.7001Z" fill="#98CB00"/>
<path d="M16.7667 30.1073C14.3737 34.2901 15.3818 44.3879 15.6682 46.8301L17.8916 46.7993C17.7714 45.7046 17.4655 42.9952 16.9798 39.2019C16.3383 34.188 17.9546 32.5555 18.7577 27.6164C19.5607 22.6773 14.3004 11.8481 14.3004 11.8481C14.3004 11.8481 19.4988 25.332 16.7667 30.1085V30.1073Z" fill="#5F9500"/>
<path d="M18.556 46.7898C18.0314 42.8658 15.6521 24.1685 17.131 18.7296C18.7863 12.6424 21.2583 10.1444 21.2583 10.1444C21.2583 10.1444 16.4815 13.1482 15.6189 21.0246C14.8583 27.9761 16.0782 43.3087 16.3761 46.8195L18.5549 46.7898H18.556Z" fill="#7BB600"/>
<path d="M19.2387 28.8416C18.6281 33.4637 18.1676 44.0958 18.0565 46.7981L19.8756 46.7731C19.9375 44.2929 20.1941 34.8992 20.7462 26.2629C21.3877 16.209 16.3417 5.66474 16.3417 5.66474C16.3417 5.66474 17.8584 11.3304 18.4701 13.9745C19.0818 16.6186 19.9409 23.5262 19.2376 28.8428L19.2387 28.8416Z" fill="#98CB00"/>
<path d="M18.7027 46.7886C18.4312 42.9204 17.6981 30.0883 19.4725 24.5639C21.2607 18.9979 25.986 12.4156 25.986 12.4156C25.986 12.4156 18.3121 19.8599 17.0142 28.8761C15.9706 36.1209 16.4013 43.9617 16.6167 46.8171L18.7027 46.7886Z" fill="#7BB600"/>
<path d="M18.9546 46.785C18.4414 44.6218 16.793 36.3453 20.1311 30.8197C23.4783 25.2774 23.1621 19.3113 22.4485 16.1935C21.7348 13.0757 23.799 8.87753 23.799 8.87753C23.799 8.87753 20.7634 12.5201 21.5928 17.0579C22.421 21.5957 20.4346 26.4968 18.013 30.8482C15.0724 36.1315 16.7014 44.9673 17.0863 46.81L18.9546 46.7838V46.785Z" fill="#5F9500"/>
<path d="M23.7155 24.996C19.8723 27.7102 18.4507 35.0191 19.6993 42.2983C20.0957 44.6075 20.3339 45.9729 20.4748 46.7636L22.0992 46.7411C21.6536 44.3748 19.319 30.8446 23.4521 26.9895C27.5301 23.1866 29.2667 26.9539 29.2667 26.9539C29.2667 26.9539 27.9368 22.0136 23.7155 24.9949V24.996Z" fill="#7DB500"/>
<path d="M20.5836 46.7625C20.4209 44.718 20.0074 37.4423 22.2217 36.1921C24.8037 34.7353 26.5495 35.754 26.5495 35.754C26.5495 35.754 21.2067 32.1316 19.8378 38.0253C18.7863 42.5547 18.5686 45.6144 18.5239 46.791L20.5836 46.7625Z" fill="#99CA00"/>
<path d="M19.6477 46.7755C19.327 44.68 18.6339 39.3158 19.3533 36.0057C20.2629 31.8229 25.5151 28.3394 25.5151 28.3394C25.5151 28.3394 21.5768 29.1515 18.7508 34.0229C16.5422 37.8294 17.4964 44.1932 18.0199 46.7969L19.6477 46.7743V46.7755Z" fill="#ACD13F"/>
<path d="M12.6428 6.11969C12.6465 6.11091 12.6489 6.10213 12.6526 6.09335C12.6526 6.09335 12.6489 6.10338 12.6428 6.11969Z" fill="#ACD13F"/>
<path d="M12.3048 16.6162C13.3977 19.2544 15.4138 26.3341 15.0885 30.9823C14.8044 35.0345 13.345 44.5066 12.9761 46.8658L14.8387 46.8396C15.0896 44.6265 15.8537 37.8959 16.2855 34.2818C16.8079 29.915 16.0438 22.9136 13.369 17.0745C10.7962 11.4587 12.5076 6.48872 12.6416 6.11591C11.4365 9.16604 11.2131 13.9828 12.3037 16.615L12.3048 16.6162Z" fill="#ACD13F"/>
<path d="M7.13627 46.9465L9.0493 46.9204C9.09398 45.0468 9.16156 39.862 8.63348 37.0351C7.98167 33.5421 5.60929 31.2685 3.91505 27.7909C2.22197 24.3122 2.83482 17.984 2.83482 17.984C2.83482 17.984 2.09939 21.5814 2.14178 24.9118C2.18416 28.2421 4.85438 33.4151 6.7067 35.7813C8.25431 37.7581 7.44327 44.712 7.13513 46.9477L7.13627 46.9465Z" fill="#7DB500"/>
<path d="M9.06538 46.9204C8.99551 46.4348 8.85232 45.625 8.56937 44.2739C7.86144 40.902 5.63453 35.6305 5.57497 30.9693C5.53487 27.8135 7.03551 21.7168 7.03551 21.7168C7.03551 21.7168 5.25651 25.4888 4.90254 30.3388C4.53826 35.3396 7.11455 44.7714 7.73085 46.9382L9.06653 46.9204H9.06538Z" fill="#5F9500"/>
<path d="M5.68718 46.9667L8.03894 46.9346C7.85451 45.6239 7.37568 42.8195 6.21298 38.3969C4.53249 31.9986 0.900024 31.367 0.900024 31.367C0.900024 31.367 3.92421 34.4385 4.81658 37.5397C5.51879 39.9795 5.65969 44.9542 5.68718 46.9667Z" fill="#ACD13F"/>
<path d="M12.1605 46.8776C11.472 43.5307 9.67012 33.7985 10.9691 29.1705C11.7939 26.2296 14.0323 23.9548 14.0323 23.9548C14.0323 23.9548 11.0104 24.514 9.6621 29.6193C8.52574 33.9232 9.82706 43.7646 10.3265 46.9026L12.1605 46.8776Z" fill="#ACD13F"/>
<path d="M8.79498 46.9239C8.66095 44.9329 8.19129 37.8341 8.15921 35.3195C8.12141 32.3821 9.83054 28.7348 10.7229 24.3157C11.6153 19.8967 9.0974 14.2512 9.0974 14.2512C9.0974 14.2512 11.44 22.1513 8.58306 27.9678C5.81776 33.5991 7.42264 46.1451 7.52803 46.9406L8.79613 46.9227L8.79498 46.9239Z" fill="#98CB00"/>
</g>
<defs>
<clipPath id="clip0_2_204">
<rect width="28.3667" height="46" fill="white" transform="translate(0.900024 0.966675)"/>
</clipPath>
</defs>
</svg>
