<svg width="30" height="59" viewBox="0 0 30 59" fill="none" xmlns="http://www.w3.org/2000/svg">
<g clip-path="url(#clip0_11_304)">
<path d="M29.9759 56.0257C29.7907 56.6557 28.9363 57.0759 28.8212 57.846C28.7254 58.4846 28.3908 58.8827 28.0418 59H25.8272C25.7742 58.8762 25.6543 58.4689 26.278 58.331C27.0172 58.1677 27.2961 57.2624 27.2496 56.4226C27.2303 56.0705 27.2394 55.6687 27.2565 55.321C27.2801 54.8403 27.3186 54.4617 27.3186 54.4617L28.8898 54.0886L29.0546 54.3027L29.2131 54.5088C29.2131 54.5088 30.1606 55.3956 29.9754 56.0257H29.9759Z" fill="#006C5C"/>
<path d="M17.4142 59H12.0477C12.1034 58.8053 12.2843 58.4717 12.878 58.3738C13.7061 58.2375 15.1413 57.7519 15.4614 56.6822C15.4716 56.6476 15.4807 56.6124 15.4887 56.5767C15.743 55.433 17.5914 56.9272 17.5914 56.9272C17.5914 56.9272 17.5968 56.9731 17.6048 57.051C17.6476 57.4685 17.7563 58.808 17.4142 59Z" fill="#006C5C"/>
<path d="M13.098 28.413C13.098 28.413 13.3785 31.9514 13.7088 36.2047C14.1574 41.9825 14.6965 49.0792 14.75 50.4236C14.8421 52.7582 15.2125 56.4924 15.2125 56.4924C15.2125 56.4924 16.0899 57.3798 17.8462 57.0056C17.8462 57.0056 19.4115 51.6745 19.8585 46.0341C19.8654 45.9416 19.8724 45.8486 19.8794 45.7556C20.2953 40.0135 20.942 27.9225 20.942 27.9225L13.0986 28.4125L13.098 28.413Z" fill="#018061"/>
<path d="M13.098 28.413C13.098 28.413 13.3785 31.9514 13.7088 36.2047L19.8585 46.0346C19.8654 45.9421 19.8724 45.8491 19.8794 45.7561C20.2953 40.014 20.942 27.9231 20.942 27.9231L13.0986 28.413H13.098Z" fill="#006C5C"/>
<path d="M14.3801 28.8332C14.3801 28.8332 19.4399 41.6477 22.7674 47.6694C26.0944 53.6916 27.134 55.3719 27.134 55.3719C27.134 55.3719 29.0402 54.6018 29.2136 54.0767C29.2136 54.0767 27.9412 42.4508 25.7132 39.6171C24.4542 38.0158 22.9751 33.2098 22.9061 31.5296C22.837 29.8488 22.4553 26.523 22.4553 26.523L14.3801 28.8338V28.8332Z" fill="#018061"/>
<path d="M21.0378 9.08524C21.0378 9.08524 17.614 10.7801 15.6403 10.1511C15.6403 10.1511 16.1263 9.5222 16.9764 9.05442C16.9079 8.64774 16.8549 8.29515 16.8244 7.99609C16.7409 7.30605 16.7409 6.91452 16.7409 6.91452L18.0615 5.84862L19.3141 4.8287C19.2156 7.69704 21.0373 9.0847 21.0373 9.0847L21.0378 9.08524Z" fill="#FFB27D"/>
<path d="M22.8418 27.1789C22.8493 27.3936 22.4018 27.6391 22.2043 27.7311C20.7391 28.3903 19.373 28.8505 17.8244 29.0041C15.9947 29.1955 13.8315 28.7737 13.0874 28.7894C13.0114 28.7894 12.9434 28.7586 12.8823 28.705C12.8294 28.6666 12.7913 26.4045 12.8294 23.5594C12.8294 23.4443 12.8294 23.3291 12.8368 23.2144V23.176C12.8518 22.0642 12.8898 20.8982 12.9434 19.7328C13.0499 17.1711 13.2469 14.7019 13.5809 13.3369C13.9835 11.7265 14.8941 10.6606 15.7216 9.88615L16.4047 9.27236C17.0878 9.41026 17.8088 9.3724 18.5304 9.0117C19.32 8.62071 20.1835 8.18159 20.3205 8.2892C21.3531 9.06361 22.0378 10.8217 22.4098 13.0454C22.6224 14.326 22.7289 15.7602 22.7209 17.263C22.7209 17.8152 22.7059 18.3825 22.6754 18.9427C22.4934 21.9798 22.6754 24.6178 22.7814 26.1439C22.8119 26.5889 22.8343 26.934 22.8418 27.1795V27.1789Z" fill="#FFE94D"/>
<path opacity="0.5" d="M22.7813 26.1433C6.19462 26.1206 19.722 13.6511 19.722 13.6511L22.4092 13.0454C22.6218 14.326 22.7283 15.7602 22.7203 17.263C22.7203 17.8152 22.7053 18.3825 22.6748 18.9427C22.4928 21.9798 22.6748 24.6178 22.7808 26.1439L22.7813 26.1433Z" fill="#F9CF00"/>
<path d="M15.4026 17.9379L15.3496 19.211L15.2966 20.392L15.1295 24.4258L12.7763 28.5439C12.7763 28.5439 11.0151 30.4302 6.48317 30.4302C0.835088 30.4302 0 27.286 0 27.286L0.06852 22.1939L2.14072 19.1953L1.1081 16.1966L3.65886 11.5875L7.04472 9.77799L9.18543 10.3377L10.9846 9.91589L13.8159 11.2424L15.4026 17.9374V17.9379Z" fill="#018061"/>
<path d="M9.04358 9.91319L8.53449 8.26703C8.49541 8.14049 8.37604 8.05667 8.24489 8.06316C7.78773 8.08695 6.78723 8.1486 6.78723 8.23837C6.78723 8.35464 9.04358 9.91265 9.04358 9.91265V9.91319Z" fill="#008D6B"/>
<path d="M9.31982 9.98295L9.39316 8.85C9.4028 8.70237 9.54412 8.6007 9.68491 8.64018L10.1453 8.7678C10.4857 8.8619 10.5371 9.3286 10.2256 9.49624L9.31982 9.98349V9.98295Z" fill="#008D6B"/>
<path d="M8.62758 10.0089C8.66398 9.94185 8.70038 9.87534 8.73036 9.82126C8.77425 9.74176 8.85723 9.69201 8.94716 9.69039L9.59489 9.68227C9.67518 9.68119 9.7512 9.71905 9.79938 9.78394L9.90002 9.91968C9.94124 9.97484 9.95837 10.0446 9.94712 10.1133L9.93106 10.2122C9.91072 10.3399 9.79831 10.4318 9.67037 10.4259L8.83581 10.3858C8.64953 10.3766 8.53765 10.1739 8.62704 10.0089H8.62758Z" fill="#008D6B"/>
<path d="M3.66155 11.5913L5.01321 15.1815C5.09083 15.387 5.37508 15.3962 5.46501 15.1961L6.01532 13.9767C6.10793 13.7712 6.05065 13.5278 5.87614 13.3861L3.66101 11.5913H3.66155Z" fill="#008D6B"/>
<path d="M2.2526 19.3402C2.2526 19.3402 3.90993 21.379 3.58767 21.7045C3.26541 22.0301 0.277832 22.1956 0.277832 22.1956L2.2526 19.3397V19.3402Z" fill="#008D6B"/>
<path d="M15.1258 24.4285C15.1258 24.4285 8.96701 26.4954 9.30426 27.24C9.64204 27.9842 12.7774 28.545 12.7774 28.545L15.1252 24.4285H15.1258Z" fill="#008D6B"/>
<path d="M15.3496 19.211L15.2966 20.392L9.57299 20.9518C9.35298 20.9745 9.24645 20.6754 9.43649 20.5527L12.9738 18.2824C13.2094 18.137 13.5054 18.1288 13.7404 18.2673L15.3496 19.2104V19.211Z" fill="#008D6B"/>
<path d="M8.51411 10.6573L6.96759 11.0564C6.7085 11.1235 6.5902 11.4263 6.7342 11.654L6.91727 11.9439C7.02487 12.1137 7.26416 12.131 7.39424 11.9779L8.51465 10.6573H8.51411Z" fill="#008D6B"/>
<path d="M9.31982 10.6108L10.8658 10.3366C10.9664 10.3188 11.0698 10.3426 11.1527 10.4031L11.7694 10.8531C11.885 10.9374 11.8053 11.1213 11.6656 11.0926L9.31982 10.6113V10.6108Z" fill="#008D6B"/>
<path d="M11.1399 21.0064L10.5259 20.8074C10.5259 20.8074 10.096 19.3716 8.64369 20.014C8.64369 20.014 8.05378 20.3299 8.31394 20.7035C8.57357 21.0772 8.52592 20.8804 8.88137 21.419C9.23628 21.9576 9.79783 22.2129 10.2459 22.0095L10.756 22.0241L11.1404 21.0064H11.1399Z" fill="#AB7041"/>
<path d="M21.0384 9.082C21.0384 9.082 24.7947 15.1172 20.7932 22.0907C19.5443 24.2673 10.11 22.1983 10.11 22.1983C10.11 22.1983 9.74222 21.5272 10.7267 20.8203C10.7267 20.8203 17.0075 19.7463 17.7564 19.5663C18.4207 19.4067 17.978 13.2396 18.7371 11.4501C19.4962 9.66064 21.0379 9.082 21.0379 9.082H21.0384Z" fill="#FFE94D"/>
<path d="M19.3371 5.92596C19.3371 5.92596 18.4715 7.544 16.8244 7.99664C16.7408 7.30659 16.7408 6.91506 16.7408 6.91506L18.0615 5.84917L19.3366 5.92596H19.3371Z" fill="#ED985F"/>
<path d="M16.1386 6.86855C16.1386 6.86855 19.4046 7.41691 19.7113 5.35651C20.0181 3.29665 20.646 1.97983 18.5738 1.54287C16.5016 1.10591 15.9786 1.83003 15.7104 2.4925C15.4427 3.15496 15.2971 6.67279 16.1386 6.86801V6.86855Z" fill="#FFB27D"/>
<path d="M19.6898 5.49873C19.6898 5.49873 19.624 2.73909 16.6482 2.29673C14.6097 1.99335 15.8442 0.272557 16.0776 0C16.0776 0 17.6359 0.300137 19.2305 0.653813C22.5779 1.39577 20.0442 5.08828 19.6904 5.49873H19.6898Z" fill="#393B3A"/>
</g>
<defs>
<clipPath id="clip0_11_304">
<rect width="30" height="59" fill="white"/>
</clipPath>
</defs>
</svg>
