<svg width="44" height="56" viewBox="0 0 44 56" fill="none" xmlns="http://www.w3.org/2000/svg">
<g clip-path="url(#clip0_2_228)">
<path d="M26.4971 55.8878C26.067 52.9544 24.9374 44.4742 25.6047 40.4078C26.4206 35.4435 29.5659 30.7097 31.5465 30.2486C33.5271 29.786 34.8082 31.8655 34.8082 31.8655C34.8082 31.8655 31.3139 25.0537 26.0701 33.3655C21.6879 40.3138 23.2476 52.1793 23.8782 55.8893H26.4971V55.8878Z" fill="#5F9500"/>
<path d="M25.1991 55.8878C25.1318 54.4681 25.0736 51.5954 25.4884 48.7196C26.0715 44.679 28.5174 39.1368 32.246 37.2894C35.9745 35.442 39.9357 39.3673 39.9357 39.3673C39.9357 39.3673 34.9261 32.4403 28.7516 37.2894C23.5047 41.4089 22.6323 52.6116 22.4884 55.8878H25.1991Z" fill="#7DB500"/>
<path d="M33.6052 55.8878H35.8261C36.4644 49.883 35.4618 33.9389 35.1419 26.117C34.793 17.5731 36.6572 9.95445 36.6572 9.95445C36.6572 9.95445 33.1614 21.8458 33.8608 32.5829C34.4272 41.2769 33.8471 52.0883 33.6068 55.8878H33.6052Z" fill="#99CA00"/>
<path d="M32.3808 30.3229C32.0823 36.9511 32.2889 51.3118 32.367 55.9652L34.6414 55.9348C34.467 52.152 34.2328 42.0414 36.3052 36.2747C38.8889 29.0822 43.9 20.4731 43.9 20.4731C43.9 20.4731 35.6333 29.5873 34.2573 39.9968C34.2573 39.9968 33.3864 9.75727 30.8517 3.09418C30.8517 3.09418 32.7404 22.3509 32.3808 30.3229Z" fill="#7DB500"/>
<path d="M30.1475 37.8673C30.0572 44.9065 29.898 52.6965 29.8307 55.8878H32.3501C32.3057 50.9068 32.1143 34.5759 31.4302 24.5911C30.6144 12.6998 26.0715 5.65749 26.0715 5.65749C26.0715 5.65749 27.0037 9.58284 28.5174 15.2403C30.0327 20.8978 30.2654 28.7485 30.1491 37.8688L30.1475 37.8673Z" fill="#99CA00"/>
<path d="M34.6965 9.79671C35.1266 9.43724 35.3914 9.23551 35.3914 9.23551C35.3914 9.23551 35.1236 9.42207 34.6965 9.79671Z" fill="#5F9500"/>
<path d="M28.1287 55.8878H30.9098C30.9695 54.3043 31.0384 51.4877 30.9634 48.1417C30.8471 42.9469 30.0313 35.674 28.9828 25.0522C28.1333 16.4416 32.8721 11.3984 34.6965 9.79671C33.0818 11.1497 29.1068 14.7808 27.818 18.7031C26.1864 23.6674 27.7017 31.9792 28.2849 40.8689C28.6017 45.7074 28.2864 52.9043 28.1303 55.8878H28.1287Z" fill="#5F9500"/>
<path d="M28.2772 6.40221C28.6247 5.81068 28.868 5.42542 28.868 5.42542C28.868 5.42542 28.6247 5.73939 28.2772 6.40221Z" fill="#5F9500"/>
<path d="M26.843 55.8878H29.5078C29.6318 53.3927 29.8644 46.7979 29.217 41.2147C28.4012 34.1724 26.1879 29.0928 25.9553 19.2794C25.7869 12.1962 27.3788 8.1207 28.2772 6.40221C27.6941 7.39569 26.8155 8.97159 26.3043 10.2745C25.4885 12.3524 25.1395 13.622 24.6727 18.3557C24.2058 23.0895 25.9538 32.5556 27.4691 38.9062C28.7119 44.1193 27.365 52.9074 26.843 55.8878Z" fill="#7DB500"/>
<path d="M22.8084 27.5928C26.1176 32.9226 25.2957 51.5362 25.2329 55.8878H28.0186C27.8732 50.8173 27.1538 33.1517 24.0911 27.708C21.238 22.6391 17.6381 21.0267 16.5865 20.6476C17.3427 20.963 19.5069 22.2735 22.81 27.5928H22.8084Z" fill="#99CA00"/>
<path d="M16.585 20.6476C16.3875 20.5657 16.2834 20.549 16.2834 20.549C16.2834 20.549 16.3906 20.5778 16.585 20.6476Z" fill="#5F9500"/>
<path d="M22.3599 55.8878C21.8992 51.515 20.0976 32.4585 22.4594 22.2811C25.1379 10.7371 22.8083 0 22.8083 0C22.8083 0 23.041 6.23386 22.9247 10.3898C22.8083 14.5457 22.5757 14.5457 20.8277 24.9369C19.2956 34.0511 19.7334 51.6909 19.865 55.8878H22.3583H22.3599Z" fill="#5F9500"/>
<path d="M22.343 32.4418C21.7507 38.0235 21.6604 51.8259 21.6466 55.8893H24.0588C23.9471 51.65 23.6104 36.6614 24.2073 28.9791C24.9068 19.9741 20.3624 10.5065 20.3624 10.5065C20.3624 10.5065 21.994 15.4709 22.5757 19.9741C23.015 23.3656 23.041 25.8622 22.343 32.4433V32.4418Z" fill="#99CA00"/>
<path d="M20.2308 55.8878C20.0532 51.8411 19.3537 35.4784 19.4563 30.1318C19.5726 24.0132 20.1558 15.2388 22.1364 10.1592C24.117 5.0796 28.0782 1.73061 28.0782 1.73061C28.0782 1.73061 23.0685 3.34747 19.4563 13.8525C16.2298 23.2351 17.3731 50.021 17.6532 55.8863H20.2308V55.8878Z" fill="#99CA00"/>
<path d="M18.013 55.8878C17.7421 51.8108 16.9584 38.0144 18.4431 34.2877C20.1911 29.9013 25.317 28.8623 25.317 28.8623C25.317 28.8623 19.1426 28.2844 16.2299 35.9046C13.7733 42.3311 15.0452 52.6146 15.5044 55.8878H18.013Z" fill="#5F9500"/>
<path d="M11.7435 55.8878H14.3471C14.2706 54.2558 14.1527 50.3441 14.5078 46.2943C14.9731 40.9842 14.8568 27.9386 12.7599 21.1268C10.7731 14.6761 7.11806 8.95187 6.73694 8.36489C6.93132 8.67583 8.00734 10.5809 11.1298 18.9336C14.3287 27.4927 12.0619 51.5256 11.7451 55.8878H11.7435Z" fill="#7DB500"/>
<path d="M6.73763 8.36586C6.71425 8.32725 6.70178 8.31181 6.70178 8.31181C6.70178 8.31181 6.71581 8.33188 6.73763 8.36586Z" fill="#5F9500"/>
<path d="M14.4206 27.4775C15.9466 30.7051 17.0287 50.8476 17.2782 55.8893H19.2389C18.8746 50.476 17.165 27.4881 14.1864 24.13C10.8084 20.3199 6.03137 22.6284 6.03137 22.6284C10.5742 21.3589 12.6726 23.7827 14.4191 27.4775H14.4206Z" fill="#ACD13F"/>
<path d="M13.6722 55.8878H15.6329C15.61 53.6582 15.5824 48.0826 15.7615 42.0232C15.9942 34.1724 10.1687 27.476 10.1687 27.476C10.1687 27.476 13.0814 32.9014 14.1299 38.5589C14.9977 43.2457 14.0289 52.7587 13.6707 55.8863L13.6722 55.8878Z" fill="#99CA00"/>
<path d="M11.3135 55.8878H12.8319C12.7446 53.0363 12.2625 41.961 9.93752 37.752C7.25744 32.9029 4.11206 30.825 4.11206 30.825C4.11206 30.825 9.23804 35.7893 10.1702 41.7926C10.9477 46.7949 11.2385 53.7173 11.3135 55.8878Z" fill="#7DB500"/>
<path d="M10.2987 55.8878H12.8487C12.8273 52.8922 12.564 40.7006 9.8212 33.2487C6.67581 24.7064 0.966675 23.7827 0.966675 23.7827C0.966675 23.7827 5.04419 25.0522 6.90846 29.6707C8.77274 34.2892 9.93752 39.9452 10.1702 45.8332C10.3508 50.4078 10.3217 54.3544 10.2987 55.8878Z" fill="#ACD13F"/>
</g>
<defs>
<clipPath id="clip0_2_228">
<rect width="42.9333" height="55.9667" fill="white" transform="translate(0.966675)"/>
</clipPath>
</defs>
</svg>
