<svg width="24" height="28" viewBox="0 0 24 28" fill="none" xmlns="http://www.w3.org/2000/svg">
<g clip-path="url(#clip0_2_195)">
<path d="M16.4005 27.9666H14.4004C14.4004 27.9666 14.7341 22.1852 18.6675 18.8811C22.601 15.577 23.7345 10.4147 23.7345 10.4147C23.7345 10.4147 23.1349 16.8851 20.2682 19.2246C17.4016 21.5651 16.6017 25.3505 16.4015 27.9656L16.4005 27.9666Z" fill="#7EB500"/>
<path d="M14.2001 27.9666H12.7996C12.7996 27.9666 12.1333 21.9096 13.5995 17.2296C15.0657 12.5496 15.3993 9.31435 13.9999 5.94134C13.9999 5.94134 16.4004 8.28188 15.733 12.7552C15.0667 17.2285 13.7329 20.1203 13.9332 22.7354C14.1334 25.3505 14.2001 27.9666 14.2001 27.9666Z" fill="#ACD13F"/>
<path d="M9.53362 27.9666H11.9331C11.9331 27.9666 12.2001 19.2945 9.19993 14.2011C6.6033 9.79349 6.13306 6.35475 6.13306 6.35475C6.13306 6.35475 6.15051 11.0252 8.06641 14.8212C10.5326 19.7079 9.53362 27.9677 9.53362 27.9677V27.9666Z" fill="#ACD13F"/>
<path d="M9.46688 27.9666H7.53352C7.53352 27.9666 2.86699 21.3595 2.5333 16.4717C2.19961 11.5849 2.73351 10.6903 2.73351 10.6903C2.73351 10.6903 2.73351 16.1282 4.26644 19.4313C5.79936 22.7354 9.46688 27.9666 9.46688 27.9666Z" fill="#99CA00"/>
<path d="M19.6008 4.42761C19.6008 4.42761 17.7342 8.14408 17.267 12.8252C16.7998 17.5052 14.8008 19.9836 13.9332 23.1499C13.0666 26.3162 13.2668 27.9677 13.2668 27.9677H15C15 27.9677 14.2669 24.8014 15.5996 21.704C16.9333 18.6066 17.9991 16.8172 18.1993 13.2375C18.3995 9.65886 19.5998 4.42761 19.5998 4.42761H19.6008Z" fill="#729918"/>
<path d="M10.4002 27.9666H8.99968C8.99968 27.9666 6.6659 25.007 6.60019 20.8083C6.53345 16.6095 4.53336 10.7592 0.733398 8.28188C0.733398 8.28188 4.46662 9.31435 6.39998 13.9944C8.33333 18.6744 7.60023 21.4973 8.19985 23.2866C8.79947 25.0759 10.4002 27.9666 10.4002 27.9666Z" fill="#7EB500"/>
<path d="M10.4001 0.366638C10.4001 0.366638 12.5337 4.42761 11.5337 9.52106C10.7462 13.5311 10.3334 15.3025 10.9341 18.8822C11.5337 22.4608 11.0675 27.9677 11.0675 27.9677H12.8007C12.8007 27.9677 12.7339 20.2592 12.1343 17.3685C11.5347 14.4778 13.0009 8.83416 12.8007 6.56251C12.623 4.54528 11.4669 1.74468 10.4012 0.367698L10.4001 0.366638Z" fill="#7EB500"/>
<path d="M21.8668 21.0839C21.8668 21.0839 16.5997 22.4608 16.4005 27.9666H15C15 27.9666 15.0667 21.8407 21.8668 21.0839Z" fill="#99CA00"/>
</g>
<defs>
<clipPath id="clip0_2_195">
<rect width="23" height="27.6" fill="white" transform="translate(0.733398 0.366638)"/>
</clipPath>
</defs>
</svg>
