<svg width="49" height="54" viewBox="0 0 49 54" fill="none" xmlns="http://www.w3.org/2000/svg">
<path d="M18.7501 2.09266C19.4492 1.56892 20.1678 1.09194 20.9061 0.661721C14.1553 7.32624 14.2552 19.6566 21.4953 29.3197C28.7354 38.9827 40.5376 42.5374 48.8301 37.9306C48.2061 38.5134 47.5502 39.074 46.8512 39.5978C36.4941 47.3579 21.8089 45.2485 14.0524 34.8964C6.29594 24.5442 8.39304 9.85281 18.7501 2.09266Z" fill="url(#paint0_linear_98_408)"/>
<path d="M16.4278 9.00531C15.0334 15.3304 16.6968 22.9154 21.4952 29.3197C24.8663 33.8189 29.2271 36.9924 33.7634 38.6357C27.6024 38.8554 21.4329 36.1608 17.457 30.8543C12.5331 24.2826 12.3921 15.6108 16.4327 9.00162L16.4278 9.00531Z" fill="white"/>
<defs>
<linearGradient id="paint0_linear_98_408" x1="38.5074" y1="45.8494" x2="10.4064" y2="8.3443" gradientUnits="userSpaceOnUse">
<stop stop-color="#B9E5FB"/>
<stop offset="1" stop-color="white"/>
</linearGradient>
</defs>
</svg>
