<svg width="38" height="38" viewBox="0 0 38 38" fill="none" xmlns="http://www.w3.org/2000/svg">
<path d="M38 6.82056H0V31.1795H38V6.82056Z" fill="#2557D6"/>
<path d="M0.0123286 18.3029H1.83638L2.24765 17.3524H3.16842L3.57863 18.3029H7.16758V17.5762L7.48795 18.306H9.35107L9.67144 17.5654V18.3029H18.5907L18.5866 16.7427H18.7591C18.8799 16.7467 18.9152 16.7574 18.9152 16.9485V18.3029H23.5283V17.9397C23.9004 18.1307 24.4792 18.3029 25.2406 18.3029H27.1814L27.5967 17.3524H28.5174L28.9236 18.3029H32.6634V17.4001L33.2298 18.3029H36.2267V12.3345H33.2608V13.0393L32.8456 12.3345H29.8021V13.0393L29.4208 12.3345H25.31C24.6219 12.3345 24.017 12.4265 23.5284 12.683V12.3345H20.6916V12.683C20.3806 12.4186 19.957 12.3345 19.4858 12.3345H9.12156L8.42616 13.876L7.712 12.3345H4.44766V13.0393L4.089 12.3345H1.30501L0.012085 15.1721V18.3028H0.0122311L0.0123286 18.3029ZM11.5263 17.442H10.4319L10.4279 14.0905L8.87987 17.442H7.94254L6.39048 14.0875V17.442H4.21912L3.80892 16.4875H1.58606L1.17172 17.442H0.0121824L1.92392 13.1627H3.51013L5.3258 17.2143V13.1627H7.06825L8.46538 16.0657L9.74881 13.1627H11.5263L11.5263 17.442ZM3.44402 15.5994L2.71335 13.8934L1.98672 15.5994H3.44402ZM15.8817 17.4419H12.3154V13.1627H15.8817V14.0538H13.383V14.8251H15.8218V15.7023H13.383V16.5569H15.8817L15.8817 17.4419ZM20.9075 14.3152C20.9075 14.9974 20.4322 15.35 20.1553 15.4558C20.3889 15.5409 20.5884 15.6915 20.6834 15.8161C20.8341 16.029 20.8602 16.2191 20.8602 16.6013V17.4419H19.7833L19.7792 16.9023C19.7792 16.6448 19.805 16.2745 19.6108 16.0686C19.4548 15.9181 19.217 15.8854 18.8326 15.8854H17.6866V17.442H16.619V13.1627H19.0744C19.62 13.1627 20.0221 13.1765 20.3672 13.3676C20.7049 13.5588 20.9075 13.8379 20.9075 14.3152ZM19.558 14.9506C19.4112 15.0359 19.2378 15.0388 19.0299 15.0388H17.733V14.0883H19.0475C19.2335 14.0883 19.4277 14.0963 19.5538 14.1654C19.6923 14.2278 19.778 14.3605 19.778 14.5437C19.778 14.7308 19.6964 14.8813 19.558 14.9506ZM22.6196 17.4419H21.5304V13.1627H22.6196V17.4419ZM35.2649 17.4419H33.752L31.7285 14.2301V17.4419H29.5544L29.1389 16.4874H26.9212L26.5183 17.4419H25.2688C24.75 17.4419 24.0928 17.332 23.7209 16.9686C23.3457 16.6053 23.1505 16.1131 23.1505 15.335C23.1505 14.7003 23.2672 14.1201 23.7259 13.6616C24.0711 13.3201 24.6116 13.1627 25.3473 13.1627H26.3808V14.0796H25.3689C24.9793 14.0796 24.7592 14.1351 24.5474 14.3331C24.3655 14.5133 24.2406 14.8539 24.2406 15.3024C24.2406 15.7609 24.3356 16.0915 24.534 16.3074C24.6983 16.4767 24.9971 16.5281 25.278 16.5281H25.7575L27.2621 13.1628H28.8618L30.6693 17.2104V13.1629H32.2948L34.1714 16.1431V13.1629H35.2649V17.4419ZM28.7756 15.5994L28.0368 13.8934L27.3021 15.5994H28.7756ZM37.9853 24.2751C37.726 24.6384 37.2207 24.8226 36.5366 24.8226H34.4749V23.9047H36.5282C36.7319 23.9047 36.8744 23.8791 36.9603 23.7988C37.0414 23.727 37.0872 23.6256 37.0865 23.5197C37.0865 23.3949 37.0347 23.2959 36.9561 23.2366C36.8786 23.1712 36.7659 23.1416 36.5799 23.1416C35.5775 23.1089 34.327 23.1712 34.327 21.8167C34.327 21.196 34.7383 20.5425 35.8586 20.5425H37.9851V19.6909H36.0092C35.4131 19.6909 34.9799 19.8278 34.6731 20.0404V19.6909H31.7508C31.2834 19.6909 30.7348 19.8019 30.4754 20.0404V19.6909H25.2568V20.0404C24.8415 19.7534 24.1407 19.6909 23.8172 19.6909H20.375V20.0404C20.0464 19.7356 19.3157 19.6909 18.8703 19.6909H15.0178L14.1363 20.605L13.3106 19.6909H7.55552V25.6632H13.2019L14.1103 24.7346L14.9661 25.6632L18.4466 25.6662V24.2613H18.7886C19.2504 24.2681 19.7951 24.2502 20.2756 24.0512V25.663H23.1465V24.1064H23.2849C23.4617 24.1064 23.4791 24.1134 23.4791 24.2825V25.6628H32.2001C32.7537 25.6628 33.3325 25.5271 33.653 25.2806V25.6628H36.4193C36.9949 25.6628 37.557 25.5855 37.9848 25.3876L37.9849 24.2749L37.9853 24.2751ZM20.6933 21.9778C20.6933 23.1668 19.7675 23.4123 18.8343 23.4123H17.5022V24.848H15.4273L14.1127 23.431L12.7465 24.848H8.5177V20.5677H12.8115L14.1249 21.9707L15.483 20.5677H18.8942C19.7414 20.5677 20.6933 20.7924 20.6933 21.9778ZM12.2057 23.9477H9.58087V23.0961H11.9247V22.2228H9.58087V21.4445H12.2574L13.4251 22.6919L12.2057 23.9477ZM16.4349 24.4378L14.7958 22.6942L16.4349 21.0061V24.4378ZM18.859 22.5345H17.4794V21.4445H18.8713C19.2568 21.4445 19.5244 21.5951 19.5244 21.9693C19.5244 22.3395 19.2692 22.5345 18.859 22.5345ZM26.0868 20.5677H29.6499V21.4529H27.1499V22.231H29.5888V23.1044H27.1499V23.9559L29.6498 23.9598V24.848H26.0867L26.0868 20.5677ZM24.7169 22.8588C24.9545 22.9429 25.1487 23.0934 25.2398 23.2181C25.3906 23.4272 25.4124 23.6222 25.4167 23.9994V24.848H24.3448V24.3125C24.3448 24.0549 24.3707 23.6737 24.1722 23.4746C24.0163 23.3213 23.7785 23.2847 23.3891 23.2847H22.2481V24.848H21.1753V20.5677H23.6401C24.1806 20.5677 24.5742 20.5906 24.9246 20.7697C25.2615 20.9648 25.4735 21.2319 25.4735 21.7202C25.4734 22.4034 24.9978 22.752 24.7169 22.8588ZM24.1135 22.3177C23.9706 22.3989 23.7941 22.4059 23.5865 22.4059H22.2895V21.4446H23.604C23.7941 21.4446 23.9843 21.4485 24.1135 21.5219C24.2518 21.5913 24.3346 21.7239 24.3346 21.907C24.3346 22.09 24.2518 22.2376 24.1135 22.3177ZM33.7509 22.5904C33.9589 22.7964 34.0702 23.0567 34.0702 23.4972C34.0702 24.4179 33.4699 24.8478 32.3931 24.8478H30.3138V23.9299H32.3848C32.5873 23.9299 32.7309 23.9044 32.8208 23.824C32.8943 23.7578 32.9469 23.6616 32.9469 23.5449C32.9469 23.4201 32.8899 23.3211 32.8166 23.2618C32.735 23.1965 32.6224 23.1668 32.4365 23.1668C31.4381 23.1342 30.1878 23.1965 30.1878 21.8421C30.1878 21.2212 30.5948 20.5677 31.7141 20.5677H33.8544V21.4787H31.896C31.7019 21.4787 31.5757 21.4858 31.4683 21.5561C31.3514 21.6253 31.3081 21.7282 31.3081 21.8639C31.3081 22.0253 31.4073 22.1353 31.5417 22.1828C31.6542 22.2203 31.7753 22.2313 31.957 22.2313L32.5318 22.2462C33.1113 22.2596 33.5091 22.3557 33.7509 22.5904ZM37.9871 21.4445H36.0414C35.8473 21.4445 35.7181 21.4516 35.6095 21.5219C35.4968 21.5912 35.4535 21.694 35.4535 21.8298C35.4535 21.9913 35.5485 22.1011 35.6869 22.1487C35.7995 22.1862 35.9205 22.1972 36.0982 22.1972L36.6769 22.212C37.2607 22.2258 37.6504 22.322 37.8881 22.5565C37.9315 22.5892 37.9573 22.6258 37.9871 22.6625V21.4445H37.9871Z" fill="white"/>
</svg>
