<svg width="38" height="25" viewBox="0 0 38 25" fill="none" xmlns="http://www.w3.org/2000/svg">
<g clip-path="url(#clip0_24_320)">
<path d="M1.94872 0L36.0513 0C37.1275 0 38 0.866193 38 1.93455V22.2473C38 23.3156 37.1275 24.1818 36.0513 24.1818L1.94872 24.1818C0.872538 24.1818 0 23.3156 0 22.2473L0 1.93455C0 0.866193 0.872538 0 1.94872 0Z" fill="#16366F"/>
<path d="M21.8749 12.0909C21.8749 16.8856 17.9594 20.7722 13.1295 20.7722C8.29962 20.7722 4.38464 16.8856 4.38464 12.0909C4.38464 7.29611 8.29962 3.40961 13.1295 3.40961C17.9594 3.40961 21.8749 7.29659 21.8749 12.0909Z" fill="#D9222A"/>
<path d="M24.8701 3.40961C22.6105 3.40961 20.5517 4.26081 18.9996 5.65706C18.6834 5.94193 18.3881 6.24904 18.1168 6.57597H19.8838C20.1259 6.86809 20.3486 7.1752 20.5503 7.49537L17.4498 7.49537C17.2633 7.79135 17.0952 8.09846 16.9461 8.41476H21.0535C21.1943 8.71365 21.318 9.02076 21.4238 9.33367H16.5758C16.474 9.63546 16.3893 9.94208 16.3215 10.2531H21.6776C21.8086 10.8571 21.8744 11.4733 21.8744 12.0914C21.8744 13.0552 21.7161 13.9829 21.4238 14.8491H16.5758C16.6811 15.1625 16.8048 15.4696 16.9461 15.7684H21.054C20.9049 16.0847 20.7364 16.3919 20.5498 16.6878H17.4503C17.6525 17.0085 17.8756 17.3156 18.1168 17.6067H19.8833C19.6119 17.9342 19.3167 18.2418 19 18.5261C20.5522 19.9224 22.611 20.7726 24.8706 20.7726C29.7005 20.7726 33.6159 16.8861 33.6159 12.0914C33.6159 7.29659 29.7005 3.41009 24.8706 3.41009" fill="#EE9F2D"/>
<path d="M32.4501 16.9301C32.4501 16.7754 32.5762 16.6496 32.7326 16.6496C32.889 16.6496 33.0152 16.7754 33.0152 16.9301C33.0152 17.0849 32.889 17.2106 32.7326 17.2106C32.5767 17.2106 32.4501 17.0849 32.4501 16.9301ZM32.7326 17.1434C32.851 17.1434 32.9475 17.0477 32.9475 16.9301C32.9475 16.8126 32.8515 16.7173 32.7331 16.7173C32.6147 16.7173 32.5187 16.8121 32.5187 16.9297C32.5187 17.0481 32.6147 17.1434 32.7331 17.1434H32.7326ZM32.6946 17.0535H32.6366V16.8073H32.7414C32.7633 16.8073 32.7857 16.8073 32.8047 16.8194C32.8247 16.8329 32.8364 16.8566 32.8364 16.8813C32.8364 16.9089 32.8198 16.9345 32.7935 16.9446L32.8393 17.0535H32.775L32.737 16.9558H32.6946V17.0535ZM32.6946 16.9137H32.7268C32.739 16.9137 32.7511 16.9147 32.7619 16.9089C32.7716 16.9031 32.7765 16.8914 32.7765 16.8808C32.7765 16.8711 32.7706 16.8605 32.7623 16.8557C32.7521 16.8494 32.736 16.8508 32.7253 16.8508H32.6946V16.9137ZM11.0882 13.0417C10.9888 13.0301 10.9445 13.0272 10.8763 13.0272C10.3384 13.0272 10.0656 13.2105 10.0656 13.5722C10.0656 13.7952 10.1986 13.9374 10.4062 13.9374C10.793 13.9374 11.0717 13.5718 11.0882 13.0422V13.0417ZM11.7785 14.6377H10.9918L11.0098 14.2663C10.7696 14.5598 10.4495 14.6991 10.0145 14.6991C9.50001 14.6991 9.14729 14.3001 9.14729 13.7207C9.14729 12.8492 9.76114 12.3404 10.8144 12.3404C10.9221 12.3404 11.06 12.3501 11.2012 12.368C11.2305 12.25 11.2383 12.1992 11.2383 12.1358C11.2383 11.8984 11.0726 11.8099 10.6293 11.8099C10.165 11.8046 9.7816 11.9197 9.62473 11.9709C9.63447 11.9114 9.75627 11.1652 9.75627 11.1652C10.2293 11.0274 10.5416 10.9756 10.8924 10.9756C11.7074 10.9756 12.1395 11.3388 12.1386 12.0256C12.14 12.2094 12.1093 12.4367 12.0616 12.7351C11.9793 13.254 11.8024 14.3659 11.7781 14.6367L11.7785 14.6377ZM8.75024 14.6377H7.80073L8.34442 11.2522L7.12988 14.6377H6.48291L6.40301 11.2716L5.83155 14.6377H4.94293L5.68539 10.2342H7.05047L7.13329 12.6993L7.96588 10.2342H9.48442L8.75024 14.6377ZM26.0441 13.0417C25.9448 13.0301 25.9009 13.0272 25.8327 13.0272C25.2949 13.0272 25.0225 13.2105 25.0225 13.5722C25.0225 13.7952 25.1555 13.9374 25.3626 13.9374C25.7494 13.9374 26.0281 13.5718 26.0441 13.0422V13.0417ZM26.735 14.6377H25.9482L25.9657 14.2663C25.726 14.5598 25.4054 14.6991 24.9709 14.6991C24.4559 14.6991 24.1037 14.3001 24.1037 13.7207C24.1037 12.8492 24.7171 12.3404 25.7703 12.3404C25.878 12.3404 26.0159 12.3501 26.1567 12.368C26.1859 12.25 26.1937 12.1992 26.1937 12.1358C26.1937 11.8984 26.0285 11.8099 25.5847 11.8099C25.1204 11.8046 24.7375 11.9197 24.5797 11.9709C24.5894 11.9114 24.7117 11.1652 24.7117 11.1652C25.1848 11.0274 25.4965 10.9756 25.8473 10.9756C26.6629 10.9756 27.0945 11.3388 27.094 12.0256C27.0955 12.2094 27.0648 12.4367 27.017 12.7351C26.9352 13.254 26.7579 14.3659 26.734 14.6367L26.735 14.6377ZM15.998 14.5835C15.7383 14.6648 15.5357 14.6996 15.316 14.6996C14.8307 14.6996 14.5657 14.4225 14.5657 13.9127C14.5589 13.7546 14.6354 13.3382 14.6958 12.958C14.7503 12.6234 15.1074 10.5142 15.1074 10.5142H16.0511L15.941 11.0564H16.511L16.3824 11.9172H15.8104C15.7008 12.5982 15.5449 13.4465 15.543 13.5592C15.543 13.7439 15.6424 13.8242 15.8679 13.8242C15.9761 13.8242 16.0599 13.8131 16.1242 13.7904L15.9985 14.5835M18.8919 14.5545C18.5679 14.6527 18.2546 14.7006 17.9233 14.6996C16.8671 14.6986 16.3161 14.1507 16.3161 13.1022C16.3161 11.8781 17.0167 10.9766 17.9677 10.9766C18.7457 10.9766 19.2426 11.481 19.2426 12.2727C19.2426 12.5353 19.2085 12.7917 19.1262 13.1534H17.2467C17.1833 13.6728 17.518 13.8895 18.0671 13.8895C18.4047 13.8895 18.7096 13.8204 19.0482 13.6641L18.8914 14.555L18.8919 14.5545ZM18.3613 12.4313C18.3667 12.3569 18.4612 11.792 17.9224 11.792C17.6218 11.792 17.4069 12.0193 17.3192 12.4313H18.3613ZM12.3485 12.1886C12.3485 12.6417 12.5697 12.9542 13.0715 13.1887C13.4559 13.3682 13.5153 13.4214 13.5153 13.5839C13.5153 13.8073 13.3458 13.9079 12.9702 13.9079C12.6871 13.9079 12.4236 13.8639 12.1196 13.7667C12.1196 13.7667 11.9949 14.556 11.989 14.5937C12.2048 14.6406 12.3973 14.6836 12.977 14.6996C13.9787 14.6996 14.4415 14.3209 14.4415 13.5026C14.4415 13.0107 14.2476 12.7215 13.7721 12.5049C13.3741 12.3235 13.3283 12.2829 13.3283 12.1155C13.3283 11.9221 13.4861 11.8229 13.793 11.8229C13.9796 11.8229 14.2339 11.8428 14.4751 11.8766L14.61 11.0457C14.364 11.007 13.9913 10.9761 13.7745 10.9761C12.7125 10.9761 12.3446 11.5269 12.3481 12.1881M23.5089 11.0699C23.7724 11.0699 24.0184 11.1386 24.357 11.3079L24.5124 10.3522C24.3736 10.298 23.884 9.9798 23.4689 9.9798C22.8336 9.9798 22.2963 10.2927 21.9187 10.8092C21.3677 10.6279 21.1412 10.994 20.8635 11.3591L20.617 11.4162C20.6355 11.2963 20.6525 11.1768 20.6467 11.0559H19.7746C19.6553 12.1644 19.4443 13.2869 19.2792 14.3964L19.2363 14.6372H20.1863C20.3446 13.6148 20.4318 12.96 20.4844 12.517L20.842 12.3196C20.8956 12.1223 21.0627 12.0556 21.3984 12.0638C21.3531 12.3061 21.3307 12.5518 21.3312 12.7979C21.3312 13.9698 21.9679 14.6991 22.99 14.6991C23.2531 14.6991 23.4791 14.6648 23.8289 14.5705L23.996 13.5664C23.6813 13.7202 23.4231 13.7928 23.1893 13.7928C22.6373 13.7928 22.3036 13.3885 22.3036 12.7201C22.3036 11.7504 22.8005 11.0704 23.5089 11.0704" fill="black"/>
<path d="M9.02307 14.3756H8.07356L8.61773 10.9906L7.4032 14.3756H6.75622L6.67632 11.0099L6.10486 14.3756H5.21625L5.95871 9.97253H7.32379L7.36227 12.6983L8.28304 9.97253H9.75773L9.02356 14.3756" fill="white"/>
<path d="M31.5459 10.2337L31.3354 11.5062C31.0757 11.1671 30.7971 10.9214 30.4288 10.9214C29.9499 10.9214 29.5138 11.2817 29.2284 11.8128C28.8308 11.731 28.4196 11.5922 28.4196 11.5922V11.5956C28.4513 11.2992 28.4645 11.1178 28.4615 11.0564H27.5895C27.4706 12.1649 27.2597 13.2874 27.0945 14.3973L27.0511 14.6382H28.0007C28.1288 13.8112 28.2272 13.1249 28.2993 12.5803C28.6238 12.2892 28.786 12.0352 29.1139 12.0522C28.9687 12.4009 28.8839 12.8018 28.8839 13.2139C28.8839 14.1091 29.3404 14.7001 30.0302 14.7001C30.3781 14.7001 30.6451 14.5811 30.9057 14.305L30.8614 14.6377H31.7593L32.4822 10.2347H31.5459V10.2337ZM30.3586 13.8097C30.0356 13.8097 29.8724 13.5722 29.8724 13.1036C29.8724 12.3999 30.1779 11.9003 30.6085 11.9003C30.9349 11.9003 31.1113 12.147 31.1113 12.6021C31.1113 13.312 30.801 13.8092 30.3586 13.8092V13.8097Z" fill="black"/>
<path d="M11.3605 12.7806C11.2612 12.769 11.2168 12.7661 11.1486 12.7661C10.6103 12.7661 10.3384 12.9494 10.3384 13.3111C10.3384 13.5336 10.4714 13.6763 10.6785 13.6763C11.0658 13.6763 11.3445 13.3106 11.3605 12.781V12.7806ZM12.0514 14.3756H11.2646L11.2826 14.0051C11.0429 14.2977 10.7223 14.438 10.2878 14.438C9.77282 14.438 9.42059 14.039 9.42059 13.4596C9.42059 12.5876 10.034 12.0793 11.0877 12.0793C11.1954 12.0793 11.3333 12.089 11.4745 12.1069C11.5038 11.9889 11.5116 11.9381 11.5116 11.8742C11.5116 11.6368 11.3464 11.5487 10.9026 11.5487C10.4378 11.5434 10.0549 11.6585 9.89754 11.7093C9.90729 11.6498 10.0291 10.9045 10.0291 10.9045C10.5021 10.7662 10.8144 10.7145 11.1652 10.7145C11.9807 10.7145 12.4124 11.0782 12.4119 11.7644C12.4133 11.9492 12.3826 12.176 12.3349 12.4744C12.2526 12.9934 12.0757 14.1057 12.0519 14.3761L12.0514 14.3756ZM24.7853 10.0911L24.6299 11.0472C24.2913 10.8779 24.0452 10.8093 23.7817 10.8093C23.0728 10.8093 22.5759 11.4893 22.5759 12.4589C22.5759 13.1273 22.9101 13.5317 23.4616 13.5317C23.6954 13.5317 23.9536 13.4596 24.2679 13.3053L24.1013 14.3089C23.7515 14.4036 23.5254 14.438 23.2619 14.438C22.2397 14.438 21.603 13.7087 21.603 12.5368C21.603 10.9626 22.4829 9.8623 23.7412 9.8623C24.1558 9.8623 24.6454 10.0369 24.7848 10.0911M26.3165 12.7806C26.2171 12.769 26.1732 12.7661 26.1045 12.7661C25.5667 12.7661 25.2944 12.9494 25.2944 13.3111C25.2944 13.5336 25.4274 13.6763 25.6344 13.6763C26.0212 13.6763 26.2999 13.3106 26.3165 12.781V12.7806ZM27.0073 14.3756H26.2205L26.2385 14.0051C25.9988 14.2977 25.6783 14.438 25.2437 14.438C24.7292 14.438 24.3765 14.039 24.3765 13.4596C24.3765 12.5876 24.9899 12.0793 26.0432 12.0793C26.1508 12.0793 26.2887 12.089 26.43 12.1069C26.4592 11.9889 26.467 11.9381 26.467 11.8742C26.467 11.6368 26.3019 11.5487 25.858 11.5487C25.3937 11.5434 25.0103 11.6585 24.853 11.7093C24.8627 11.6498 24.9845 10.9045 24.9845 10.9045C25.4576 10.7662 25.7698 10.7145 26.1206 10.7145C26.9362 10.7145 27.3678 11.0782 27.3668 11.7644C27.3683 11.9492 27.3381 12.176 27.2898 12.4744C27.208 12.9934 27.0307 14.1057 27.0068 14.3761L27.0073 14.3756ZM16.2703 14.3214C16.0102 14.4027 15.8075 14.438 15.5883 14.438C15.1031 14.438 14.838 14.1609 14.838 13.6511C14.8312 13.4925 14.9082 13.0766 14.9681 12.6964C15.0227 12.3613 15.3798 10.2526 15.3798 10.2526H16.3234L16.2133 10.7948H16.6976L16.5685 11.6551H16.0823C15.9727 12.3366 15.8163 13.1844 15.8143 13.2971C15.8143 13.4823 15.9137 13.5621 16.1393 13.5621C16.2474 13.5621 16.3312 13.5515 16.3951 13.5288L16.2694 14.3214M19.1627 14.2929C18.8387 14.3911 18.5255 14.4385 18.1942 14.438C17.138 14.437 16.587 13.8891 16.587 12.8405C16.587 11.616 17.2876 10.715 18.2385 10.715C19.0166 10.715 19.5135 11.2194 19.5135 12.0111C19.5135 12.2737 19.4794 12.53 19.3975 12.8918L17.518 12.8918C17.4542 13.4112 17.7894 13.6279 18.3384 13.6279C18.676 13.6279 18.981 13.5587 19.3196 13.4016L19.1627 14.2929ZM18.6322 12.1692C18.638 12.0948 18.7325 11.5299 18.1932 11.5299C17.8926 11.5299 17.6778 11.7582 17.5901 12.1692L18.6322 12.1692ZM12.6194 11.9274C12.6194 12.3806 12.8406 12.6925 13.3424 12.9276C13.7268 13.107 13.7862 13.1602 13.7862 13.3227C13.7862 13.5462 13.6167 13.6468 13.2411 13.6468C12.9575 13.6468 12.694 13.6027 12.39 13.5055C12.39 13.5055 12.2657 14.2948 12.2599 14.3326C12.4752 14.3795 12.6676 14.422 13.2474 14.4385C14.2495 14.4385 14.7119 14.0598 14.7119 13.2415C14.7119 12.7491 14.5184 12.4604 14.0425 12.2432C13.6444 12.0614 13.5986 12.0217 13.5986 11.8539C13.5986 11.6605 13.7565 11.5608 14.0634 11.5608C14.2495 11.5608 14.5043 11.5811 14.7455 11.615L14.8804 10.7841C14.6349 10.7454 14.2622 10.7145 14.0449 10.7145C12.9829 10.7145 12.615 11.2649 12.6184 11.9269M32.0301 14.3756H31.1317L31.1766 14.0424C30.9159 14.319 30.649 14.438 30.3011 14.438C29.6108 14.438 29.1548 13.8475 29.1548 12.9518C29.1548 11.7606 29.8622 10.7565 30.6996 10.7565C31.0679 10.7565 31.3466 10.906 31.6058 11.245L31.8167 9.97257H32.7531L32.0301 14.3756ZM30.63 13.5481C31.0723 13.5481 31.3826 13.0509 31.3826 12.3414C31.3826 11.8868 31.2058 11.6397 30.8794 11.6397C30.4487 11.6397 30.1428 12.1388 30.1428 12.843C30.1428 13.3116 30.3065 13.5486 30.6295 13.5486L30.63 13.5481ZM27.8608 10.7948C27.742 11.9032 27.531 13.0258 27.3658 14.1347L27.3225 14.3756L28.272 14.3756C28.6116 12.1862 28.6939 11.7582 29.2264 11.8118C29.3112 11.3635 29.469 10.9713 29.5869 10.773C29.1894 10.6908 28.9672 10.9137 28.6764 11.3379C28.6993 11.1546 28.7412 10.9766 28.7329 10.7948H27.8608ZM20.0455 10.7948C19.9261 11.9032 19.7152 13.0258 19.55 14.1347L19.5067 14.3756L20.4567 14.3756C20.7957 12.1862 20.8781 11.7582 21.4101 11.8118C21.4953 11.3635 21.6532 10.9713 21.7706 10.773C21.3735 10.6908 21.1509 10.9137 20.8605 11.3379C20.8834 11.1546 20.9253 10.9766 20.9171 10.7948H20.045M32.4471 14.0951C32.4471 13.9398 32.5738 13.8146 32.7297 13.8146C32.8856 13.8146 33.0118 13.9398 33.0118 14.0946V14.0956C33.0118 14.2503 32.8856 14.3756 32.7297 14.3761C32.5738 14.3761 32.4476 14.2503 32.4471 14.0956V14.0951ZM32.7297 14.3079C32.8481 14.3079 32.9441 14.2126 32.9441 14.0951C32.9441 13.9771 32.8481 13.8818 32.7297 13.8818C32.6113 13.8818 32.5148 13.9771 32.5148 14.0951C32.5148 14.2126 32.6113 14.3079 32.7297 14.3079ZM32.6917 14.2175H32.6337V13.9718H32.7385C32.7604 13.9718 32.7828 13.9718 32.8018 13.9839C32.8223 13.9974 32.8335 14.0211 32.8335 14.0453C32.8335 14.0733 32.8169 14.099 32.7901 14.1091L32.8359 14.2175H32.7716L32.7336 14.1202H32.6912V14.2175H32.6917ZM32.6917 14.0782H32.7234C32.7351 14.0782 32.7482 14.0791 32.7589 14.0733C32.7687 14.0675 32.7731 14.0559 32.7731 14.0448C32.7731 14.0346 32.7677 14.0254 32.7589 14.0196C32.7492 14.0138 32.7326 14.0158 32.7219 14.0158H32.6912V14.0786L32.6917 14.0782Z" fill="white"/>
</g>
<defs>
<clipPath id="clip0_24_320">
<rect width="38" height="24.1818" fill="white"/>
</clipPath>
</defs>
</svg>
