<svg width="50" height="50" viewBox="0 0 50 50" fill="none" xmlns="http://www.w3.org/2000/svg">
<path d="M2.5641 8.97437H47.4359C48.8521 8.97437 50 10.1224 50 11.5385V38.4615C50 39.8777 48.8521 41.0256 47.4359 41.0256H2.5641C1.14801 41.0256 0 39.8777 0 38.4615V11.5385C0 10.1224 1.14801 8.97437 2.5641 8.97437Z" fill="#0E4595"/>
<path d="M18.7949 31.3288L20.9334 18.7801H24.3539L22.2139 31.3288H18.7949ZM34.5712 19.0506C33.8936 18.7964 32.8316 18.5236 31.5057 18.5236C28.1259 18.5236 25.7451 20.2255 25.7249 22.6648C25.7057 24.468 27.4245 25.4739 28.7218 26.0741C30.0533 26.6892 30.5008 27.0814 30.4945 27.6307C30.4861 28.4718 29.4313 28.8561 28.4482 28.8561C27.0792 28.8561 26.3519 28.6659 25.2285 28.1974L24.7878 27.998L24.3077 30.8072C25.1066 31.1575 26.584 31.4609 28.1178 31.4766C31.7134 31.4766 34.0473 29.7942 34.074 27.1893C34.0868 25.7618 33.1755 24.6755 31.2021 23.7798C30.0066 23.1994 29.2744 22.812 29.2822 22.2242C29.2822 21.7026 29.9019 21.1448 31.241 21.1448C32.3595 21.1275 33.1698 21.3714 33.8011 21.6255L34.1076 21.7704L34.5712 19.0506ZM43.3731 18.7799H40.73C39.9112 18.7799 39.2985 19.0034 38.9389 19.8205L33.8592 31.3205H37.4509C37.4509 31.3205 38.0381 29.7742 38.1709 29.4348C38.5635 29.4348 42.0526 29.4402 42.5516 29.4402C42.6539 29.8795 42.9676 31.3205 42.9676 31.3205H46.1416L43.3731 18.7795V18.7799ZM39.1796 26.8831C39.4625 26.1601 40.5424 23.3752 40.5424 23.3752C40.5222 23.4087 40.8232 22.6487 40.9959 22.1775L41.227 23.2595C41.227 23.2595 41.8821 26.255 42.0189 26.8831H39.1796ZM15.8912 18.7799L12.5425 27.3376L12.1856 25.5985C11.5622 23.5938 9.61989 21.4219 7.44855 20.3345L10.5105 31.3089L14.1294 31.3048L19.5143 18.7798H15.8912" fill="white"/>
<path d="M9.41793 18.7794H3.90248L3.85883 19.0405C8.14972 20.0792 10.989 22.5894 12.1678 25.6053L10.9684 19.8386C10.7614 19.044 10.1609 18.8069 9.41806 18.7792" fill="#F2AE14"/>
</svg>
