<svg width="23" height="23" viewBox="0 0 23 23" fill="none" xmlns="http://www.w3.org/2000/svg">
<path d="M20.371 15.8645V18.5258C20.372 18.7728 20.3214 19.0174 20.2224 19.2437C20.1234 19.4701 19.9782 19.6733 19.7962 19.8403C19.6141 20.0073 19.3992 20.1345 19.1652 20.2137C18.9311 20.2928 18.6831 20.3222 18.4371 20.3C15.7073 20.0034 13.0852 19.0706 10.7814 17.5766C8.63806 16.2146 6.82085 14.3974 5.45886 12.254C3.95965 9.93974 3.02666 7.30487 2.73547 4.56286C2.7133 4.31755 2.74246 4.07031 2.82108 3.83688C2.8997 3.60346 3.02606 3.38896 3.19212 3.20704C3.35818 3.02513 3.5603 2.87978 3.78561 2.78026C4.01092 2.68074 4.25448 2.62922 4.50079 2.62899H7.16208C7.5926 2.62476 8.00996 2.77721 8.33639 3.05793C8.66281 3.33866 8.87602 3.7285 8.93628 4.1548C9.0486 5.00647 9.25692 5.8427 9.55725 6.64754C9.6766 6.96505 9.70243 7.31013 9.63168 7.64187C9.56093 7.97361 9.39656 8.27812 9.15805 8.51931L8.03144 9.64593C9.29427 11.8668 11.1331 13.7057 13.354 14.9685L14.4806 13.8419C14.7218 13.6034 15.0263 13.439 15.3581 13.3683C15.6898 13.2975 16.0349 13.3233 16.3524 13.4427C17.1572 13.743 17.9935 13.9513 18.8451 14.0637C19.2761 14.1245 19.6696 14.3415 19.9509 14.6735C20.2323 15.0056 20.3818 15.4294 20.371 15.8645Z" stroke="#1E4940" stroke-width="2" stroke-linecap="round" stroke-linejoin="round"/>
</svg>
