<svg width="25" height="25" viewBox="0 0 25 25" fill="none" xmlns="http://www.w3.org/2000/svg">
<path d="M12.5 1.52441L0 8.99214V20.4217C0 22.1054 1.36996 23.4754 3.0537 23.4754H21.9463C23.63 23.4754 25 22.1054 25 20.4217V8.99214L12.5 1.52441ZM21.7879 9.39357L12.6215 15.1092L12.574 15.1347C12.5664 15.1387 12.5591 15.1424 12.5488 15.1464L12.5379 15.149C12.512 15.1553 12.5 15.1556 12.4997 15.1556C12.4997 15.1556 12.4874 15.1553 12.4552 15.1477L12.4495 15.1464C12.4412 15.143 12.4323 15.1387 12.4203 15.1327C12.4074 15.1254 12.3941 15.1181 12.3808 15.1112L3.21241 9.39357L12.5 3.84498L21.7879 9.39357ZM21.9463 21.4835H3.0537C2.46832 21.4835 1.99219 21.0074 1.99219 20.4223V10.9803L11.3518 16.8165C11.386 16.8381 11.4206 16.8573 11.4568 16.8759C11.4763 16.8865 11.4956 16.8968 11.5139 16.9058C11.6593 16.9808 11.8074 17.0379 11.9472 17.0745L12.0242 17.0927C12.1856 17.1292 12.3453 17.1478 12.501 17.1478C12.6557 17.1478 12.8164 17.1289 12.9788 17.0917L13.0452 17.0765C13.1923 17.0383 13.3407 16.9808 13.4831 16.9071C13.5037 16.8968 13.524 16.8862 13.5452 16.8746L23.0078 10.9794V20.4217C23.0078 21.0074 22.5317 21.4835 21.9463 21.4835Z" fill="#A0A0A0"/>
</svg>
