<svg width="40" height="40" viewBox="0 0 40 40" fill="none" xmlns="http://www.w3.org/2000/svg">
<g filter="url(#filter0_d_140_2)">
<circle cx="20" cy="16" r="16" fill="#98C23C"/>
</g>
<path fill-rule="evenodd" clip-rule="evenodd" d="M12 10.1818C12 8.97683 12.9768 8 14.1818 8C15.3868 8 16.3636 8.97683 16.3636 10.1818C16.3636 10.5187 16.2873 10.8377 16.151 11.1226L16.8563 11.8279C17.4987 11.2563 18.3451 10.9091 19.2726 10.9091C20.0138 10.9091 20.7032 11.1308 21.278 11.5115L21.6672 11.1224C21.531 10.8376 21.4546 10.5186 21.4546 10.1818C21.4546 8.97683 22.4315 8 23.6365 8C24.8414 8 25.8183 8.97683 25.8183 10.1818C25.8183 11.3868 24.8414 12.3636 23.6365 12.3636C23.2996 12.3636 22.9805 12.2873 22.6957 12.1509L22.3066 12.5401C22.6873 13.1149 22.909 13.8043 22.909 14.5454C22.909 15.3047 22.6763 16.0097 22.2783 16.5928L23.7933 18.4866C24.184 18.2916 24.6246 18.1819 25.0909 18.1819C26.6976 18.1819 28 19.4843 28 21.0909C28 22.6976 26.6976 24 25.0909 24C23.4843 24 22.1819 22.6976 22.1819 21.0909C22.1819 20.4784 22.3712 19.9102 22.6944 19.4414L21.2299 17.6107C20.6648 17.9722 19.9932 18.1818 19.2726 18.1818C18.8207 18.1818 18.3881 18.0994 17.9889 17.9487L17.2716 18.666C17.6156 19.1437 17.8182 19.7301 17.8182 20.3637C17.8182 21.9704 16.5157 23.2728 14.9091 23.2728C13.3024 23.2728 12 21.9704 12 20.3637C12 18.7571 13.3024 17.4546 14.9091 17.4546C15.3526 17.4546 15.773 17.5539 16.1491 17.7314L16.7328 17.1478C16.0563 16.4874 15.6363 15.5655 15.6363 14.5454C15.6363 13.9952 15.7585 13.4734 15.9773 13.0059L15.1224 12.151C14.8376 12.2873 14.5186 12.3636 14.1818 12.3636C12.9768 12.3636 12 11.3868 12 10.1818ZM14.1818 9.45455C13.7802 9.45455 13.4545 9.78016 13.4545 10.1818C13.4545 10.5835 13.7802 10.9091 14.1818 10.9091C14.5835 10.9091 14.9091 10.5835 14.9091 10.1818C14.9091 9.78016 14.5835 9.45455 14.1818 9.45455ZM14.9091 18.9092C14.1058 18.9092 13.4545 19.5604 13.4545 20.3637C13.4545 21.1671 14.1058 21.8183 14.9091 21.8183C15.7124 21.8183 16.3636 21.1671 16.3636 20.3637C16.3636 19.5604 15.7124 18.9092 14.9091 18.9092ZM23.6364 21.0909C23.6364 20.2876 24.2876 19.6364 25.0909 19.6364C25.8943 19.6364 26.5455 20.2876 26.5455 21.0909C26.5455 21.8943 25.8943 22.5455 25.0909 22.5455C24.2876 22.5455 23.6364 21.8943 23.6364 21.0909ZM19.2726 12.3636C18.0677 12.3636 17.0908 13.3404 17.0908 14.5454C17.0908 15.7504 18.0677 16.7273 19.2726 16.7273C20.4776 16.7273 21.4545 15.7504 21.4545 14.5454C21.4545 13.3404 20.4776 12.3636 19.2726 12.3636ZM22.9092 10.1818C22.9092 9.78016 23.2348 9.45455 23.6365 9.45455C24.0381 9.45455 24.3637 9.78016 24.3637 10.1818C24.3637 10.5835 24.0381 10.9091 23.6365 10.9091C23.2348 10.9091 22.9092 10.5835 22.9092 10.1818Z" fill="white"/>
<defs>
<filter id="filter0_d_140_2" x="0" y="0" width="40" height="40" filterUnits="userSpaceOnUse" color-interpolation-filters="sRGB">
<feFlood flood-opacity="0" result="BackgroundImageFix"/>
<feColorMatrix in="SourceAlpha" type="matrix" values="0 0 0 0 0 0 0 0 0 0 0 0 0 0 0 0 0 0 127 0" result="hardAlpha"/>
<feOffset dy="4"/>
<feGaussianBlur stdDeviation="2"/>
<feComposite in2="hardAlpha" operator="out"/>
<feColorMatrix type="matrix" values="0 0 0 0 0.596078 0 0 0 0 0.760784 0 0 0 0 0.235294 0 0 0 0.31 0"/>
<feBlend mode="normal" in2="BackgroundImageFix" result="effect1_dropShadow_140_2"/>
<feBlend mode="normal" in="SourceGraphic" in2="effect1_dropShadow_140_2" result="shape"/>
</filter>
</defs>
</svg>
