<svg width="40" height="40" viewBox="0 0 40 40" fill="none" xmlns="http://www.w3.org/2000/svg">
<g filter="url(#filter0_d_140_4)">
<circle cx="20" cy="16" r="16" fill="#98C23C"/>
</g>
<path d="M26.7876 17.9394L24.6904 17.3632C24.8542 16.0028 24.0228 14.6708 22.6688 14.2898C20.6156 13.7104 19.5544 15.3132 19.3056 15.8863L17.4194 15.3699C17.073 15.2754 16.7203 15.225 16.3708 15.2187L15.0041 7.57613C14.9695 7.38404 14.812 7.23604 14.6168 7.214L12.8156 7.00616C12.57 6.97782 12.3527 7.15417 12.3243 7.39664C12.296 7.63911 12.4723 7.85954 12.7148 7.88788L14.1885 8.05793L15.4828 15.2943C14.8435 15.4203 14.2358 15.6911 13.7005 16.0973C12.6204 16.9223 12 18.1788 12 19.5423V20.8712C12 21.1168 12.1984 21.3152 12.444 21.3152H13.5021C13.7068 22.2756 14.5538 22.9967 15.571 22.9967C16.5881 22.9967 17.4352 22.2756 17.6398 21.3152H22.2027C22.4074 22.2756 23.2545 22.9967 24.2716 22.9967C25.2856 22.9967 26.1358 22.2756 26.3405 21.3152C26.3405 21.3152 28 21.2049 28 19.7816C27.9969 18.6039 27.4993 18.1347 26.7876 17.9394ZM22.42 15.1463C23.2954 15.4234 23.8654 16.239 23.8181 17.127L20.1685 16.1256C20.3448 15.7855 21.2297 14.7684 22.42 15.1463ZM15.571 22.1119C14.8939 22.1119 14.346 21.5576 14.346 20.8743C14.346 20.191 14.8971 19.6367 15.571 19.6367C16.248 19.6367 16.7959 20.191 16.7959 20.8743C16.7959 21.5576 16.248 22.1119 15.571 22.1119ZM24.2685 22.1119C23.5914 22.1119 23.0435 21.5576 23.0435 20.8743C23.0435 20.191 23.5946 19.6367 24.2685 19.6367C24.9455 19.6367 25.4934 20.191 25.4934 20.8743C25.4934 21.5576 24.9455 22.1119 24.2685 22.1119ZM26.3373 20.4271C26.1327 19.4667 25.2856 18.7456 24.2685 18.7456C23.2545 18.7456 22.4043 19.4667 22.1996 20.4271H17.6398C17.4352 19.4667 16.5881 18.7456 15.571 18.7456C14.5538 18.7456 13.7068 19.4667 13.5021 20.4271H12.888V19.5423C12.888 18.4559 13.3793 17.4608 14.2389 16.8058C15.086 16.1603 16.1598 15.9493 17.1864 16.2295L26.5546 18.796C26.8821 18.8841 27.1088 19.0573 27.1088 19.7816C27.1088 20.4618 26.3373 20.4271 26.3373 20.4271Z" fill="white" stroke="white" stroke-width="0.5"/>
<defs>
<filter id="filter0_d_140_4" x="0" y="0" width="40" height="40" filterUnits="userSpaceOnUse" color-interpolation-filters="sRGB">
<feFlood flood-opacity="0" result="BackgroundImageFix"/>
<feColorMatrix in="SourceAlpha" type="matrix" values="0 0 0 0 0 0 0 0 0 0 0 0 0 0 0 0 0 0 127 0" result="hardAlpha"/>
<feOffset dy="4"/>
<feGaussianBlur stdDeviation="2"/>
<feComposite in2="hardAlpha" operator="out"/>
<feColorMatrix type="matrix" values="0 0 0 0 0.596078 0 0 0 0 0.760784 0 0 0 0 0.235294 0 0 0 0.31 0"/>
<feBlend mode="normal" in2="BackgroundImageFix" result="effect1_dropShadow_140_4"/>
<feBlend mode="normal" in="SourceGraphic" in2="effect1_dropShadow_140_4" result="shape"/>
</filter>
</defs>
</svg>
