<svg width="40" height="40" viewBox="0 0 40 40" fill="none" xmlns="http://www.w3.org/2000/svg">
<g filter="url(#filter0_d_140_3)">
<circle cx="20" cy="16" r="16" fill="#98C23C"/>
</g>
<path d="M23.6142 11.5245C22.7875 10.1239 21.6139 8.95994 20.2066 8.14481L19.9563 8L19.7059 8.14481C18.2746 8.97082 17.0861 10.1592 16.26 11.5904C15.4339 13.0216 14.9993 14.6452 15 16.2977C15 16.4053 15.0019 16.5147 15.0055 16.6227C15.0553 18.0869 15.6153 19.319 16.6249 20.1858C17.3975 20.849 18.3886 21.2539 19.4564 21.3505V23.0776H20.4564V15.0776H19.4563V20.3441C17.7668 20.1484 16.0852 18.9549 16.0049 16.5887C16.0016 16.492 15.9999 16.3941 15.9999 16.2977C16.0029 14.8708 16.3673 13.4679 17.0591 12.22C17.7509 10.972 18.7477 9.91968 19.9563 9.16116C21.1648 9.91969 22.1615 10.972 22.8533 12.22C23.5451 13.4679 23.9095 14.8708 23.9125 16.2977C23.9125 16.3941 23.9108 16.492 23.9075 16.5887C23.8433 18.4816 22.7542 19.6239 21.4561 20.1055V21.1638C22.1297 20.9729 22.7543 20.6393 23.2876 20.1857C24.2972 19.319 24.8572 18.0869 24.907 16.6227C24.9106 16.5147 24.9125 16.4053 24.9125 16.2977C24.9134 14.6193 24.4651 12.9712 23.6142 11.5245Z" fill="white" stroke="white" stroke-width="0.75"/>
<defs>
<filter id="filter0_d_140_3" x="0" y="0" width="40" height="40" filterUnits="userSpaceOnUse" color-interpolation-filters="sRGB">
<feFlood flood-opacity="0" result="BackgroundImageFix"/>
<feColorMatrix in="SourceAlpha" type="matrix" values="0 0 0 0 0 0 0 0 0 0 0 0 0 0 0 0 0 0 127 0" result="hardAlpha"/>
<feOffset dy="4"/>
<feGaussianBlur stdDeviation="2"/>
<feComposite in2="hardAlpha" operator="out"/>
<feColorMatrix type="matrix" values="0 0 0 0 0.596078 0 0 0 0 0.760784 0 0 0 0 0.235294 0 0 0 0.31 0"/>
<feBlend mode="normal" in2="BackgroundImageFix" result="effect1_dropShadow_140_3"/>
<feBlend mode="normal" in="SourceGraphic" in2="effect1_dropShadow_140_3" result="shape"/>
</filter>
</defs>
</svg>
