<svg width="24" height="24" viewBox="0 0 24 24" fill="none" xmlns="http://www.w3.org/2000/svg">
<g clip-path="url(#clip0_26_926)">
<path d="M22.0734 0.515625H1.92656C1.14844 0.515625 0.515625 1.14844 0.515625 1.92656V22.0734C0.515625 22.8516 1.14844 23.4844 1.92656 23.4844H22.0734C22.8516 23.4844 23.4844 22.8516 23.4844 22.0734V1.92656C23.4844 1.14844 22.8516 0.515625 22.0734 0.515625ZM2.42812 2.42812H21.5672V7.875H2.42812V2.42812ZM21.5719 21.5719H2.42812V9.7875H21.5672V21.5719H21.5719Z" fill="#98C23C"/>
<path d="M18.1921 4.19531H17.3952C16.8655 4.19531 16.439 4.62188 16.439 5.15156C16.439 5.68125 16.8655 6.10781 17.3952 6.10781H18.1921C18.7218 6.10781 19.1483 5.68125 19.1483 5.15156C19.1483 4.62188 18.7171 4.19531 18.1921 4.19531Z" fill="#98C23C"/>
<path d="M12.3984 4.19531H11.6015C11.0718 4.19531 10.6453 4.62188 10.6453 5.15156C10.6453 5.68125 11.0718 6.10781 11.6015 6.10781H12.3984C12.9281 6.10781 13.3546 5.68125 13.3546 5.15156C13.3546 4.62188 12.9281 4.19531 12.3984 4.19531Z" fill="#98C23C"/>
<path d="M6.60469 4.19531H5.80781C5.27813 4.19531 4.85156 4.62188 4.85156 5.15156C4.85156 5.68125 5.27813 6.10781 5.80781 6.10781H6.60469C7.13437 6.10781 7.56094 5.68125 7.56094 5.15156C7.56094 4.62188 7.13437 4.19531 6.60469 4.19531Z" fill="#98C23C"/>
</g>
<defs>
<clipPath id="clip0_26_926">
<rect width="24" height="24" fill="white"/>
</clipPath>
</defs>
</svg>
