<svg width="16" height="16" viewBox="0 0 16 16" fill="none" xmlns="http://www.w3.org/2000/svg">
<g clip-path="url(#clip0_27_54)">
<path d="M8 0C3.5888 0 0 3.5888 0 8C0 12.4112 3.5888 16 8 16C12.4112 16 16 12.4112 16 8C16 3.5888 12.4112 0 8 0ZM8 14.5455C4.39079 14.5455 1.45455 11.6092 1.45455 8C1.45455 4.39084 4.39079 1.45455 8 1.45455C11.6092 1.45455 14.5455 4.39084 14.5455 8C14.5455 11.6092 11.6092 14.5455 8 14.5455Z" fill="white"/>
<path d="M11 5.17161L6.88589 9.2857L5.00032 7.40007C4.71634 7.1161 4.25583 7.11605 3.97181 7.40002C3.68778 7.68405 3.68778 8.14451 3.97181 8.42853L6.37161 10.8284C6.508 10.9648 6.69297 11.0415 6.88584 11.0415C6.88589 11.0415 6.88584 11.0415 6.88589 11.0415C7.07877 11.0415 7.26373 10.9648 7.40012 10.8285L12.0285 6.20017C12.3126 5.91615 12.3126 5.45568 12.0285 5.17166C11.7445 4.88764 11.284 4.88759 11 5.17161Z" fill="white"/>
</g>
<defs>
<clipPath id="clip0_27_54">
<rect width="16" height="16" fill="white"/>
</clipPath>
</defs>
</svg>
