<svg width="24" height="24" viewBox="0 0 24 24" fill="none" xmlns="http://www.w3.org/2000/svg">
<g clip-path="url(#clip0_26_891)">
<path d="M3.30504 5.51694H20.6949C21.2542 5.51694 21.7118 5.0593 21.7118 4.49999C21.7118 3.94067 21.2542 3.48303 20.6949 3.48303H3.30504C2.74573 3.48303 2.28809 3.94067 2.28809 4.49999C2.28809 5.0593 2.74573 5.51694 3.30504 5.51694Z" fill="#98C23C"/>
<path d="M7.67809 2.0593H16.3222C16.8815 2.0593 17.39 1.60166 17.39 1.04234C17.39 0.483031 16.9323 0.0253906 16.373 0.0253906H7.67809C7.11877 0.0253906 6.66113 0.483031 6.66113 1.04234C6.66113 1.60166 7.11873 2.0593 7.67809 2.0593Z" fill="#98C23C"/>
<path d="M22.983 21.9406H22.5763V9.02536H22.983C23.5424 9.02536 24 8.56772 24 8.00841C24 7.4491 23.5424 6.99146 22.983 6.99146H1.01695C0.457641 6.9915 0 7.4491 0 8.00841C0 8.56772 0.457641 9.02536 1.01695 9.02536H1.42373V21.9406H1.01695C0.457641 21.9406 0 22.3983 0 22.9576C0 23.5169 0.457641 23.9746 1.01695 23.9746H2.44069H8.84747H15.1525H21.5593H22.983C23.5424 23.9746 23.9491 23.5678 24 22.9576C24 22.3983 23.5424 21.9406 22.983 21.9406ZM3.45764 9.02536H20.5932V21.9406H16.1695V14.6694C16.1695 14.1101 15.7118 13.6525 15.1525 13.6525H8.84747C8.28816 13.6525 7.83052 14.1101 7.83052 14.6694V21.9406H3.45764V9.02536ZM14.1356 21.9406H9.81356V15.6355H14.1356V21.9406Z" fill="#98C23C"/>
</g>
<defs>
<clipPath id="clip0_26_891">
<rect width="24" height="24" fill="white"/>
</clipPath>
</defs>
</svg>
