<svg width="26" height="26" viewBox="0 0 26 26" fill="none" xmlns="http://www.w3.org/2000/svg">
<path d="M23.1815 17.4044L20.0356 16.54C20.2812 14.4995 19.0342 12.5014 17.0031 11.9299C13.9234 11.0608 12.3316 13.465 11.9585 14.3247L9.12911 13.55C8.60953 13.4083 8.0805 13.3328 7.55619 13.3233L5.5062 1.85944C5.45424 1.5713 5.21807 1.3493 4.92521 1.31624L2.22338 1.00449C1.85495 0.961975 1.52903 1.22649 1.48652 1.5902C1.44401 1.95391 1.70852 2.28455 2.07223 2.32706L4.28282 2.58213L6.22417 13.4367C5.2653 13.6256 4.35367 14.0318 3.55068 14.6412C1.93053 15.8787 1 17.7634 1 19.8087V21.802C1 22.1704 1.29758 22.468 1.66601 22.468H3.2531C3.56013 23.9086 4.83074 24.9903 6.35643 24.9903C7.88211 24.9903 9.15273 23.9086 9.45975 22.468H16.3041C16.6111 23.9086 17.8817 24.9903 19.4074 24.9903C20.9284 24.9903 22.2037 23.9086 22.5107 22.468C22.5107 22.468 25 22.3027 25 20.1676C24.9953 18.4011 24.249 17.6973 23.1815 17.4044ZM16.63 13.2147C17.9431 13.6303 18.7981 14.8537 18.7272 16.1857L13.2527 14.6837C13.5172 14.1735 14.8445 12.6479 16.63 13.2147ZM6.35643 23.663C5.34088 23.663 4.51899 22.8317 4.51899 21.8067C4.51899 20.7817 5.3456 19.9504 6.35643 19.9504C7.37197 19.9504 8.19386 20.7817 8.19386 21.8067C8.19386 22.8317 7.37197 23.663 6.35643 23.663ZM19.4027 23.663C18.3871 23.663 17.5652 22.8317 17.5652 21.8067C17.5652 20.7817 18.3919 19.9504 19.4027 19.9504C20.4182 19.9504 21.2401 20.7817 21.2401 21.8067C21.2401 22.8317 20.4182 23.663 19.4027 23.663ZM22.506 21.136C22.199 19.6953 20.9284 18.6136 19.4027 18.6136C17.8817 18.6136 16.6064 19.6953 16.2993 21.136H9.45975C9.15273 19.6953 7.88211 18.6136 6.35643 18.6136C4.83074 18.6136 3.56013 19.6953 3.2531 21.136H2.33202V19.8087C2.33202 18.1791 3.06888 16.6864 4.35839 15.704C5.62901 14.7356 7.23972 14.4192 8.77957 14.8396L22.8319 18.6892C23.3232 18.8215 23.6633 19.0812 23.6633 20.1676C23.6633 21.1879 22.506 21.136 22.506 21.136Z" fill="#98C23C" stroke="#98C23C" stroke-width="0.5"/>
</svg>
