<svg width="23" height="23" viewBox="0 0 23 23" fill="none" xmlns="http://www.w3.org/2000/svg">
<g clip-path="url(#clip0_25_950)">
<path d="M2.16651 6.50247C2.36389 6.60116 2.92312 6.89723 3.53405 6.21111C3.77842 5.86805 4.02279 5.52499 4.31416 5.18663C4.65722 4.79658 4.60552 4.16215 4.21547 3.81909C3.82542 3.47604 3.19099 3.52773 2.84793 3.91778C2.50487 4.30784 2.16181 4.74958 1.87045 5.18663C1.58378 5.62368 1.72947 6.20641 2.16651 6.50247Z" fill="#F39C12"/>
<path d="M11.7017 1.90645C12.6322 1.90645 13.5579 2.05213 14.4414 2.34819C15.0336 2.52207 15.4659 2.15082 15.6633 1.76076C15.809 1.22503 15.5176 0.684593 15.0289 0.53891C13.9527 0.195851 12.8765 0.00317383 11.7534 0.00317383C11.2176 0.00317383 10.7759 0.393227 10.7759 0.933663C10.7759 1.4741 11.1659 1.90645 11.7017 1.90645Z" fill="#F39C12"/>
<path d="M20.405 7.87003C20.7481 8.70183 20.9407 9.58062 21.0394 10.4594C21.0394 10.4594 21.0958 11.5497 22.1156 11.3899C23.126 11.2583 22.9944 10.2667 22.9944 10.2667C22.8957 9.19057 22.6044 8.1144 22.2143 7.13692C21.9699 6.64817 21.4342 6.4038 20.9454 6.60118C20.452 6.84555 20.2076 7.38129 20.405 7.87003Z" fill="#F39C12"/>
<path d="M16.8851 3.57006C17.6652 4.10579 18.3513 4.74492 18.9387 5.47803C19.3758 6.02317 20.1136 5.79759 20.2593 5.62371C20.6493 5.28065 20.748 4.64623 20.4049 4.25618C19.7188 3.42438 18.887 2.64427 17.9612 2.00514C17.5195 1.71378 16.9367 1.80777 16.6407 2.24952C16.3446 2.69126 16.4433 3.27399 16.8851 3.57006Z" fill="#F39C12"/>
<path d="M6.32552 3.41964C7.10563 2.9309 7.98912 2.54084 8.86792 2.29647C9.40365 2.15079 9.69972 1.61035 9.55403 1.12161C9.40835 0.585875 8.86792 0.289811 8.37917 0.435493C7.303 0.726859 6.27852 1.16861 5.34804 1.75604C4.90629 2.0474 4.7606 2.63483 5.05667 3.07658C5.24935 3.37264 5.6629 3.66401 6.32552 3.41964Z" fill="#F39C12"/>
<path d="M22.0169 12.6117C21.4812 12.4661 20.9924 12.8091 20.8937 13.3449C20.795 13.7866 20.4943 14.8158 20.4896 14.9145C19.1972 18.2746 16.0956 20.6384 12.5334 21.019C9.02765 21.3856 5.61585 19.8019 3.63739 16.954L5.44667 17.3535C5.93541 17.4522 6.47115 17.1561 6.56984 16.6204C6.66853 16.1316 6.37246 15.5959 5.83673 15.4972L2.02548 14.6654C1.78111 14.6184 1.0198 14.6654 0.85062 15.3985L0.0188187 19.2615C-0.0798696 19.7502 0.216195 20.2859 0.751931 20.3846C1.34876 20.4457 1.77641 20.0933 1.92679 19.6045L2.21816 18.2793C4.394 21.2258 8.32273 23.4064 12.7308 22.9317C17.1765 22.4524 20.9454 19.4588 22.4117 15.2575C22.4586 15.1353 22.6795 14.1109 22.7547 13.7396C22.9004 13.1992 22.5573 12.7104 22.0169 12.6117Z" fill="#F39C12"/>
<path d="M7.7353 12.4661H12.2421C12.7778 12.4661 13.1725 12.0243 13.2195 11.4886V4.80597C13.2195 4.27024 12.7778 3.82849 12.2421 3.82849C11.7063 3.82849 11.2646 4.27024 11.2646 4.80597V10.5111H7.7353C7.19956 10.5111 6.75781 10.9528 6.75781 11.4886C6.75781 12.0243 7.19486 12.4661 7.7353 12.4661Z" fill="#F39C12"/>
</g>
<defs>
<clipPath id="clip0_25_950">
<rect width="23" height="23" fill="white"/>
</clipPath>
</defs>
</svg>
