<svg width="15" height="15" viewBox="0 0 15 15" fill="none" xmlns="http://www.w3.org/2000/svg">
<g clip-path="url(#clip0_27_308)">
<path d="M1.413 4.24076C1.54173 4.30512 1.90644 4.49821 2.30487 4.05074C2.46425 3.82701 2.62362 3.60327 2.81364 3.3826C3.03737 3.12822 3.00366 2.71446 2.74928 2.49073C2.49489 2.267 2.08114 2.30071 1.85741 2.55509C1.63367 2.80947 1.40994 3.09757 1.21992 3.3826C1.03296 3.66763 1.12797 4.04767 1.413 4.24076Z" fill="white"/>
<path d="M7.63161 1.24334C8.23845 1.24334 8.84222 1.33835 9.41842 1.53144C9.80459 1.64484 10.0866 1.40271 10.2153 1.14833C10.3103 0.798937 10.1203 0.446479 9.80152 0.351468C9.09967 0.127734 8.39782 0.0020752 7.66532 0.0020752C7.31593 0.0020752 7.02783 0.256458 7.02783 0.608916C7.02783 0.961374 7.28221 1.24334 7.63161 1.24334Z" fill="white"/>
<path d="M13.3076 5.13264C13.5313 5.67512 13.657 6.24824 13.7213 6.82137C13.7213 6.82137 13.7581 7.53242 14.4232 7.42821C15.0821 7.3424 14.9963 6.69571 14.9963 6.69571C14.932 5.99386 14.7419 5.29201 14.4876 4.65452C14.3282 4.33578 13.9788 4.1764 13.66 4.30513C13.3382 4.4645 13.1789 4.81389 13.3076 5.13264Z" fill="white"/>
<path d="M11.012 2.32832C11.5208 2.67772 11.9683 3.09454 12.3514 3.57265C12.6364 3.92818 13.1176 3.78106 13.2126 3.66766C13.467 3.44393 13.5313 3.03017 13.3076 2.77579C12.8601 2.23331 12.3176 1.72455 11.7139 1.30773C11.4258 1.11771 11.0457 1.179 10.8526 1.4671C10.6596 1.7552 10.7239 2.13524 11.012 2.32832Z" fill="white"/>
<path d="M4.12525 2.2302C4.63402 1.91145 5.21021 1.65707 5.78334 1.4977C6.13273 1.40269 6.32582 1.05023 6.23081 0.731483C6.1358 0.38209 5.78334 0.189004 5.46459 0.284015C4.76274 0.474036 4.0946 0.762132 3.48776 1.14524C3.19967 1.33526 3.10466 1.71837 3.29774 2.00646C3.4234 2.19955 3.69311 2.38957 4.12525 2.2302Z" fill="white"/>
<path d="M14.3588 8.22505C14.0095 8.13004 13.6907 8.35378 13.6263 8.70317C13.562 8.99126 13.3658 9.66247 13.3628 9.72683C12.5199 11.9182 10.4971 13.4598 8.17397 13.7081C5.8876 13.9471 3.66251 12.9143 2.37221 11.057L3.55218 11.3175C3.87092 11.3818 4.22031 11.1888 4.28468 10.8394C4.34904 10.5206 4.15595 10.1712 3.80656 10.1069L1.32096 9.56439C1.16159 9.53374 0.665087 9.56439 0.554752 10.0425L0.012273 12.5618C-0.0520888 12.8806 0.140997 13.23 0.49039 13.2943C0.879626 13.3342 1.15853 13.1043 1.2566 12.7856L1.44662 11.9213C2.86565 13.8429 5.42787 15.265 8.3027 14.9555C11.202 14.6429 13.6601 12.6905 14.6163 9.95056C14.6469 9.87088 14.791 9.20274 14.84 8.96062C14.935 8.60816 14.7113 8.28941 14.3588 8.22505Z" fill="white"/>
<path d="M5.04472 8.13009H7.98391C8.3333 8.13009 8.59075 7.84199 8.6214 7.4926V3.13438C8.6214 2.78498 8.3333 2.49689 7.98391 2.49689C7.63452 2.49689 7.34642 2.78498 7.34642 3.13438V6.85511H5.04472C4.69532 6.85511 4.40723 7.1432 4.40723 7.4926C4.40723 7.84199 4.69226 8.13009 5.04472 8.13009Z" fill="white"/>
</g>
<defs>
<clipPath id="clip0_27_308">
<rect width="15" height="15" fill="white"/>
</clipPath>
</defs>
</svg>
