<svg width="34" height="33" viewBox="0 0 34 33" fill="none" xmlns="http://www.w3.org/2000/svg">
<g clip-path="url(#clip0_26_904)">
<path d="M18.7442 27.9471L18.7443 27.9471C19.289 27.912 19.8108 27.4623 20.232 26.6871L20.2544 26.645C20.8535 25.5171 20.479 24.3325 19.5989 22.5174C19.2831 21.8666 19.2639 21.0275 19.2553 20.3907C19.2536 20.2656 19.2526 20.1423 19.2516 20.0205C19.2467 19.4304 19.2421 18.8766 19.1631 18.3359L18.7442 27.9471ZM18.7442 27.9471C17.8495 28.005 17.1374 27.5851 16.2772 26.8028M18.7442 27.9471L16.2772 26.8028M7.44791 21.8476L7.44797 21.8477C7.79119 22.4392 8.50612 22.7888 9.68407 23.1022C9.96428 23.1768 10.2518 23.2452 10.5531 23.3168L10.5578 23.3179C10.853 23.388 11.1622 23.4615 11.465 23.5424C12.0657 23.7028 12.7098 23.909 13.2779 24.2342L7.44791 21.8476ZM7.44791 21.8476C7.01128 21.0954 7.11779 20.1488 7.56338 19.31L7.56347 19.3098M7.44791 21.8476L7.56347 19.3098M7.56347 19.3098C8.05569 18.3827 9.20795 17.8171 11.0273 17.7226L11.0274 17.7226M7.56347 19.3098L11.0274 17.7226M11.0274 17.7226C11.392 17.7036 11.748 17.5849 12.0412 17.4653M11.0274 17.7226L12.0412 17.4653M17.6235 15.9129L17.6231 15.9127C17.0913 15.6082 16.0744 15.5826 14.8501 16.0827L17.6235 15.9129ZM17.6235 15.9129C18.566 16.4521 19.0112 17.2977 19.1631 18.3356L17.6235 15.9129ZM16.2772 26.8028C16.0643 26.6093 15.852 26.4027 15.6275 26.1826M16.2772 26.8028L15.6275 26.1826M15.6275 26.1826C15.6005 26.1561 15.5733 26.1294 15.5459 26.1024M15.6275 26.1826L15.5459 26.1024M15.5459 26.1024C15.3494 25.9096 15.1427 25.7067 14.9322 25.5093M15.5459 26.1024L14.9322 25.5093M14.9322 25.5093C14.4532 25.0602 13.909 24.5955 13.2781 24.2343L14.9322 25.5093ZM12.0412 17.4653C12.3469 17.3406 12.668 17.1791 12.9763 17.0179M12.0412 17.4653L12.9763 17.0179M12.9763 17.0179C13.1133 16.9462 13.2487 16.8742 13.3828 16.803M12.9763 17.0179L13.3828 16.803M13.3828 16.803C13.8822 16.5376 14.3641 16.2815 14.8498 16.0828L13.3828 16.803Z" stroke="#98C23C" stroke-width="2"/>
<path d="M10.4111 7.72599C10.7569 7.75704 11.1632 7.9955 11.5059 8.56677C11.8462 9.1342 12.0625 9.94942 12.0106 10.8717C11.9587 11.7941 11.6532 12.5624 11.2528 13.0633C10.8496 13.5676 10.4206 13.7311 10.0749 13.7C9.72914 13.669 9.3228 13.4305 8.98016 12.8593C8.63983 12.2918 8.42353 11.4766 8.47545 10.5543C8.52736 9.63199 8.83279 8.86361 9.23326 8.36271C9.63644 7.8584 10.0654 7.69495 10.4111 7.72599Z" stroke="#98C23C" stroke-width="2"/>
<path d="M18.7414 5.46501C19.0623 5.60851 19.3862 5.98921 19.5245 6.71582C19.6612 7.4333 19.5813 8.36803 19.1937 9.32168C18.8061 10.2753 18.2184 10.983 17.6303 11.3764C17.0347 11.7748 16.5486 11.7933 16.2276 11.6498C15.9067 11.5063 15.5828 11.1257 15.4444 10.399C15.3078 9.68156 15.3877 8.74683 15.7753 7.79318C16.1629 6.83952 16.7505 6.13183 17.3387 5.73844C17.9343 5.34003 18.4204 5.32151 18.7414 5.46501Z" stroke="#98C23C" stroke-width="2"/>
<path d="M28.1476 17.9041C28.3762 18.2166 28.463 18.6965 28.2707 19.3096C28.0786 19.9217 27.6225 20.5893 26.9109 21.1184C26.1993 21.6475 25.432 21.8895 24.7953 21.8936C24.1576 21.8977 23.7287 21.6722 23.5001 21.3596C23.2715 21.047 23.1846 20.5671 23.377 19.954C23.569 19.3419 24.0252 18.6743 24.7368 18.1453C25.4483 17.6162 26.2157 17.3741 26.8523 17.37C27.49 17.366 27.919 17.5915 28.1476 17.9041Z" stroke="#98C23C" stroke-width="2"/>
<path d="M25.5559 9.37263C25.8513 9.58279 26.0944 10.0244 26.088 10.7565C26.0817 11.4808 25.82 12.3714 25.2524 13.2178C24.6848 14.0643 23.9688 14.6316 23.3134 14.894C22.651 15.1592 22.164 15.0813 21.8686 14.8711C21.5733 14.6609 21.3302 14.2193 21.3365 13.4872C21.3428 12.7629 21.6045 11.8723 22.1722 11.0259C22.7398 10.1794 23.4558 9.61214 24.1111 9.34975C24.7736 9.08451 25.2606 9.16247 25.5559 9.37263Z" stroke="#98C23C" stroke-width="2"/>
</g>
<defs>
<clipPath id="clip0_26_904">
<rect width="24" height="24" fill="white" transform="translate(0.607666 12) rotate(-30)"/>
</clipPath>
</defs>
</svg>
