<svg width="24" height="24" viewBox="0 0 24 24" fill="none" xmlns="http://www.w3.org/2000/svg">
<g clip-path="url(#clip0_15_574)">
<path d="M3.30504 5.51695H20.6949C21.2542 5.51695 21.7118 5.05931 21.7118 4.5C21.7118 3.94069 21.2542 3.48305 20.6949 3.48305H3.30504C2.74573 3.48305 2.28809 3.94069 2.28809 4.5C2.28809 5.05931 2.74573 5.51695 3.30504 5.51695Z" fill="#98C23C"/>
<path d="M7.67809 2.05931H16.3222C16.8815 2.05931 17.39 1.60167 17.39 1.04236C17.39 0.483046 16.9323 0.0254059 16.373 0.0254059H7.67809C7.11877 0.0254059 6.66113 0.483046 6.66113 1.04236C6.66113 1.60167 7.11873 2.05931 7.67809 2.05931Z" fill="#98C23C"/>
<path d="M22.983 21.9407H22.5763V9.02541H22.983C23.5424 9.02541 24 8.56777 24 8.00845C24 7.44914 23.5424 6.9915 22.983 6.9915H1.01695C0.457641 6.99155 0 7.44914 0 8.00845C0 8.56777 0.457641 9.02541 1.01695 9.02541H1.42373V21.9406H1.01695C0.457641 21.9407 0 22.3983 0 22.9576C0 23.517 0.457641 23.9746 1.01695 23.9746H2.44069H8.84747H15.1525H21.5593H22.983C23.5424 23.9746 23.9491 23.5678 24 22.9576C24 22.3983 23.5424 21.9407 22.983 21.9407ZM3.45764 9.02541H20.5932V21.9406H16.1695V14.6695C16.1695 14.1102 15.7118 13.6525 15.1525 13.6525H8.84747C8.28816 13.6525 7.83052 14.1102 7.83052 14.6695V21.9407H3.45764V9.02541ZM14.1356 21.9407H9.81356V15.6356H14.1356V21.9407Z" fill="#98C23C"/>
</g>
<defs>
<clipPath id="clip0_15_574">
<rect width="24" height="24" fill="white"/>
</clipPath>
</defs>
</svg>
