<svg width="64" height="64" viewBox="0 0 64 64" fill="none" xmlns="http://www.w3.org/2000/svg">
<g filter="url(#filter0_d_16_342)">
<circle cx="32" cy="28" r="28" fill="#98C23C"/>
</g>
<path d="M27 37H24C23.4696 37 22.9609 36.7893 22.5858 36.4142C22.2107 36.0391 22 35.5304 22 35V28C22 27.4696 22.2107 26.9609 22.5858 26.5858C22.9609 26.2107 23.4696 26 24 26H27M34 24V20C34 19.2044 33.6839 18.4413 33.1213 17.8787C32.5587 17.3161 31.7956 17 31 17L27 26V37H38.28C38.7623 37.0055 39.2304 36.8364 39.5979 36.524C39.9654 36.2116 40.2077 35.7769 40.28 35.3L41.66 26.3C41.7035 26.0134 41.6842 25.7207 41.6033 25.4423C41.5225 25.1638 41.3821 24.9063 41.1919 24.6875C41.0016 24.4687 40.7661 24.2939 40.5016 24.1752C40.2371 24.0565 39.9499 23.9967 39.66 24H34Z" stroke="white" stroke-width="2" stroke-linecap="round" stroke-linejoin="round"/>
<defs>
<filter id="filter0_d_16_342" x="0" y="0" width="64" height="64" filterUnits="userSpaceOnUse" color-interpolation-filters="sRGB">
<feFlood flood-opacity="0" result="BackgroundImageFix"/>
<feColorMatrix in="SourceAlpha" type="matrix" values="0 0 0 0 0 0 0 0 0 0 0 0 0 0 0 0 0 0 127 0" result="hardAlpha"/>
<feOffset dy="4"/>
<feGaussianBlur stdDeviation="2"/>
<feComposite in2="hardAlpha" operator="out"/>
<feColorMatrix type="matrix" values="0 0 0 0 0.596078 0 0 0 0 0.760784 0 0 0 0 0.235294 0 0 0 0.21 0"/>
<feBlend mode="normal" in2="BackgroundImageFix" result="effect1_dropShadow_16_342"/>
<feBlend mode="normal" in="SourceGraphic" in2="effect1_dropShadow_16_342" result="shape"/>
</filter>
</defs>
</svg>
