<svg width="64" height="64" viewBox="0 0 64 64" fill="none" xmlns="http://www.w3.org/2000/svg">
<g filter="url(#filter0_d_16_247)">
<circle cx="32" cy="28" r="28" fill="#98C23C"/>
</g>
<g clip-path="url(#clip0_16_247)">
<path d="M38.7936 32.7955L34.6449 28.6455L37.5506 25.7401C37.7187 25.5721 37.7908 25.3307 37.7425 25.0981C37.6943 24.8654 37.5323 24.6727 37.3114 24.5853L26.0451 20.1278C25.7836 20.0241 25.4856 20.086 25.2867 20.2849C25.0879 20.4837 25.0261 20.7817 25.1296 21.0432L29.5866 32.3094C29.674 32.5304 29.8668 32.6924 30.0993 32.7407C30.147 32.7505 30.195 32.7553 30.2426 32.7553C30.4278 32.7553 30.6078 32.6824 30.7414 32.5488L33.6473 29.643L37.7959 33.793C37.9336 33.9308 38.1142 33.9996 38.2948 33.9996C38.4753 33.9996 38.6558 33.9308 38.7936 33.7931C39.069 33.5177 39.0691 33.071 38.7936 32.7955ZM30.5033 30.7915L27.0408 22.039L35.7934 25.5019L30.5033 30.7915Z" fill="white"/>
<path d="M22.3339 20.3434C22.3339 20.3434 22.3338 20.3434 22.3338 20.3434L18.7053 20.3445C18.3157 20.3446 17.9999 20.6605 18 21.0501C18.0001 21.4397 18.3158 21.7554 18.7054 21.7554C18.7054 21.7554 18.7055 21.7554 18.7056 21.7554L22.3341 21.7543C22.7237 21.7542 23.0395 21.4383 23.0394 21.0487C23.0393 20.6591 22.7235 20.3434 22.3339 20.3434Z" fill="white"/>
<path d="M26.0514 18.0368C26.0515 18.0368 26.0517 18.0368 26.0517 18.0368C26.4412 18.0367 26.757 17.7207 26.7568 17.3311L26.7551 13.7054C26.7549 13.3159 26.4392 13.0004 26.0497 13.0004C26.0496 13.0004 26.0495 13.0004 26.0494 13.0004C25.6598 13.0006 25.3441 13.3165 25.3442 13.7061L25.3459 17.3319C25.3461 17.7213 25.6619 18.0368 26.0514 18.0368Z" fill="white"/>
<path d="M21.6107 15.6107C21.3353 15.335 20.8886 15.3351 20.613 15.6104C20.3374 15.8859 20.3373 16.3326 20.6128 16.608L23.1751 19.1713C23.3128 19.3092 23.4934 19.378 23.674 19.378C23.8545 19.378 24.0349 19.3092 24.1727 19.1716C24.4482 18.8961 24.4483 18.4494 24.1728 18.174L21.6107 15.6107Z" fill="white"/>
</g>
<defs>
<filter id="filter0_d_16_247" x="0" y="0" width="64" height="64" filterUnits="userSpaceOnUse" color-interpolation-filters="sRGB">
<feFlood flood-opacity="0" result="BackgroundImageFix"/>
<feColorMatrix in="SourceAlpha" type="matrix" values="0 0 0 0 0 0 0 0 0 0 0 0 0 0 0 0 0 0 127 0" result="hardAlpha"/>
<feOffset dy="4"/>
<feGaussianBlur stdDeviation="2"/>
<feComposite in2="hardAlpha" operator="out"/>
<feColorMatrix type="matrix" values="0 0 0 0 0.596078 0 0 0 0 0.760784 0 0 0 0 0.235294 0 0 0 0.21 0"/>
<feBlend mode="normal" in2="BackgroundImageFix" result="effect1_dropShadow_16_247"/>
<feBlend mode="normal" in="SourceGraphic" in2="effect1_dropShadow_16_247" result="shape"/>
</filter>
<clipPath id="clip0_16_247">
<rect width="21" height="21" fill="white" transform="translate(18 13)"/>
</clipPath>
</defs>
</svg>
