<svg width="27" height="27" viewBox="0 0 27 27" fill="none" xmlns="http://www.w3.org/2000/svg">
<g clip-path="url(#clip0_23_19)">
<path d="M3 23.8626C3.41591 25.3417 4.77582 26.4295 6.386 26.4295C7.99618 26.4295 9.35618 25.3417 9.772 23.8626H14.2279C14.6438 25.3417 16.0037 26.4295 17.6139 26.4295C19.2242 26.4295 20.5842 25.3415 21 23.8624C22.5675 23.8564 23.8626 22.5795 23.8626 21.0105V19.1092C23.8626 17.534 22.5857 16.2571 21.0105 16.2571H20.9343L23.6914 2.47182H26.0493C26.6255 2.47182 27.082 1.95909 26.9875 1.365C26.9136 0.900546 26.4928 0.570364 26.0225 0.570364H22.912C22.4588 0.570364 22.0686 0.890182 21.9797 1.33464L18.9953 16.257H12.8821V14.0704C12.8821 13.5453 12.4565 13.1196 11.9314 13.1196H11.2006C10.7708 11.3226 9.15218 9.98227 7.22536 9.98227C5.29854 9.98227 3.67991 11.3226 3.25009 13.1196H2.51936C1.99427 13.1196 1.56864 13.5453 1.56864 14.0704V16.5633C0.639091 17.0339 0 17.998 0 19.1092V21.0105C0 22.5857 1.42482 23.8626 3 23.8626ZM3.47009 15.0211H10.9806V16.257H3.47009V15.0211ZM7.22536 11.8838C8.09054 11.8838 8.83991 12.3889 9.19418 13.1197H5.25645C5.61082 12.3889 6.36018 11.8838 7.22536 11.8838ZM6.55145 24.5199C5.53064 24.6219 4.67609 23.7674 4.77809 22.7465C4.85364 21.9908 5.46482 21.3796 6.22055 21.3041C7.24136 21.2021 8.09591 22.0566 7.99391 23.0775C7.91836 23.8332 7.30718 24.4444 6.55145 24.5199ZM17.7794 24.5199C16.7585 24.6219 15.9039 23.7674 16.006 22.7465C16.0815 21.9908 16.6927 21.3796 17.4485 21.3041C18.4693 21.2021 19.3239 22.0566 19.2218 23.0775C19.1463 23.8332 18.5351 24.4444 17.7794 24.5199ZM3 21.9613C2.47491 21.9613 1.90136 21.5356 1.90136 21.0105V19.1092C1.90136 18.5841 2.327 18.1585 2.85209 18.1585H21.0105C21.5356 18.1585 21.9613 18.5841 21.9613 19.1092V21.0105C21.9613 21.5311 21.5189 21.9548 20.9997 21.9607C20.5837 20.4819 19.2239 19.3944 17.6139 19.3944C16.0037 19.3944 14.6437 20.4822 14.2279 21.9613H9.772C9.35609 20.4822 7.99618 19.3944 6.386 19.3944C4.77582 19.3944 3.41582 20.4822 3 21.9613Z" fill="white"/>
</g>
<defs>
<clipPath id="clip0_23_19">
<rect width="27" height="27" fill="white"/>
</clipPath>
</defs>
</svg>
