<svg width="24" height="24" viewBox="0 0 24 24" fill="none" xmlns="http://www.w3.org/2000/svg">
<g clip-path="url(#clip0_47_862)">
<path d="M20.2499 16.6066V7.39357C20.7616 7.26236 21.2295 6.99809 21.606 6.6276C21.9825 6.25711 22.2543 5.79359 22.3938 5.28409C22.5333 4.7746 22.5354 4.23727 22.4001 3.72666C22.2647 3.21606 21.9967 2.75036 21.6232 2.37683C21.2497 2.00331 20.784 1.73527 20.2734 1.59993C19.7628 1.46459 19.2254 1.46676 18.7159 1.60622C18.2064 1.74569 17.7429 2.01748 17.3724 2.39401C17.0019 2.77054 16.7377 3.23839 16.6064 3.75007H7.39345C7.26224 3.23839 6.99797 2.77054 6.62748 2.39401C6.25699 2.01748 5.79347 1.74569 5.28397 1.60622C4.77447 1.46676 4.23715 1.46459 3.72654 1.59993C3.21594 1.73527 2.75023 2.00331 2.37671 2.37683C2.00319 2.75036 1.73515 3.21606 1.59981 3.72666C1.46447 4.23727 1.46664 4.7746 1.6061 5.28409C1.74557 5.79359 2.01736 6.25711 2.39389 6.6276C2.77041 6.99809 3.23827 7.26236 3.74995 7.39357V16.6066C3.23827 16.7378 2.77041 17.002 2.39389 17.3725C2.01736 17.743 1.74557 18.2066 1.6061 18.716C1.46664 19.2255 1.46447 19.7629 1.59981 20.2735C1.73515 20.7841 2.00319 21.2498 2.37671 21.6233C2.75023 21.9968 3.21594 22.2649 3.72654 22.4002C4.23715 22.5356 4.77447 22.5334 5.28397 22.3939C5.79347 22.2545 6.25699 21.9827 6.62748 21.6061C6.99797 21.2296 7.26224 20.7618 7.39345 20.2501H16.6064C16.7377 20.7618 17.0019 21.2296 17.3724 21.6061C17.7429 21.9827 18.2064 22.2545 18.7159 22.3939C19.2254 22.5334 19.7628 22.5356 20.2734 22.4002C20.784 22.2649 21.2497 21.9968 21.6232 21.6233C21.9967 21.2498 22.2647 20.7841 22.4001 20.2735C22.5354 19.7629 22.5333 19.2255 22.3938 18.716C22.2543 18.2066 21.9825 17.743 21.606 17.3725C21.2295 17.002 20.7616 16.7378 20.2499 16.6066ZM19.4999 3.00007C19.7966 3.00007 20.0866 3.08805 20.3333 3.25287C20.58 3.41769 20.7722 3.65196 20.8858 3.92605C20.9993 4.20014 21.029 4.50174 20.9711 4.79271C20.9132 5.08368 20.7704 5.35095 20.5606 5.56073C20.3508 5.77051 20.0836 5.91337 19.7926 5.97125C19.5016 6.02913 19.2 5.99942 18.9259 5.88589C18.6518 5.77236 18.4176 5.5801 18.2527 5.33343C18.0879 5.08675 17.9999 4.79674 17.9999 4.50007C18.0004 4.10239 18.1586 3.72112 18.4398 3.43992C18.721 3.15871 19.1023 3.00053 19.4999 3.00007ZM2.99995 4.50007C2.99995 4.2034 3.08792 3.91339 3.25275 3.66672C3.41757 3.42004 3.65184 3.22778 3.92592 3.11425C4.20001 3.00072 4.50161 2.97102 4.79258 3.02889C5.08356 3.08677 5.35083 3.22963 5.56061 3.43941C5.77039 3.64919 5.91325 3.91646 5.97113 4.20744C6.02901 4.49841 5.9993 4.80001 5.88577 5.0741C5.77224 5.34819 5.57998 5.58245 5.3333 5.74728C5.08663 5.9121 4.79662 6.00007 4.49995 6.00007C4.10225 5.99967 3.72095 5.84151 3.43973 5.56029C3.15851 5.27907 3.00035 4.89777 2.99995 4.50007ZM4.49995 21.0001C4.20328 21.0001 3.91327 20.9121 3.66659 20.7473C3.41992 20.5825 3.22766 20.3482 3.11413 20.0741C3.0006 19.8 2.97089 19.4984 3.02877 19.2074C3.08665 18.9165 3.22951 18.6492 3.43929 18.4394C3.64907 18.2296 3.91634 18.0868 4.20731 18.0289C4.49829 17.971 4.79989 18.0007 5.07397 18.1143C5.34806 18.2278 5.58233 18.42 5.74715 18.6667C5.91198 18.9134 5.99995 19.2034 5.99995 19.5001C5.99949 19.8978 5.84131 20.279 5.56011 20.5602C5.2789 20.8414 4.89763 20.9996 4.49995 21.0001ZM16.6064 18.7501H7.39345C7.25913 18.2344 6.98967 17.7639 6.61288 17.3871C6.23609 17.0103 5.7656 16.7409 5.24995 16.6066V7.39357C5.76557 7.25918 6.23602 6.9897 6.6128 6.61292C6.98958 6.23614 7.25905 5.76569 7.39345 5.25007H16.6064C16.7408 5.76573 17.0102 6.23621 17.387 6.613C17.7638 6.98979 18.2343 7.25925 18.7499 7.39357V16.6066C18.2343 16.7409 17.7638 17.0103 17.387 17.3871C17.0102 17.7639 16.7407 18.2344 16.6064 18.7501ZM19.4999 21.0001C19.2033 21.0001 18.9133 20.9121 18.6666 20.7473C18.4199 20.5825 18.2277 20.3482 18.1141 20.0741C18.0006 19.8 17.9709 19.4984 18.0288 19.2074C18.0866 18.9165 18.2295 18.6492 18.4393 18.4394C18.6491 18.2296 18.9163 18.0868 19.2073 18.0289C19.4983 17.971 19.7999 18.0007 20.074 18.1143C20.3481 18.2278 20.5823 18.42 20.7472 18.6667C20.912 18.9134 20.9999 19.2034 20.9999 19.5001C20.9994 19.8977 20.8412 20.2789 20.56 20.5601C20.2788 20.8413 19.8976 20.9995 19.4999 21.0001Z" fill="#98C23C" stroke="#98C23C" stroke-width="0.75"/>
</g>
<defs>
<clipPath id="clip0_47_862">
<rect width="24" height="24" fill="white"/>
</clipPath>
</defs>
</svg>
