<svg width="30" height="28" viewBox="0 0 30 28" fill="none" xmlns="http://www.w3.org/2000/svg">
<path d="M29.4595 7.16669L24.4435 4.00834V1.16823C24.4435 0.626892 24.0903 0.157732 23.5882 0.0319666C23.0902 -0.0937988 22.5704 0.159919 22.3392 0.645483L19.1233 7.39963C18.5785 8.54246 17.4721 9.27736 16.2345 9.31564C16.1804 9.31783 16.1283 9.32439 16.0762 9.33423H1.11154C0.497954 9.33423 0 9.85698 0 10.5011C0 11.1453 0.497954 11.668 1.11154 11.668H4.44512V26.832C4.44512 27.4762 4.94307 27.9989 5.55666 27.9989C6.17025 27.9989 6.6682 27.4762 6.6682 26.832V20.1479C8.20582 20.5044 10.782 20.9998 13.3354 20.9998C15.547 20.9998 16.8888 20.6805 17.7086 20.2441L20.0025 22.6522V26.8331C20.0025 27.4773 20.5005 28 21.1141 28C21.7276 28 22.2256 27.4773 22.2256 26.8331V24.9849L22.2673 25.0287V21.7292L21.9079 21.3519C21.9079 21.3519 21.9037 21.3421 21.8985 21.3377L19.8463 19.1833C21.1839 18.2811 21.8652 17.1361 22.1954 16.3694C22.2683 16.2535 22.3225 16.1223 22.3517 15.979C22.3548 15.9659 22.3579 15.9539 22.36 15.9407C22.4381 15.71 22.4704 15.5591 22.4767 15.5306L22.4652 15.5285C22.5746 15.1643 22.7121 14.869 22.8892 14.6208L24.8539 11.8725L27.427 12.7736C28.0114 12.9814 28.6386 12.6479 28.8313 12.0365L29.9428 8.53699C30.1074 8.01862 29.9074 7.44994 29.4605 7.16779L29.4595 7.16669ZM27.0749 10.1927L24.7966 9.39438C24.3456 9.23581 23.8434 9.39875 23.5569 9.80011L21.112 13.2198C20.6765 13.829 20.3703 14.5661 20.1807 15.476C20.164 15.5558 20.1557 15.6356 20.1546 15.7144C19.7785 16.3913 18.9608 17.4456 17.3357 18.0919C15.0209 18.9471 12.0384 18.6179 12.0384 18.6179C9.85594 18.4757 7.7662 18.0208 6.66612 17.7496V11.6647H8.74544L9.53404 11.656H16.3564V11.6439C18.3899 11.5608 20.2088 10.3371 21.112 8.44075L22.5277 5.46831C22.5944 5.54487 22.6725 5.61267 22.7611 5.66626L27.552 8.68244L27.0739 10.1894L27.0749 10.1927Z" fill="#98C23C"/>
</svg>
