<svg width="38" height="17" viewBox="0 0 38 17" fill="none" xmlns="http://www.w3.org/2000/svg">
<path fill-rule="evenodd" clip-rule="evenodd" d="M28.5187 1.07007L37.3603 15.9903L37.3439 16H35.0412L28.4813 4.93013L22.1306 15.189L19.1331 11.6919L16.4819 16L16 16L1 16V15.5001V14L15.3643 14L18.8669 8.30827L21.8694 11.8112L28.5187 1.07007Z" fill="#98C23C"/>
<path d="M37.3603 15.9903L37.4878 16.2054L37.7028 16.0779L37.5754 15.8628L37.3603 15.9903ZM28.5187 1.07007L28.7337 0.942618L28.5233 0.587561L28.3061 0.93848L28.5187 1.07007ZM37.3439 16V16.25H37.4124L37.4714 16.2151L37.3439 16ZM35.0412 16L34.8262 16.1275L34.8988 16.25H35.0412V16ZM28.4813 4.93013L28.6964 4.80268L28.486 4.44762L28.2688 4.79854L28.4813 4.93013ZM22.1306 15.189L21.9408 15.3517L22.1632 15.6113L22.3431 15.3206L22.1306 15.189ZM19.1331 11.6919L19.3229 11.5292L19.0998 11.269L18.9201 11.5609L19.1331 11.6919ZM16.4819 16L16.4819 16.25H16.6216L16.6948 16.131L16.4819 16ZM16 16V16.25H16L16 16ZM1 16H0.75V16.25H1L1 16ZM1 14L1 13.75H0.75V14H1ZM15.3643 14V14.25H15.504L15.5773 14.131L15.3643 14ZM18.8669 8.30827L19.0568 8.14558L18.8337 7.88532L18.654 8.17725L18.8669 8.30827ZM21.8694 11.8112L21.6796 11.9739L21.9021 12.2334L22.082 11.9428L21.8694 11.8112ZM37.5754 15.8628L28.7337 0.942618L28.3036 1.19752L37.1452 16.1177L37.5754 15.8628ZM37.4714 16.2151L37.4878 16.2054L37.2328 15.7752L37.2165 15.7849L37.4714 16.2151ZM35.0412 16.25H37.3439V15.75H35.0412V16.25ZM28.2663 5.05758L34.8262 16.1275L35.2563 15.8725L28.6964 4.80268L28.2663 5.05758ZM22.3431 15.3206L28.6939 5.06172L28.2688 4.79854L21.918 15.0574L22.3431 15.3206ZM18.9432 11.8546L21.9408 15.3517L22.3204 15.0263L19.3229 11.5292L18.9432 11.8546ZM16.6948 16.131L19.346 11.8229L18.9201 11.5609L16.269 15.869L16.6948 16.131ZM16 16.25L16.4819 16.25L16.4819 15.75L16 15.75L16 16.25ZM16 15.75L1 15.75L1 16.25L16 16.25V15.75ZM1.25 16V15.5001H0.75V16H1.25ZM1.25 15.5001V14H0.75V15.5001H1.25ZM1 14.25L15.3643 14.25V13.75L1 13.75L1 14.25ZM18.654 8.17725L15.1514 13.869L15.5773 14.131L19.0799 8.4393L18.654 8.17725ZM22.0592 11.6485L19.0568 8.14558L18.6771 8.47097L21.6796 11.9739L22.0592 11.6485ZM28.3061 0.93848L21.6569 11.6796L22.082 11.9428L28.7312 1.20166L28.3061 0.93848Z" fill="#98C23C"/>
</svg>
