<svg width="39" height="39" viewBox="0 0 39 39" fill="none" xmlns="http://www.w3.org/2000/svg">
<path d="M19.4999 0C8.74788 0 0 8.74788 0 19.4999C0 30.252 8.74788 38.9999 19.4999 38.9999C30.252 38.9999 38.9999 30.252 38.9999 19.4999C38.9999 8.74788 30.2521 0 19.4999 0ZM19.4999 37.3043C9.68213 37.3043 1.69562 29.3178 1.69562 19.4999C1.69562 14.8963 3.46588 10.708 6.3451 7.54562L14.0603 15.2608H9.32605C8.85805 15.2608 8.4782 15.6407 8.4782 16.1087C8.4782 16.5767 8.85805 16.9566 9.32605 16.9566H11.8695V27.9782C11.8695 28.4462 12.2494 28.8261 12.7174 28.8261C13.1854 28.8261 13.5652 28.4462 13.5652 27.9782V23.1202C14.7386 23.3796 16.7039 23.7391 18.6522 23.7391C20.3394 23.7391 21.3635 23.5068 21.9892 23.1897L23.7391 24.9396V27.9782C23.7391 28.4462 24.119 28.8261 24.587 28.8261C25.055 28.8261 25.4347 28.4462 25.4347 27.9782V26.6353L31.4543 32.6548C28.2919 35.534 24.1036 37.3043 19.4999 37.3043ZM15.756 16.9565L20.6649 21.8654C20.2579 21.9586 19.6255 22.0418 18.6521 22.0418C16.6563 22.0418 14.5707 21.6145 13.5651 21.3788V16.9566H15.756V16.9565ZM32.6531 31.456L25.1922 23.9951C25.1888 23.9917 25.1888 23.9884 25.1855 23.985L16.7072 15.5067C16.7038 15.5033 16.7005 15.5033 16.697 15.4999L7.54053 6.34343C10.708 3.46763 14.8946 1.69562 19.4999 1.69562C29.3178 1.69562 37.3043 9.68213 37.3043 19.4999C37.3043 24.1054 35.5323 28.2919 32.6531 31.456Z" fill="#98C23C"/>
<path d="M30.9558 13.6856L27.1288 11.3897V9.32608C27.1288 8.93271 26.8592 8.59189 26.476 8.50032C26.0961 8.40876 25.6993 8.59356 25.523 8.9463L23.0695 13.8552C22.654 14.6861 21.8096 15.2202 20.8651 15.2474C20.3971 15.2626 20.0292 15.6527 20.0427 16.1207C20.058 16.5887 20.5209 16.9634 20.916 16.9431C22.4845 16.8973 23.8919 16.0037 24.5871 14.6132L25.6672 12.453C25.7181 12.5089 25.7775 12.5581 25.8453 12.5971L29.5011 14.7895L29.1365 15.8849L27.3984 15.305C27.0542 15.1897 26.671 15.3084 26.4523 15.6L24.587 18.0859C24.2547 18.5285 24.0207 19.0642 23.8765 19.7256C23.7765 20.1834 24.0647 20.6361 24.5226 20.7362C24.5836 20.7498 24.6447 20.7565 24.7057 20.7565C25.094 20.7565 25.445 20.4869 25.5315 20.0901C25.6247 19.6663 25.7553 19.3525 25.9418 19.1033L27.4408 17.1058L29.4044 17.7603C29.8504 17.9113 30.3285 17.6688 30.4761 17.2245L31.3239 14.681C31.4493 14.3045 31.2966 13.8908 30.9558 13.6856Z" fill="#98C23C"/>
</svg>
