<svg width="20" height="20" viewBox="0 0 20 20" fill="none" xmlns="http://www.w3.org/2000/svg">
<path d="M2.7542 4.59751H17.2457C17.7118 4.59751 18.0932 4.21614 18.0932 3.75005C18.0932 3.28396 17.7118 2.90259 17.2457 2.90259H2.7542C2.28811 2.90259 1.90674 3.28396 1.90674 3.75005C1.90674 4.21614 2.28811 4.59751 2.7542 4.59751Z" fill="#98C23C"/>
<path d="M6.39836 1.71616H13.6018C14.0679 1.71616 14.4916 1.33479 14.4916 0.868701C14.4916 0.402607 14.1102 0.0212402 13.6441 0.0212402H6.39836C5.93227 0.0212402 5.5509 0.402607 5.5509 0.868701C5.5509 1.33479 5.93223 1.71616 6.39836 1.71616Z" fill="#98C23C"/>
<path d="M19.1525 18.284H18.8136V7.52122H19.1525C19.6186 7.52122 20 7.13985 20 6.67376C20 6.20766 19.6186 5.82629 19.1525 5.82629H0.847461C0.381367 5.82633 0 6.20766 0 6.67376C0 7.13985 0.381367 7.52122 0.847461 7.52122H1.18645V18.2839H0.847461C0.381367 18.2839 0 18.6653 0 19.1314C0 19.5975 0.381367 19.9789 0.847461 19.9789H2.03391H7.37289H12.6271H17.9661H19.1525C19.6186 19.9789 19.9576 19.6399 20 19.1314C20 18.6653 19.6186 18.284 19.1525 18.284ZM2.88137 7.52122H17.161V18.2839H13.4746V12.2246C13.4746 11.7585 13.0932 11.3772 12.6271 11.3772H7.37289C6.9068 11.3772 6.52543 11.7585 6.52543 12.2246V18.284H2.88137V7.52122ZM11.7796 18.284H8.17797V13.0297H11.7796V18.284Z" fill="#98C23C"/>
</svg>
