<svg width="38" height="28" viewBox="0 0 38 28" fill="none" xmlns="http://www.w3.org/2000/svg">
<g clip-path="url(#clip0_50_19)">
<path d="M38 1.07244C38 0.481068 37.528 0 36.9418 0H34.0286C33.0125 0 32.1828 0.82425 32.1527 1.8538L27.9889 10.3782H24.7601C24.712 10.3782 24.6669 10.3935 24.6248 10.4211L16.7723 16.295H14.9535V15.3482C14.9535 15.2165 14.8483 15.1092 14.722 15.1092H13.9073V14.1624C14.4845 14.1624 14.9535 13.6844 14.9535 13.0991C14.9535 12.5139 14.4845 12.0328 13.9073 12.0328H8.06297C7.48877 12.0328 7.01978 12.5108 7.01978 13.0991C7.01978 13.6875 7.48877 14.1624 8.06297 14.1624V15.1092H7.25127C7.125 15.1092 7.01978 15.2165 7.01978 15.3482V16.295H5.80522C2.60348 16.295 0 18.9486 0 22.2119C0 22.313 0.0661392 22.4049 0.162342 22.4355L0.285601 22.4754C0.102215 22.9411 0 23.4467 0 23.9768C0 25.5119 0.850791 26.851 2.09541 27.5251H0.231487C0.105222 27.5251 0 27.6323 0 27.7641C0 27.8958 0.105222 28 0.231487 28H31.2658C31.3921 28 31.4973 27.8928 31.4973 27.7641C31.4973 27.6354 31.3921 27.5251 31.2658 27.5251H26.9247C27.8476 27.1053 28.6323 26.422 29.1824 25.5701C29.7386 24.7183 30.0603 23.6949 30.0603 22.5979C30.0603 22.0893 29.9911 21.596 29.8589 21.1272L31.4191 20.404C31.5033 20.3673 31.5544 20.2815 31.5544 20.1895V18.1703L35.8234 15.8017L35.8475 15.7895L35.8745 15.7711C35.8745 15.7711 35.8896 15.7588 35.8956 15.7527C35.9046 15.7404 35.9166 15.7312 35.9256 15.7159C35.9347 15.7037 35.9407 15.6914 35.9467 15.6761C35.9467 15.6761 35.9467 15.6699 35.9527 15.6638C35.9527 15.6546 35.9587 15.6454 35.9587 15.6332C35.9587 15.6179 35.9647 15.5995 35.9647 15.5842V10.6141C35.9647 10.4824 35.8625 10.3782 35.7332 10.3782H30.6345L34.6028 2.14795H36.9418C37.528 2.14795 38 1.66689 38 1.07244ZM1.5693 20.7625C1.5693 20.7625 1.53924 20.784 1.52421 20.7932C1.55427 20.7717 1.58434 20.7472 1.6144 20.7258L1.5693 20.7625ZM20.4911 19.399C20.446 19.4572 20.404 19.5216 20.3649 19.5828C20.3258 19.6441 20.2867 19.7054 20.2476 19.7698C20.2416 19.782 20.2356 19.7881 20.2326 19.8004C20.2176 19.8157 20.2115 19.8341 20.2025 19.8494C20.1905 19.877 20.1725 19.9015 20.1604 19.9291C20.1394 19.9597 20.1244 19.9934 20.1063 20.0271C20.1063 20.0333 20.0973 20.0425 20.0973 20.0455C20.0642 20.1037 20.0342 20.1589 20.0071 20.2202C19.9981 20.2355 19.9951 20.2447 19.9891 20.26C19.95 20.3366 19.9139 20.4163 19.8809 20.499C19.8718 20.5205 19.8628 20.545 19.8538 20.5664C19.7937 20.7012 19.7426 20.8422 19.7005 20.9862H9.96297V19.399H20.4911ZM17.3886 23.5999V24.4977V25.1105H9.96297V23.5999H17.3886ZM8.52896 14.1624H13.4413V15.1092H8.52896V14.1624ZM3.94731 26.2596C2.71472 26.2596 1.70459 25.2362 1.70459 23.9768C1.70459 22.7174 2.71472 21.694 3.94731 21.694C5.1799 21.694 6.18703 22.7174 6.18703 23.9768C6.18703 25.2362 5.18291 26.2596 3.94731 26.2596ZM5.79921 27.5251C6.83339 26.9643 7.59699 25.947 7.82247 24.7336H9.49399V25.3465C9.49399 25.4752 9.60221 25.5824 9.72848 25.5824H17.6231C17.7524 25.5824 17.8546 25.4752 17.8546 25.3465V24.7336H19.8959C20.419 25.9746 21.393 26.9766 22.5986 27.5251H5.79921ZM24.7601 25.8C23.0315 25.8 21.6215 24.3629 21.6215 22.5979C21.6215 20.833 23.0315 19.399 24.7601 19.399C26.4888 19.399 27.9017 20.8361 27.9017 22.5979C27.9017 24.3598 26.4918 25.8 24.7601 25.8Z" fill="#98C23C"/>
</g>
<defs>
<clipPath id="clip0_50_19">
<rect width="38" height="28" fill="white"/>
</clipPath>
</defs>
</svg>
