<svg width="39" height="24" viewBox="0 0 39 24" fill="none" xmlns="http://www.w3.org/2000/svg">
<g clip-path="url(#clip0_51_21)">
<path d="M36.0819 19.7717C36.0819 19.8471 36.1239 19.9162 36.1854 19.9634C36.2501 20.0073 36.3277 20.023 36.4054 20.001C37.9324 19.5738 39.0032 18.1948 39.0032 16.6492V10.8283C39.0032 10.3728 38.8965 9.93613 38.6991 9.54974C38.6991 9.54346 38.6991 9.53403 38.6991 9.52775C38.6991 9.43351 38.6441 9.35497 38.5633 9.31414C38.0747 8.53194 37.2239 7.98848 36.2404 7.90995L36.2566 6.9801C36.2825 5.78639 35.4769 4.71518 34.2993 4.37277L27.5507 2.42199C27.5216 2.40628 27.4893 2.40314 27.4537 2.40314H26.5446V1.09634C26.5446 0.490052 26.0367 0 25.4155 0C24.7944 0 24.2864 0.490052 24.2864 1.09634V6.20733C24.2864 6.81047 24.7911 7.30366 25.4155 7.30366C26.0399 7.30366 26.5446 6.81047 26.5446 6.20733V4.90366H27.3663L31.8956 8.26178V12.8702H31.5235L29.1165 10.8471C29.0163 10.7623 28.8674 10.7686 28.7736 10.8597L27.7513 11.8524C27.706 11.8963 27.6769 11.9592 27.6769 12.022V12.8702H19.8866V8.6733C19.8866 7.72147 19.0875 6.94241 18.1073 6.94241H14.018C13.9274 6.89843 13.8336 6.85131 13.7398 6.81047L12.9213 4.68691C12.4651 3.49948 11.5884 2.49738 10.4593 1.86283C10.3687 1.81257 10.2555 1.81885 10.1714 1.88482C10.0937 1.95079 10.0614 2.05445 10.097 2.15183L11.446 5.93403C8.9679 5.1801 5.76508 4.73717 1.62406 4.93822C0.714973 4.98534 0 5.71414 0 6.6V11.5759C0 12.4932 0.766736 13.2377 1.70817 13.2377H4.57453C4.59071 13.2377 4.61012 13.2377 4.62306 13.2314C4.67159 13.222 4.71688 13.1969 4.75247 13.1654C5.46744 12.6471 6.26976 12.2764 7.11738 12.0723V12.977C4.71688 13.6649 2.95695 15.823 2.95695 18.3738C2.95695 20.667 4.37395 22.6398 6.40241 23.5131H2.71107C2.5752 23.5131 2.45873 23.6199 2.45873 23.755C2.45873 23.8901 2.57196 24 2.71107 24H14.7944C14.9303 24 15.0468 23.8932 15.0468 23.755C15.0468 23.6168 14.9336 23.5131 14.7944 23.5131H11.1031C12.2257 23.0293 13.1639 22.2094 13.7721 21.1822H26.5187C26.6546 21.1822 26.771 21.0723 26.771 20.9372V19.8974C26.771 19.1215 26.9716 18.3927 27.3275 17.755C27.3728 17.6702 27.4246 17.5853 27.4796 17.5037C27.4796 17.4974 27.486 17.4911 27.4925 17.488C27.5443 17.4063 27.5993 17.3277 27.6575 17.2492C27.6963 17.1958 27.7351 17.1455 27.7772 17.0921C27.8516 17.0042 27.9292 16.9162 28.0101 16.8314C28.0522 16.7874 28.0942 16.7435 28.1395 16.6995C28.1751 16.6649 28.2139 16.6304 28.2495 16.5958C28.2883 16.5581 28.3239 16.5267 28.3628 16.4921C28.7542 16.156 29.2071 15.8859 29.7021 15.6911V16.1466C28.2301 16.7874 27.2046 18.2262 27.2046 19.8911C27.2046 21.4555 28.1104 22.8188 29.4433 23.5068H25.1243C24.9885 23.5068 24.872 23.6136 24.872 23.7487C24.872 23.8838 24.9852 23.9937 25.1243 23.9937H38.7509C38.89 23.9937 39.0032 23.8869 39.0032 23.7487C39.0032 23.6105 38.8932 23.5068 38.7509 23.5068H33.4226C34.7522 22.8157 35.6581 21.4524 35.6581 19.8911C35.6581 18.2262 34.6293 16.7874 33.1605 16.1466V15.6848C34.8428 16.3288 36.0366 17.8932 36.0851 19.7654L36.0819 19.7717ZM37.7642 9.76963H38.2527C38.3788 10.0178 38.4597 10.2942 38.4888 10.5864H37.7642C37.5345 10.5864 37.3436 10.401 37.3436 10.178C37.3436 9.95497 37.5345 9.76963 37.7642 9.76963ZM4.32866 12.7508H1.71141C1.04496 12.7508 0.501452 12.223 0.501452 11.5728V9.50262H4.32866V12.7508ZM8.50527 20.4534C7.43119 20.3372 6.59328 19.4482 6.59328 18.3738C6.59328 17.2995 7.42796 16.4136 8.50527 16.2942V20.4534ZM8.75438 12.7508C8.56026 12.7508 8.37263 12.7602 8.18499 12.7759C8.17528 12.7759 8.16881 12.7759 8.16234 12.7759C8.06528 12.7885 7.96823 12.7979 7.87441 12.8136C7.79029 12.8262 7.70618 12.8387 7.62207 12.8576V11.9749C7.91323 11.9277 8.19793 11.8963 8.47939 11.8806C8.6735 11.8743 8.86437 11.8743 9.05525 11.8806C9.24289 11.8901 9.42729 11.9058 9.6117 11.9277C9.70552 11.9403 9.7961 11.9497 9.88992 11.9686V12.8576C9.80904 12.8419 9.72493 12.8262 9.63758 12.8136C9.54052 12.7979 9.44347 12.7885 9.34965 12.7759C9.34318 12.7759 9.33347 12.7759 9.327 12.7759C9.13936 12.7602 8.95172 12.7508 8.75761 12.7508H8.75438ZM9.00672 20.4534V16.2942C10.0776 16.4136 10.9155 17.3026 10.9155 18.3738C10.9155 19.445 10.0808 20.3372 9.00672 20.4534ZM10.3881 12.977V12.0723C11.996 12.4649 13.3839 13.4199 14.2962 14.7298C14.2962 14.7298 14.2962 14.7361 14.3027 14.7393C14.3189 14.7613 14.335 14.7832 14.348 14.8052C14.7783 15.4366 15.0953 16.1529 15.2732 16.9257L14.3545 16.9351C13.8336 15.0377 12.3195 13.5298 10.3849 12.977H10.3881ZM26.2728 20.6953H14.0309C14.0309 20.6953 14.0471 20.6639 14.0504 20.6513C14.0827 20.5822 14.1118 20.5162 14.1409 20.444C14.1474 20.4283 14.1539 20.4157 14.1571 20.4C14.183 20.3277 14.2089 20.2586 14.2348 20.1864C14.2445 20.1613 14.2509 20.133 14.2606 20.1079C14.2898 20.023 14.3156 19.9382 14.3383 19.8534C14.3642 19.756 14.39 19.6618 14.4127 19.5644C14.4289 19.4921 14.445 19.4199 14.458 19.3445C14.5162 19.0241 14.5453 18.6974 14.5453 18.3707C14.5453 18.267 14.5453 18.1634 14.5356 18.0628C14.5356 17.9906 14.5259 17.9183 14.5195 17.8461C14.5195 17.8021 14.5097 17.7613 14.5065 17.7204C14.5 17.6764 14.4936 17.6293 14.4871 17.5885C14.4806 17.5351 14.4709 17.4817 14.4645 17.4283C14.4645 17.4283 14.4645 17.4188 14.4645 17.4157L15.5029 17.4031L19.1393 20.0827C19.1846 20.1141 19.2363 20.1298 19.2913 20.1298H26.2728V20.689V20.6953ZM26.9587 17.3969H19.7507V16.5581H27.5895C27.3469 16.8157 27.1366 17.0984 26.9587 17.3969ZM20.2522 14.3089C20.2101 14.089 20.1325 13.7592 19.9966 13.3508H31.8923V14.3089H20.2522ZM31.1774 21.3079C30.4818 21.1948 29.9512 20.6042 29.9512 19.8942C29.9512 19.1843 30.4818 18.5937 31.1774 18.4806V21.3047V21.3079ZM31.1385 15.801C31.1385 15.801 31.1126 15.801 31.0997 15.801C31.0027 15.8073 30.9056 15.8168 30.8085 15.8325C30.8021 15.8325 30.7924 15.8325 30.7859 15.8325C30.6985 15.845 30.6144 15.8607 30.5271 15.8764C30.5012 15.8859 30.4753 15.8921 30.4462 15.8953C30.3653 15.9141 30.2812 15.9361 30.2003 15.9613V15.5246C30.2003 15.5246 30.2133 15.5183 30.2197 15.5152C30.2262 15.5152 30.2359 15.5152 30.2392 15.5152C30.3491 15.4838 30.4656 15.4618 30.5756 15.4429C30.6468 15.4272 30.7147 15.4178 30.7859 15.4084C30.8053 15.4084 30.8247 15.4021 30.8409 15.4021C30.9056 15.3927 30.9671 15.3864 31.0318 15.3832C31.0771 15.377 31.1256 15.3738 31.1709 15.3707C31.3423 15.3613 31.517 15.3613 31.6853 15.3707C31.7306 15.3707 31.7726 15.3707 31.8179 15.3801C31.8826 15.3801 31.9441 15.3895 32.0056 15.399C32.0282 15.399 32.0508 15.399 32.0735 15.4084C32.1706 15.4178 32.2644 15.4335 32.355 15.4524C32.4067 15.4618 32.4585 15.4712 32.507 15.4869C32.5555 15.4963 32.6073 15.5058 32.6558 15.5246V15.9613C32.6105 15.9487 32.5652 15.9393 32.5199 15.9267C32.4747 15.9141 32.4294 15.9047 32.3841 15.8921C32.3679 15.8921 32.3517 15.8859 32.3388 15.8796C32.2514 15.8607 32.1608 15.845 32.0703 15.8325C32.0606 15.8325 32.0541 15.8325 32.0476 15.8325C31.9506 15.8168 31.8535 15.8073 31.7565 15.801C31.7435 15.801 31.7306 15.801 31.7176 15.801C31.6206 15.7916 31.5235 15.7885 31.4297 15.7885C31.3359 15.7885 31.2356 15.7885 31.1418 15.801H31.1385ZM31.6756 21.3079V18.4838C32.3744 18.5969 32.9049 19.1874 32.9049 19.8974C32.9049 20.6073 32.3744 21.1979 31.6756 21.311V21.3079Z" fill="#98C23C"/>
<path d="M18.5505 23.5132H17.6123C17.4732 23.5132 17.3632 23.6231 17.3632 23.7551C17.3632 23.887 17.4764 23.997 17.6123 23.997H18.5505C18.6896 23.997 18.7996 23.887 18.7996 23.7551C18.7996 23.6231 18.6863 23.5132 18.5505 23.5132Z" fill="#98C23C"/>
<path d="M16.6741 23.5132H15.7359C15.5968 23.5132 15.4868 23.6231 15.4868 23.7551C15.4868 23.887 15.6 23.997 15.7359 23.997H16.6741C16.8132 23.997 16.9232 23.887 16.9232 23.7551C16.9232 23.6231 16.81 23.5132 16.6741 23.5132Z" fill="#98C23C"/>
<path d="M22.3066 23.5132H21.3684C21.2293 23.5132 21.1193 23.6231 21.1193 23.7551C21.1193 23.887 21.2325 23.997 21.3684 23.997H22.3066C22.4457 23.997 22.5557 23.887 22.5557 23.7551C22.5557 23.6231 22.4424 23.5132 22.3066 23.5132Z" fill="#98C23C"/>
<path d="M20.4301 23.5132H19.4919C19.3528 23.5132 19.2428 23.6231 19.2428 23.7551C19.2428 23.887 19.356 23.997 19.4919 23.997H20.4301C20.5692 23.997 20.6792 23.887 20.6792 23.7551C20.6792 23.6231 20.566 23.5132 20.4301 23.5132Z" fill="#98C23C"/>
<path d="M24.1829 23.5132H23.2447C23.1056 23.5132 22.9956 23.6231 22.9956 23.7551C22.9956 23.887 23.1088 23.997 23.2447 23.997H24.1829C24.322 23.997 24.432 23.887 24.432 23.7551C24.432 23.6231 24.3188 23.5132 24.1829 23.5132Z" fill="#98C23C"/>
<path d="M0.75056 23.5132H0.249108C0.109996 23.5132 0 23.6231 0 23.7551C0 23.887 0.113231 23.997 0.249108 23.997H0.747325C0.886437 23.997 0.996433 23.887 0.996433 23.7551C0.996433 23.6231 0.883202 23.5132 0.747325 23.5132H0.75056Z" fill="#98C23C"/>
<path d="M2.05752 23.5132H1.40402C1.2649 23.5132 1.15491 23.6231 1.15491 23.7551C1.15491 23.887 1.26814 23.997 1.40402 23.997H2.05752C2.19663 23.997 2.30663 23.887 2.30663 23.7551C2.30663 23.6231 2.1934 23.5132 2.05752 23.5132Z" fill="#98C23C"/>
</g>
<defs>
<clipPath id="clip0_51_21">
<rect width="39" height="24" fill="white"/>
</clipPath>
</defs>
</svg>
