<svg width="25" height="17" viewBox="0 0 25 17" fill="none" xmlns="http://www.w3.org/2000/svg">
<path fill-rule="evenodd" clip-rule="evenodd" d="M24.3603 15.9903L15.5187 1.07007L8.8694 11.8112L5.86692 8.30827L1.14832 15.976L1.18732 16H3.48191L6.13303 11.6919L9.13055 15.189L15.4813 4.93013L22.0412 16H24.3439L24.3603 15.9903Z" fill="#98C23C"/>
<path d="M15.5187 1.07007L15.7337 0.942618L15.5233 0.587561L15.3061 0.93848L15.5187 1.07007ZM24.3603 15.9903L24.4877 16.2054L24.7028 16.0779L24.5753 15.8628L24.3603 15.9903ZM8.8694 11.8112L8.67958 11.9739L8.90204 12.2334L9.08196 11.9428L8.8694 11.8112ZM5.86692 8.30827L6.05673 8.14558L5.83365 7.88532L5.654 8.17725L5.86692 8.30827ZM1.14832 15.976L0.935401 15.845L0.804376 16.0579L1.01729 16.1889L1.14832 15.976ZM1.18732 16L1.05629 16.2129L1.11656 16.25H1.18732V16ZM3.48191 16V16.25H3.6216L3.69482 16.131L3.48191 16ZM6.13303 11.6919L6.32284 11.5292L6.09977 11.269L5.92012 11.5609L6.13303 11.6919ZM9.13055 15.189L8.94074 15.3517L9.16319 15.6113L9.34312 15.3206L9.13055 15.189ZM15.4813 4.93013L15.6964 4.80268L15.486 4.44762L15.2687 4.79854L15.4813 4.93013ZM22.0412 16L21.8261 16.1275L21.8988 16.25H22.0412V16ZM24.3439 16V16.25H24.4124L24.4713 16.2151L24.3439 16ZM15.3036 1.19752L24.1452 16.1177L24.5753 15.8628L15.7337 0.942618L15.3036 1.19752ZM9.08196 11.9428L15.7312 1.20166L15.3061 0.93848L8.65683 11.6796L9.08196 11.9428ZM5.6771 8.47097L8.67958 11.9739L9.05921 11.6485L6.05673 8.14558L5.6771 8.47097ZM1.36123 16.107L6.07983 8.4393L5.654 8.17725L0.935401 15.845L1.36123 16.107ZM1.31834 15.7871L1.27934 15.7631L1.01729 16.1889L1.05629 16.2129L1.31834 15.7871ZM1.18732 16.25H3.48191V15.75H1.18732V16.25ZM5.92012 11.5609L3.26899 15.869L3.69482 16.131L6.34595 11.8229L5.92012 11.5609ZM9.32036 15.0263L6.32284 11.5292L5.94322 11.8546L8.94074 15.3517L9.32036 15.0263ZM15.2687 4.79854L8.91798 15.0574L9.34312 15.3206L15.6939 5.06171L15.2687 4.79854ZM22.2563 15.8725L15.6964 4.80268L15.2662 5.05758L21.8261 16.1275L22.2563 15.8725ZM22.0412 16.25H24.3439V15.75H22.0412V16.25ZM24.2328 15.7752L24.2164 15.7849L24.4713 16.2151L24.4877 16.2054L24.2328 15.7752Z" fill="#98C23C"/>
</svg>
