<svg width="201" height="54" viewBox="0 0 201 54" fill="none" xmlns="http://www.w3.org/2000/svg">
<g clip-path="url(#clip0_14_902)">
<path d="M4.59923 6.3699H9.15292V42.7531H31.0106V50.9365H0V11.1757C0 8.6141 2.02639 6.3699 4.59923 6.3699Z" fill="#004A41"/>
<path d="M42.19 25.3209H33.4241C34.4715 18.9057 39.0252 15.7547 47.0624 15.7547C56.6707 15.7547 61.5432 18.9057 61.7481 25.3209V37.1313C61.7481 46.6975 55.9649 50.9592 46.5388 51.6166C38.1827 52.274 32.3768 48.3976 32.3768 40.7356C32.5817 32.4162 38.6381 30.172 47.4495 29.3333C51.2063 28.8799 53.1188 27.7691 53.1188 25.865C52.9139 23.8928 51.0697 22.918 47.4495 22.918C44.3758 22.8954 42.6681 23.6888 42.19 25.3209ZM53.2555 36.7233V33.5043C51.2063 34.3657 48.8384 35.0685 46.2655 35.6125C42.782 36.2699 41.006 37.902 41.006 40.4636C41.2109 43.2065 42.6453 44.5213 45.4231 44.5213C50.2956 44.544 53.2555 41.6424 53.2555 36.7233Z" fill="#004A41"/>
<path d="M110.609 16.2761L100.933 50.9592H91.848L86.5885 26.1143L81.0557 50.9592H71.9028L62.3628 16.2761H67.4402C69.6715 16.2761 71.6068 17.8176 72.1077 19.9711L76.798 40.3276L81.1696 19.2911C81.5339 17.5456 83.0821 16.2761 84.8808 16.2761H87.9546C89.7761 16.2761 91.3243 17.5456 91.6886 19.3364L95.8325 40.3503L100.568 19.4951C101.229 17.3416 102.686 16.2761 104.849 16.2761H110.609Z" fill="#004A41"/>
<path d="M136.952 50.9592C134.061 50.7552 132.604 49.3951 132.604 46.6295V28.7892C132.399 25.1849 130.441 23.4167 126.547 23.4167C122.654 23.4167 120.696 25.1849 120.627 28.7892V50.9365H111.748V30.5574C111.748 20.6512 116.757 15.7321 126.684 15.7321C136.611 15.7321 141.506 20.6512 141.438 30.5574V50.9365H136.952V50.9592Z" fill="#004A41"/>
<path d="M201 26.0463C201 29.56 200.317 32.9829 198.951 36.1792C198.495 37.2673 197.949 38.3327 197.357 39.3528C196.902 40.1009 195.877 40.2369 195.262 39.6249L192.963 37.3353C191.574 35.9525 191.141 33.9123 191.802 32.0535C192.485 30.172 192.849 28.1545 192.849 26.0463C192.849 25.6836 192.849 25.3436 192.826 24.9809C192.28 15.5961 184.425 8.13806 174.862 8.13806C169.921 8.13806 165.436 10.1329 162.18 13.3519L156.374 7.59401C158.764 5.2138 161.542 3.35497 164.662 2.04018C167.895 0.680061 171.31 0 174.862 0C178.414 0 181.806 0.680061 185.039 2.04018C188.159 3.35497 190.959 5.23647 193.35 7.61668C194.648 8.90879 195.786 10.2916 196.765 11.8104C197.608 13.1025 198.336 14.4626 198.951 15.9134C200.317 19.1324 201 22.5327 201 26.0463Z" fill="#D3E053"/>
<path d="M197.995 52.1153H192.12C190.458 52.1153 188.842 51.4579 187.658 50.2791L183.081 45.7227V50.7779C180.44 51.6619 177.662 52.0926 174.839 52.0926C171.31 52.0926 167.872 51.4126 164.639 50.0525C161.519 48.7377 158.719 46.8562 156.328 44.476C153.938 42.0957 152.048 39.3075 150.727 36.2019C149.361 32.9829 148.678 29.5826 148.678 26.069C148.678 22.5553 149.361 19.1324 150.727 15.9134C150.955 15.3467 151.228 14.8027 151.501 14.2586L157.74 20.4698C157.171 22.238 156.852 24.0968 156.852 26.0463C156.852 35.9299 164.912 43.9546 174.839 43.9546H174.907V31.6228C174.907 29.56 177.412 28.5172 178.869 29.9907L198.905 49.9391C199.702 50.7325 199.133 52.1153 197.995 52.1153Z" fill="#D3E053"/>
<path d="M164.115 15.3467C164.73 14.6666 165.413 14.0546 166.141 13.4879C166.87 12.9211 167.644 12.4224 168.464 11.9917C170.103 11.1303 171.902 10.4956 173.792 10.3142C179.461 9.77019 184.971 12.9891 188.022 17.6362C190.094 20.7872 191.027 24.7995 190.253 28.5172C189.866 30.3307 189.092 32.0308 188.068 33.5496C188.864 31.9175 189.479 30.1947 189.707 28.4265C190.481 22.646 187.316 16.7748 182.466 13.6692C179.188 11.561 175.044 10.6316 171.242 11.5837C170.376 11.8104 169.534 12.1051 168.714 12.4678C167.075 13.1932 165.504 14.1679 164.115 15.3467Z" fill="#D3E053"/>
<path d="M149.088 14.984C145.103 22.578 146.242 32.4162 150.34 39.7382C154.734 47.5816 163.091 52.682 172.016 53.5888C175.431 53.9288 178.937 53.7021 182.239 52.7727C173.587 55.1756 163.796 53.9288 156.601 48.3523C149.498 42.8438 145.422 34.0484 146.174 25.0942C146.47 21.5806 147.449 18.1123 149.088 14.984Z" fill="#D3E053"/>
<path d="M183.081 50.7779C180.44 51.6619 177.662 52.0926 174.839 52.0926C171.31 52.0926 167.872 51.4126 164.639 50.0525C161.519 48.7377 158.719 46.8562 156.328 44.476C153.938 42.0957 152.048 39.3075 150.727 36.2019C149.361 32.9829 148.678 29.5826 148.678 26.069C148.678 22.5553 149.361 19.1324 150.727 15.9134C150.955 15.3467 151.228 14.8027 151.501 14.2586L157.74 20.4698C157.171 22.238 156.852 24.0968 156.852 26.0463C156.852 35.9299 164.912 43.9546 174.839 43.9546H174.907V43.7959C178.277 50.5512 183.081 50.7779 183.081 50.7779Z" fill="#8DC400"/>
<path d="M192.781 24.9809C192.234 15.5961 184.379 8.13806 174.816 8.13806C169.876 8.13806 165.39 10.1329 162.134 13.3519L156.374 7.59401C158.764 5.2138 161.542 3.35497 164.662 2.04018C167.895 0.680061 171.31 0 174.862 0C178.414 0 181.806 0.680061 185.039 2.04018C188.159 3.35497 190.959 5.23647 193.35 7.61668C194.648 8.90879 195.786 10.2916 196.765 11.8104C196.993 15.1653 196.606 20.4245 192.781 24.9809Z" fill="#8DC400"/>
</g>
<defs>
<clipPath id="clip0_14_902">
<rect width="201" height="53.9356" fill="white"/>
</clipPath>
</defs>
</svg>
