<svg width="32" height="32" viewBox="0 0 32 32" fill="none" xmlns="http://www.w3.org/2000/svg">
<path d="M16 29.3334C23.3638 29.3334 29.3333 23.3639 29.3333 16.0001C29.3333 8.63628 23.3638 2.66675 16 2.66675C8.6362 2.66675 2.66666 8.63628 2.66666 16.0001C2.66666 23.3639 8.6362 29.3334 16 29.3334Z" stroke="#98C23C" stroke-width="2" stroke-linecap="round" stroke-linejoin="round"/>
<path d="M16 21.3334C18.9455 21.3334 21.3333 18.9456 21.3333 16.0001C21.3333 13.0546 18.9455 10.6667 16 10.6667C13.0545 10.6667 10.6667 13.0546 10.6667 16.0001C10.6667 18.9456 13.0545 21.3334 16 21.3334Z" stroke="#98C23C" stroke-width="2" stroke-linecap="round" stroke-linejoin="round"/>
<path d="M6.57333 6.57324L12.2267 12.2266" stroke="#98C23C" stroke-width="2" stroke-linecap="round" stroke-linejoin="round"/>
<path d="M19.7733 19.7734L25.4267 25.4268" stroke="#98C23C" stroke-width="2" stroke-linecap="round" stroke-linejoin="round"/>
<path d="M19.7733 12.2266L25.4267 6.57324" stroke="#98C23C" stroke-width="2" stroke-linecap="round" stroke-linejoin="round"/>
<path d="M19.7733 12.2267L24.48 7.52002" stroke="#98C23C" stroke-width="2" stroke-linecap="round" stroke-linejoin="round"/>
<path d="M6.57333 25.4268L12.2267 19.7734" stroke="#98C23C" stroke-width="2" stroke-linecap="round" stroke-linejoin="round"/>
</svg>
