<svg width="30" height="30" viewBox="0 0 30 30" fill="none" xmlns="http://www.w3.org/2000/svg">
<g clip-path="url(#clip0_45_31)">
<path d="M28.7461 13.043H28.0137V8.09766C28.0137 6.9375 27.0996 6.02344 25.998 6.02344H25.4473V2.71875C25.4473 1.55859 24.5918 0.644531 23.5547 0.644531C23.5547 0.644531 23.4961 0.644531 23.4316 0.644531L2.53711 6.01758C2.53125 6.01758 2.51953 6.02344 2.51367 6.02344C1.48242 6.10547 0.644531 6.99023 0.644531 8.09766V27.2812C0.644531 28.4414 1.55859 29.3555 2.66016 29.3555H25.998C27.1582 29.3555 28.0723 28.4414 28.0723 27.2812V22.207H28.7461C29.1152 22.207 29.3555 21.9609 29.3555 21.5977V13.6582C29.3555 13.2891 29.0508 13.043 28.7461 13.043ZM23.6719 1.80469C23.9766 1.86328 24.2812 2.23242 24.2812 2.71875V6.01758H7.42383L23.6719 1.80469ZM26.8535 27.2812C26.8535 27.7676 26.4844 28.1953 25.998 28.1953H2.66016C2.17383 28.1953 1.80469 27.7676 1.80469 27.2812V8.09766C1.80469 7.61133 2.17383 7.18359 2.66016 7.18359H25.9336C26.4199 7.18359 26.7891 7.61133 26.7891 8.09766V13.043H20.7422C18.1758 13.043 16.1602 15.0586 16.1602 17.625C16.1602 20.1914 18.2344 22.207 20.7422 22.207H26.8535V27.2812ZM28.1309 21.0469H20.7422C18.9082 21.0469 17.3848 19.5176 17.3848 17.6895C17.3848 15.8613 18.9141 14.332 20.7422 14.332H28.1309V21.0469Z" fill="#98C23C" stroke="#98C23C" stroke-width="0.75"/>
<path d="M20.0684 17.748C20.0684 18.1172 20.373 18.3574 20.6777 18.3574H21.2285C21.5332 18.3574 21.8379 18.1113 21.8379 17.748C21.8379 17.3789 21.5332 17.1387 21.2285 17.1387H20.6836C20.3145 17.1387 20.0684 17.3848 20.0684 17.748Z" fill="#98C23C" stroke="#98C23C" stroke-width="0.75"/>
</g>
<defs>
<clipPath id="clip0_45_31">
<rect width="30" height="30" fill="white"/>
</clipPath>
</defs>
</svg>
